<svg width="183" height="48" viewBox="0 0 183 48" fill="none" xmlns="http://www.w3.org/2000/svg">
<path fill-rule="evenodd" clip-rule="evenodd" d="M40.26 47.08C49.9929 47.08 58.9191 45.0606 65.88 41.6994C72.8409 45.0606 81.7671 47.08 91.5 47.08C101.233 47.08 110.159 45.0606 117.12 41.6993C124.081 45.0606 133.007 47.08 142.74 47.08C164.975 47.08 183 36.5408 183 23.54C183 10.5392 164.975 0 142.74 0C133.007 0 124.081 2.01938 117.12 5.38066C110.159 2.01938 101.233 0 91.5 0C81.7671 0 72.8409 2.01938 65.88 5.38065C58.9191 2.01938 49.9929 0 40.26 0C18.025 0 0 10.5392 0 23.54C0 36.5408 18.025 47.08 40.26 47.08Z" fill="#9E30F4"/>
<path d="M27.4567 29.664C28.6887 29.664 29.5847 29.232 30.1447 28.48V29.44H32.9927V16H30.1447V21.024C29.5847 20.272 28.6887 19.84 27.4567 19.84C24.7687 19.84 22.8967 21.904 22.8967 24.752C22.8967 27.6 24.7687 29.664 27.4567 29.664ZM27.9047 27.232C26.5447 27.232 25.6807 26.192 25.6807 24.752C25.6807 23.312 26.5447 22.272 27.9047 22.272C29.2967 22.272 30.1927 23.312 30.1927 24.752C30.1927 26.192 29.2967 27.232 27.9047 27.232ZM39.5423 29.664C41.8143 29.664 43.6543 28.432 44.1343 26.64H41.2703C41.0303 27.088 40.3583 27.376 39.5423 27.376C38.4703 27.376 37.7183 26.752 37.4943 25.664H44.3583C44.4063 25.328 44.4223 25.024 44.4223 24.752C44.4223 21.888 42.4063 19.84 39.5423 19.84C36.6783 19.84 34.6623 21.904 34.6623 24.752C34.6623 27.616 36.6783 29.664 39.5423 29.664ZM37.4783 23.824C37.7183 22.704 38.4223 22.096 39.5423 22.096C40.6623 22.096 41.3983 22.704 41.6383 23.824H37.4783ZM46.0954 29.44H48.9434V24.352C48.9914 23.024 49.4874 22.288 50.4154 22.288C51.4554 22.288 51.9994 23.072 51.9994 24.496V29.44H54.8474V24.352C54.8954 23.024 55.3914 22.288 56.3194 22.288C57.3594 22.288 57.9034 23.072 57.9034 24.496V29.44H60.7514V24.016C60.7514 21.408 59.3114 19.84 57.1514 19.84C55.7274 19.84 54.7354 20.288 54.0314 21.184C53.4074 20.32 52.4314 19.84 51.2474 19.84C50.2074 19.84 49.5034 20.208 48.9434 20.96V20.064H46.0954V29.44ZM67.1696 19.84C64.2736 19.84 62.1936 21.904 62.1936 24.752C62.1936 27.6 64.2736 29.664 67.1696 29.664C70.0656 29.664 72.1456 27.6 72.1456 24.752C72.1456 21.904 70.0656 19.84 67.1696 19.84ZM67.1696 22.272C68.5136 22.272 69.3936 23.312 69.3936 24.752C69.3936 26.192 68.5136 27.232 67.1696 27.232C65.8256 27.232 64.9456 26.192 64.9456 24.752C64.9456 23.312 65.8256 22.272 67.1696 22.272ZM77.8942 29.664C79.1262 29.664 80.0222 29.232 80.5822 28.48V29.44H83.4302V16H80.5822V21.024C80.0222 20.272 79.1262 19.84 77.8942 19.84C75.2062 19.84 73.3342 21.904 73.3342 24.752C73.3342 27.6 75.2062 29.664 77.8942 29.664ZM78.3422 27.232C76.9822 27.232 76.1182 26.192 76.1182 24.752C76.1182 23.312 76.9822 22.272 78.3422 22.272C79.7342 22.272 80.6302 23.312 80.6302 24.752C80.6302 26.192 79.7342 27.232 78.3422 27.232ZM89.6598 29.664C90.8918 29.664 91.7878 29.232 92.3478 28.48V29.44H95.1958V20.064H92.3478V21.024C91.7878 20.272 90.8918 19.84 89.6598 19.84C86.9718 19.84 85.0998 21.904 85.0998 24.752C85.0998 27.6 86.9718 29.664 89.6598 29.664ZM90.1078 27.232C88.7478 27.232 87.8838 26.192 87.8838 24.752C87.8838 23.312 88.7478 22.272 90.1078 22.272C91.4998 22.272 92.3958 23.312 92.3958 24.752C92.3958 26.192 91.4998 27.232 90.1078 27.232ZM103.633 20.064L101.585 25.856L99.5534 20.064H96.4014L100.097 29.184L98.4014 33.344H101.201L106.593 20.064H103.633ZM116.683 29.664C118.955 29.664 120.795 28.432 121.275 26.64H118.411C118.171 27.088 117.499 27.376 116.683 27.376C115.611 27.376 114.859 26.752 114.635 25.664H121.499C121.547 25.328 121.563 25.024 121.563 24.752C121.563 21.888 119.547 19.84 116.683 19.84C113.819 19.84 111.803 21.904 111.803 24.752C111.803 27.616 113.819 29.664 116.683 29.664ZM114.619 23.824C114.859 22.704 115.563 22.096 116.683 22.096C117.803 22.096 118.539 22.704 118.779 23.824H114.619ZM129.151 20.064L127.055 26.176L124.959 20.064H121.871L125.471 29.44H128.431L132.031 20.064H129.151ZM137.214 29.664C139.486 29.664 141.326 28.432 141.806 26.64H138.942C138.702 27.088 138.03 27.376 137.214 27.376C136.142 27.376 135.39 26.752 135.166 25.664H142.03C142.078 25.328 142.094 25.024 142.094 24.752C142.094 21.888 140.078 19.84 137.214 19.84C134.35 19.84 132.334 21.904 132.334 24.752C132.334 27.616 134.35 29.664 137.214 29.664ZM135.15 23.824C135.39 22.704 136.094 22.096 137.214 22.096C138.334 22.096 139.07 22.704 139.31 23.824H135.15ZM143.767 29.44H146.615V24.624C146.615 23.168 147.287 22.288 148.407 22.288C149.479 22.288 150.055 23.072 150.055 24.496V29.44H152.903V24.016C152.903 21.424 151.415 19.84 149.239 19.84C148.039 19.84 147.175 20.272 146.615 21.024V20.064H143.767V29.44ZM160.433 20.064H158.577V17.28H155.729V20.064H153.873V22.512H155.729V29.44H158.577V22.512H160.433V20.064Z" fill="white"/>
</svg>
