<svg width="375" height="375" viewBox="0 0 375 375" fill="none" xmlns="http://www.w3.org/2000/svg">
<g clip-path="url(#clip0_2546_10864)">
<rect width="375" height="375" fill="white"/>
<rect x="375" width="375" height="375" transform="rotate(90 375 0)" fill="url(#paint0_linear_2546_10864)"/>
<path d="M31.392 178.486L36.452 181.104L38.058 178.332L33.064 175.802C33.174 175.494 33.262 175.186 33.35 174.878H37.574V171.886H33.438V170.17H29.654V171.886H25.518V174.878H29.522C28.972 176.528 27.476 177.958 25.298 178.134V181.258C27.806 181.192 29.94 180.048 31.392 178.486ZM44.922 173.91H42.722V170.5H39.004V181.346H42.722V177.518H44.922V173.91ZM26.134 189.288H42.722V182.006H26.134V189.288ZM29.83 184.91H39.026V186.384H29.83V184.91ZM60.8481 170.5V174.482H58.7141L58.9561 177.958H60.8481V181.28H58.9561L58.7141 184.756H60.8481V189.288H64.5001V170.5H60.8481ZM52.4881 170.72C49.0121 170.72 46.7021 173.492 46.7021 179.674C46.7021 185.856 49.0121 188.628 52.4881 188.628C55.9641 188.628 58.2521 185.856 58.2521 179.674C58.2521 173.492 55.9641 170.72 52.4881 170.72ZM52.4881 185.218C51.2561 185.218 50.3541 183.898 50.3541 179.674C50.3541 175.472 51.2561 174.13 52.4881 174.13C53.6981 174.13 54.6001 175.472 54.6001 179.674C54.6001 183.898 53.6981 185.218 52.4881 185.218ZM85.5742 170.5H81.8562V189.288H85.5742V170.5ZM78.9522 170.94H68.1282V174.328H75.1462V176.022C75.1462 181.456 72.6822 184.844 68.1282 184.888V188.408C74.7062 188.408 78.9522 183.656 78.9522 176.022V170.94ZM106.208 174.24V170.5H102.49V184.404H106.208V177.848H108.408V174.24H106.208ZM100.092 173.734V170.72H88.8943V173.932H96.3083V174.35C96.3083 176.88 93.2723 178.464 88.8943 178.508V181.786C95.3403 181.786 100.092 179.19 100.092 173.734ZM93.4043 182.776H89.6203V189.288H106.472V185.944H93.4043V182.776Z" fill="#2B1E34"/>
<path d="M25.755 230.079H27.198L31.566 220.576V219.666H24.429V220.862H29.993L25.755 230.079ZM41.878 225.204H43.165V219.25H41.878V220.706H40.344V221.863H41.878V225.204ZM36.522 223.15C38.472 223.15 39.759 222.422 39.759 221.213C39.759 220.017 38.472 219.276 36.522 219.276C34.572 219.276 33.285 220.017 33.285 221.213C33.285 222.422 34.572 223.15 36.522 223.15ZM36.522 220.225C37.731 220.225 38.511 220.589 38.511 221.213C38.511 221.824 37.731 222.201 36.522 222.201C35.326 222.201 34.533 221.824 34.533 221.213C34.533 220.589 35.326 220.225 36.522 220.225ZM35.027 229.26V228.467H43.165V225.815H37.094V224.853H37.263C38.849 224.853 40.24 224.723 40.942 224.411V223.423C40.175 223.735 38.823 223.865 37.302 223.865H32.713V224.853H35.82V225.815H33.727V226.764H41.904V227.557H33.753V230.209H43.438V229.26H35.027ZM52.3975 230.313C54.5815 230.313 56.0635 228.987 56.0635 227.245C56.0635 225.802 54.9845 224.983 53.9315 224.788C54.8935 224.554 55.7905 223.67 55.7905 222.396C55.7905 220.758 54.3995 219.419 52.2545 219.419C50.1225 219.419 48.7185 220.849 48.7185 222.682H50.0835C50.0835 221.577 50.8505 220.589 52.2545 220.589C53.6325 220.589 54.4385 221.421 54.4385 222.435C54.4385 223.514 53.5415 224.268 52.2155 224.268H51.0715V225.399H52.2155C53.7885 225.399 54.7245 226.088 54.7245 227.258C54.7245 228.298 53.8535 229.13 52.3975 229.13C50.9285 229.13 50.0965 228.259 50.0575 227.141H48.7055C48.7835 228.961 50.1615 230.313 52.3975 230.313ZM61.2141 230.313C63.3981 230.313 65.0491 228.506 65.0491 224.866C65.0491 221.226 63.3981 219.419 61.2141 219.419C59.0171 219.419 57.3661 221.226 57.3661 224.866C57.3661 228.506 59.0171 230.313 61.2141 230.313ZM61.2141 229.104C59.7971 229.104 58.6791 227.7 58.6791 224.866C58.6791 222.045 59.7971 220.628 61.2141 220.628C62.6181 220.628 63.7361 222.045 63.7361 224.866C63.7361 227.7 62.6181 229.104 61.2141 229.104ZM75.5058 224.684H76.7928V219.25H75.5058V224.684ZM70.0848 224.541C72.1388 224.541 73.5168 223.462 73.5168 221.954C73.5168 220.446 72.1388 219.367 70.0848 219.367C68.0308 219.367 66.6398 220.446 66.6398 221.954C66.6398 223.462 68.0308 224.541 70.0848 224.541ZM70.0848 223.501C68.8108 223.501 67.9138 222.89 67.9138 221.954C67.9138 221.018 68.8108 220.407 70.0848 220.407C71.3588 220.407 72.2428 221.018 72.2428 221.954C72.2428 222.89 71.3588 223.501 70.0848 223.501ZM67.5238 230.209H77.0658V229.195H68.7978V228.233H76.7928V225.295H67.4978V226.309H75.5188V227.271H67.5238V230.209ZM84.7902 230.586H86.2332C84.7382 229.065 83.6982 227.089 83.6982 224.788C83.6982 222.487 84.7382 220.511 86.2332 218.99H84.7902C83.3472 220.55 82.3722 222.422 82.3722 224.788C82.3722 227.154 83.3472 229.026 84.7902 230.586ZM93.4014 228.649V226.595H97.7694V225.451H89.2674V223.67H97.4574V222.539H89.2674V220.797H97.6004V219.653H87.9804V226.595H92.1014V228.649H87.2394V229.819H98.3284V228.649H93.4014ZM99.3283 230.586H100.758C102.214 229.026 103.176 227.154 103.176 224.788C103.176 222.422 102.214 220.55 100.758 218.99H99.3283C100.823 220.511 101.85 222.487 101.85 224.788C101.85 227.089 100.823 229.065 99.3283 230.586ZM114.235 228.61V226.244C116.887 226.062 118.59 224.749 118.59 222.864C118.59 220.81 116.601 219.445 113.585 219.445C110.569 219.445 108.58 220.81 108.58 222.864C108.58 224.749 110.283 226.062 112.922 226.244V228.61H108.047V229.819H119.136V228.61H114.235ZM109.945 222.864C109.945 221.512 111.401 220.615 113.585 220.615C115.782 220.615 117.238 221.512 117.238 222.864C117.238 224.203 115.782 225.1 113.585 225.1C111.401 225.1 109.945 224.203 109.945 222.864ZM131.212 220.355H126.74V218.977H125.414V220.355H120.968V221.473H131.212V220.355ZM121.488 224.281C121.488 225.711 123.464 226.361 126.09 226.361C128.716 226.361 130.692 225.711 130.692 224.281C130.692 222.838 128.716 222.188 126.09 222.188C123.464 222.188 121.488 222.838 121.488 224.281ZM129.379 224.281C129.379 224.97 127.975 225.295 126.09 225.295C124.218 225.295 122.801 224.97 122.801 224.281C122.801 223.579 124.218 223.254 126.09 223.254C127.975 223.254 129.379 223.579 129.379 224.281ZM131.641 227.128H120.552V228.272H125.427V230.612H126.74V228.272H131.641V227.128ZM138.728 230.079H140.093V219.666H136.57V220.862H138.728V230.079ZM147.453 230.079H148.753V227.726H150.456V226.569H148.753V219.666H147.141L142.201 226.569V227.726H147.453V230.079ZM143.605 226.569L147.453 221.161V226.569H143.605ZM152.389 221.382C151.869 221.382 151.479 221.785 151.479 222.292C151.479 222.799 151.869 223.202 152.389 223.202C152.896 223.202 153.286 222.799 153.286 222.292C153.286 221.785 152.896 221.382 152.389 221.382ZM152.389 226.556C151.869 226.556 151.479 226.946 151.479 227.466C151.479 227.973 151.869 228.363 152.389 228.363C152.896 228.363 153.286 227.973 153.286 227.466C153.286 226.946 152.896 226.556 152.389 226.556ZM158.562 230.313C160.746 230.313 162.397 228.506 162.397 224.866C162.397 221.226 160.746 219.419 158.562 219.419C156.365 219.419 154.714 221.226 154.714 224.866C154.714 228.506 156.365 230.313 158.562 230.313ZM158.562 229.104C157.145 229.104 156.027 227.7 156.027 224.866C156.027 222.045 157.145 220.628 158.562 220.628C159.966 220.628 161.084 222.045 161.084 224.866C161.084 227.7 159.966 229.104 158.562 229.104ZM167.575 230.313C169.759 230.313 171.41 228.506 171.41 224.866C171.41 221.226 169.759 219.419 167.575 219.419C165.378 219.419 163.727 221.226 163.727 224.866C163.727 228.506 165.378 230.313 167.575 230.313ZM167.575 229.104C166.158 229.104 165.04 227.7 165.04 224.866C165.04 222.045 166.158 220.628 167.575 220.628C168.979 220.628 170.097 222.045 170.097 224.866C170.097 227.7 168.979 229.104 167.575 229.104ZM176.515 224.359V225.659C176.918 225.23 177.334 224.983 177.945 224.983C178.92 224.983 179.726 225.919 180.844 225.919C181.533 225.919 182.04 225.646 182.417 225.191V223.878C182.001 224.385 181.598 224.723 180.974 224.723C180.012 224.723 179.206 223.787 178.088 223.787C177.425 223.787 176.892 223.995 176.515 224.359ZM188.61 230.079H190.053L194.421 220.576V219.666H187.284V220.862H192.848L188.61 230.079ZM204.734 225.204H206.021V219.25H204.734V220.706H203.2V221.863H204.734V225.204ZM199.378 223.15C201.328 223.15 202.615 222.422 202.615 221.213C202.615 220.017 201.328 219.276 199.378 219.276C197.428 219.276 196.141 220.017 196.141 221.213C196.141 222.422 197.428 223.15 199.378 223.15ZM199.378 220.225C200.587 220.225 201.367 220.589 201.367 221.213C201.367 221.824 200.587 222.201 199.378 222.201C198.182 222.201 197.389 221.824 197.389 221.213C197.389 220.589 198.182 220.225 199.378 220.225ZM197.883 229.26V228.467H206.021V225.815H199.95V224.853H200.119C201.705 224.853 203.096 224.723 203.798 224.411V223.423C203.031 223.735 201.679 223.865 200.158 223.865H195.569V224.853H198.676V225.815H196.583V226.764H204.76V227.557H196.609V230.209H206.294V229.26H197.883ZM215.253 230.313C217.437 230.313 218.919 228.987 218.919 227.245C218.919 225.802 217.84 224.983 216.787 224.788C217.749 224.554 218.646 223.67 218.646 222.396C218.646 220.758 217.255 219.419 215.11 219.419C212.978 219.419 211.574 220.849 211.574 222.682H212.939C212.939 221.577 213.706 220.589 215.11 220.589C216.488 220.589 217.294 221.421 217.294 222.435C217.294 223.514 216.397 224.268 215.071 224.268H213.927V225.399H215.071C216.644 225.399 217.58 226.088 217.58 227.258C217.58 228.298 216.709 229.13 215.253 229.13C213.784 229.13 212.952 228.259 212.913 227.141H211.561C211.639 228.961 213.017 230.313 215.253 230.313ZM222.302 230.079H223.667V219.666H220.144V220.862H222.302V230.079ZM235.226 224.684H236.513V219.25H235.226V224.684ZM229.805 224.541C231.859 224.541 233.237 223.462 233.237 221.954C233.237 220.446 231.859 219.367 229.805 219.367C227.751 219.367 226.36 220.446 226.36 221.954C226.36 223.462 227.751 224.541 229.805 224.541ZM229.805 223.501C228.531 223.501 227.634 222.89 227.634 221.954C227.634 221.018 228.531 220.407 229.805 220.407C231.079 220.407 231.963 221.018 231.963 221.954C231.963 222.89 231.079 223.501 229.805 223.501ZM227.244 230.209H236.786V229.195H228.518V228.233H236.513V225.295H227.218V226.309H235.239V227.271H227.244V230.209ZM244.51 230.586H245.953C244.458 229.065 243.418 227.089 243.418 224.788C243.418 222.487 244.458 220.511 245.953 218.99H244.51C243.067 220.55 242.092 222.422 242.092 224.788C242.092 227.154 243.067 229.026 244.51 230.586ZM256.033 224.684H257.32V219.25H256.033V224.684ZM250.612 224.541C252.666 224.541 254.044 223.462 254.044 221.954C254.044 220.446 252.666 219.367 250.612 219.367C248.558 219.367 247.167 220.446 247.167 221.954C247.167 223.462 248.558 224.541 250.612 224.541ZM250.612 223.501C249.338 223.501 248.441 222.89 248.441 221.954C248.441 221.018 249.338 220.407 250.612 220.407C251.886 220.407 252.77 221.018 252.77 221.954C252.77 222.89 251.886 223.501 250.612 223.501ZM248.051 230.209H257.593V229.195H249.325V228.233H257.32V225.295H248.025V226.309H256.046V227.271H248.051V230.209ZM259.048 230.586H260.478C261.934 229.026 262.896 227.154 262.896 224.788C262.896 222.422 261.934 220.55 260.478 218.99H259.048C260.543 220.511 261.57 222.487 261.57 224.788C261.57 227.089 260.543 229.065 259.048 230.586ZM273.955 228.61V226.244C276.607 226.062 278.31 224.749 278.31 222.864C278.31 220.81 276.321 219.445 273.305 219.445C270.289 219.445 268.3 220.81 268.3 222.864C268.3 224.749 270.003 226.062 272.642 226.244V228.61H267.767V229.819H278.856V228.61H273.955ZM269.665 222.864C269.665 221.512 271.121 220.615 273.305 220.615C275.502 220.615 276.958 221.512 276.958 222.864C276.958 224.203 275.502 225.1 273.305 225.1C271.121 225.1 269.665 224.203 269.665 222.864ZM290.932 220.355H286.46V218.977H285.134V220.355H280.688V221.473H290.932V220.355ZM281.208 224.281C281.208 225.711 283.184 226.361 285.81 226.361C288.436 226.361 290.412 225.711 290.412 224.281C290.412 222.838 288.436 222.188 285.81 222.188C283.184 222.188 281.208 222.838 281.208 224.281ZM289.099 224.281C289.099 224.97 287.695 225.295 285.81 225.295C283.938 225.295 282.521 224.97 282.521 224.281C282.521 223.579 283.938 223.254 285.81 223.254C287.695 223.254 289.099 223.579 289.099 224.281ZM291.361 227.128H280.272V228.272H285.147V230.612H286.46V228.272H291.361V227.128ZM298.448 230.079H299.813V219.666H296.29V220.862H298.448V230.079ZM307.173 230.079H308.473V227.726H310.176V226.569H308.473V219.666H306.861L301.921 226.569V227.726H307.173V230.079ZM303.325 226.569L307.173 221.161V226.569H303.325ZM312.109 221.382C311.589 221.382 311.199 221.785 311.199 222.292C311.199 222.799 311.589 223.202 312.109 223.202C312.616 223.202 313.006 222.799 313.006 222.292C313.006 221.785 312.616 221.382 312.109 221.382ZM312.109 226.556C311.589 226.556 311.199 226.946 311.199 227.466C311.199 227.973 311.589 228.363 312.109 228.363C312.616 228.363 313.006 227.973 313.006 227.466C313.006 226.946 312.616 226.556 312.109 226.556ZM318.282 230.313C320.466 230.313 322.117 228.506 322.117 224.866C322.117 221.226 320.466 219.419 318.282 219.419C316.085 219.419 314.434 221.226 314.434 224.866C314.434 228.506 316.085 230.313 318.282 230.313ZM318.282 229.104C316.865 229.104 315.747 227.7 315.747 224.866C315.747 222.045 316.865 220.628 318.282 220.628C319.686 220.628 320.804 222.045 320.804 224.866C320.804 227.7 319.686 229.104 318.282 229.104ZM327.295 230.313C329.479 230.313 331.13 228.506 331.13 224.866C331.13 221.226 329.479 219.419 327.295 219.419C325.098 219.419 323.447 221.226 323.447 224.866C323.447 228.506 325.098 230.313 327.295 230.313ZM327.295 229.104C325.878 229.104 324.76 227.7 324.76 224.866C324.76 222.045 325.878 220.628 327.295 220.628C328.699 220.628 329.817 222.045 329.817 224.866C329.817 227.7 328.699 229.104 327.295 229.104Z" fill="#2B1E34"/>
<path d="M72.277 272.313C74.448 272.313 75.956 271.091 75.956 269.349C75.956 267.776 74.721 266.905 73.772 266.684C74.578 266.437 75.592 265.592 75.592 264.266C75.592 262.719 74.253 261.419 72.277 261.419C70.288 261.419 68.949 262.706 68.949 264.266C68.949 265.592 69.963 266.437 70.769 266.684C69.833 266.905 68.585 267.776 68.585 269.349C68.585 271.091 70.093 272.313 72.277 272.313ZM72.277 266.073C71.094 266.073 70.262 265.28 70.262 264.279C70.262 263.317 71.055 262.563 72.277 262.563C73.499 262.563 74.292 263.343 74.292 264.305C74.292 265.293 73.46 266.073 72.277 266.073ZM72.277 271.169C70.834 271.169 69.911 270.35 69.911 269.271C69.911 268.179 70.912 267.334 72.277 267.334C73.629 267.334 74.63 268.179 74.63 269.271C74.63 270.35 73.707 271.169 72.277 271.169ZM86.4239 267.204H87.7109V261.25H86.4239V262.706H84.8899V263.863H86.4239V267.204ZM81.0679 265.15C83.0179 265.15 84.3049 264.422 84.3049 263.213C84.3049 262.017 83.0179 261.276 81.0679 261.276C79.1179 261.276 77.8309 262.017 77.8309 263.213C77.8309 264.422 79.1179 265.15 81.0679 265.15ZM81.0679 262.225C82.2769 262.225 83.0569 262.589 83.0569 263.213C83.0569 263.824 82.2769 264.201 81.0679 264.201C79.8719 264.201 79.0789 263.824 79.0789 263.213C79.0789 262.589 79.8719 262.225 81.0679 262.225ZM79.5729 271.26V270.467H87.7109V267.815H81.6399V266.853H81.8089C83.3949 266.853 84.7859 266.723 85.4879 266.411V265.423C84.7209 265.735 83.3689 265.865 81.8479 265.865H77.2589V266.853H80.3659V267.815H78.2729V268.764H86.4499V269.557H78.2989V272.209H87.9839V271.26H79.5729ZM95.4354 272.079H96.8004V261.666H93.2774V262.862H95.4354V272.079ZM108.359 266.684H109.646V261.25H108.359V266.684ZM102.938 266.541C104.992 266.541 106.37 265.462 106.37 263.954C106.37 262.446 104.992 261.367 102.938 261.367C100.884 261.367 99.4933 262.446 99.4933 263.954C99.4933 265.462 100.884 266.541 102.938 266.541ZM102.938 265.501C101.664 265.501 100.767 264.89 100.767 263.954C100.767 263.018 101.664 262.407 102.938 262.407C104.212 262.407 105.096 263.018 105.096 263.954C105.096 264.89 104.212 265.501 102.938 265.501ZM100.377 272.209H109.919V271.195H101.651V270.233H109.646V267.295H100.351V268.309H108.372V269.271H100.377V272.209ZM117.644 272.586H119.087C117.592 271.065 116.552 269.089 116.552 266.788C116.552 264.487 117.592 262.511 119.087 260.99H117.644C116.201 262.55 115.226 264.422 115.226 266.788C115.226 269.154 116.201 271.026 117.644 272.586ZM129.258 267.204H130.545V261.25H129.258V262.706H127.724V263.863H129.258V267.204ZM123.902 265.15C125.852 265.15 127.139 264.422 127.139 263.213C127.139 262.017 125.852 261.276 123.902 261.276C121.952 261.276 120.665 262.017 120.665 263.213C120.665 264.422 121.952 265.15 123.902 265.15ZM123.902 262.225C125.111 262.225 125.891 262.589 125.891 263.213C125.891 263.824 125.111 264.201 123.902 264.201C122.706 264.201 121.913 263.824 121.913 263.213C121.913 262.589 122.706 262.225 123.902 262.225ZM122.407 271.26V270.467H130.545V267.815H124.474V266.853H124.643C126.229 266.853 127.62 266.723 128.322 266.411V265.423C127.555 265.735 126.203 265.865 124.682 265.865H120.093V266.853H123.2V267.815H121.107V268.764H129.284V269.557H121.133V272.209H130.818V271.26H122.407ZM132.182 272.586H133.612C135.068 271.026 136.03 269.154 136.03 266.788C136.03 264.422 135.068 262.55 133.612 260.99H132.182C133.677 262.511 134.704 264.487 134.704 266.788C134.704 269.089 133.677 271.065 132.182 272.586ZM147.089 270.61V268.244C149.741 268.062 151.444 266.749 151.444 264.864C151.444 262.81 149.455 261.445 146.439 261.445C143.423 261.445 141.434 262.81 141.434 264.864C141.434 266.749 143.137 268.062 145.776 268.244V270.61H140.901V271.819H151.99V270.61H147.089ZM142.799 264.864C142.799 263.512 144.255 262.615 146.439 262.615C148.636 262.615 150.092 263.512 150.092 264.864C150.092 266.203 148.636 267.1 146.439 267.1C144.255 267.1 142.799 266.203 142.799 264.864ZM164.065 262.355H159.593V260.977H158.267V262.355H153.821V263.473H164.065V262.355ZM154.341 266.281C154.341 267.711 156.317 268.361 158.943 268.361C161.569 268.361 163.545 267.711 163.545 266.281C163.545 264.838 161.569 264.188 158.943 264.188C156.317 264.188 154.341 264.838 154.341 266.281ZM162.232 266.281C162.232 266.97 160.828 267.295 158.943 267.295C157.071 267.295 155.654 266.97 155.654 266.281C155.654 265.579 157.071 265.254 158.943 265.254C160.828 265.254 162.232 265.579 162.232 266.281ZM164.494 269.128H153.405V270.272H158.28V272.612H159.593V270.272H164.494V269.128ZM171.582 272.079H172.947V261.666H169.424V262.862H171.582V272.079ZM178.994 272.313C181.165 272.313 182.673 271.091 182.673 269.349C182.673 267.776 181.438 266.905 180.489 266.684C181.295 266.437 182.309 265.592 182.309 264.266C182.309 262.719 180.97 261.419 178.994 261.419C177.005 261.419 175.666 262.706 175.666 264.266C175.666 265.592 176.68 266.437 177.486 266.684C176.55 266.905 175.302 267.776 175.302 269.349C175.302 271.091 176.81 272.313 178.994 272.313ZM178.994 266.073C177.811 266.073 176.979 265.28 176.979 264.279C176.979 263.317 177.772 262.563 178.994 262.563C180.216 262.563 181.009 263.343 181.009 264.305C181.009 265.293 180.177 266.073 178.994 266.073ZM178.994 271.169C177.551 271.169 176.628 270.35 176.628 269.271C176.628 268.179 177.629 267.334 178.994 267.334C180.346 267.334 181.347 268.179 181.347 269.271C181.347 270.35 180.424 271.169 178.994 271.169ZM184.938 263.382C184.418 263.382 184.028 263.785 184.028 264.292C184.028 264.799 184.418 265.202 184.938 265.202C185.445 265.202 185.835 264.799 185.835 264.292C185.835 263.785 185.445 263.382 184.938 263.382ZM184.938 268.556C184.418 268.556 184.028 268.946 184.028 269.466C184.028 269.973 184.418 270.363 184.938 270.363C185.445 270.363 185.835 269.973 185.835 269.466C185.835 268.946 185.445 268.556 184.938 268.556ZM191.111 272.313C193.295 272.313 194.946 270.506 194.946 266.866C194.946 263.226 193.295 261.419 191.111 261.419C188.914 261.419 187.263 263.226 187.263 266.866C187.263 270.506 188.914 272.313 191.111 272.313ZM191.111 271.104C189.694 271.104 188.576 269.7 188.576 266.866C188.576 264.045 189.694 262.628 191.111 262.628C192.515 262.628 193.633 264.045 193.633 266.866C193.633 269.7 192.515 271.104 191.111 271.104ZM200.124 272.313C202.308 272.313 203.959 270.506 203.959 266.866C203.959 263.226 202.308 261.419 200.124 261.419C197.927 261.419 196.276 263.226 196.276 266.866C196.276 270.506 197.927 272.313 200.124 272.313ZM200.124 271.104C198.707 271.104 197.589 269.7 197.589 266.866C197.589 264.045 198.707 262.628 200.124 262.628C201.528 262.628 202.646 264.045 202.646 266.866C202.646 269.7 201.528 271.104 200.124 271.104ZM77.789 289.492H79.076V281.25H77.789V289.492ZM72.342 287.815C74.513 287.815 75.852 286.45 75.852 284.591C75.852 282.732 74.513 281.367 72.342 281.367C70.171 281.367 68.819 282.732 68.819 284.591C68.819 286.45 70.171 287.815 72.342 287.815ZM72.342 286.723C71.016 286.723 70.106 285.904 70.106 284.591C70.106 283.278 71.016 282.446 72.342 282.446C73.655 282.446 74.565 283.278 74.565 284.591C74.565 285.904 73.655 286.723 72.342 286.723ZM69.794 292.209H79.375V291.039H71.107V288.582H69.794V292.209ZM86.6149 284.981L91.3599 288.27L92.0619 287.243L87.1739 283.954C87.5379 283.213 87.7979 282.394 87.9539 281.536L86.6279 281.302C86.0559 284.409 83.8459 287.009 81.4409 287.009V288.231C83.4819 288.231 85.3669 286.944 86.6149 284.981ZM81.2199 290.61V291.819H92.3089V290.61H81.2199ZM105.334 285.748H103.774V281.25H102.487V292.352H103.774V286.983H105.334V285.748ZM95.5318 290.506V287.178H100.459V285.995H95.5318V282.836H100.654V281.653H94.2448V291.689H98.6128C99.6788 291.689 100.849 291.494 101.525 291.156V289.986C100.849 290.298 99.7048 290.506 98.6518 290.506H95.5318ZM118.934 281.25V292.352H120.221V281.25H118.934ZM116.217 282.823H117.478V281.653H110.172V282.823H111.42V290.519H110.107V291.689H114.384C115.97 291.689 117.322 291.429 118.05 291.052V289.869C117.556 290.116 116.945 290.298 116.217 290.402V282.823ZM112.694 290.519V282.823H114.956V290.506C114.774 290.519 114.592 290.519 114.397 290.519H112.694ZM123.106 288.205H132.869V287.009H124.419V282.849H132.739V281.653H123.106V288.205ZM122.378 291.819H133.467V290.61H122.378V291.819ZM147.51 285.15H148.797V281.38H139.268V282.472H147.51V285.15ZM143.987 285.93V283.759H142.687V285.93H138.527V286.996H149.616V285.93H143.987ZM144.065 288.036C141.413 288.036 139.19 288.595 139.19 290.194C139.19 291.754 141.413 292.365 144.065 292.365C146.717 292.365 148.94 291.754 148.94 290.194C148.94 288.647 146.717 288.036 144.065 288.036ZM144.065 291.338C142.271 291.338 140.542 290.987 140.542 290.194C140.542 289.375 142.271 289.063 144.065 289.063C145.859 289.063 147.588 289.414 147.588 290.194C147.588 290.987 145.859 291.338 144.065 291.338ZM160.105 281.25V292.352H161.392V281.25H160.105ZM155.776 282.836H158.623V281.653H151.538V282.836H154.476C154.424 286.957 153.254 290.051 151.278 290.415V291.689C152.955 291.494 154.281 290.116 155.048 287.789L158.038 291.598L159.052 290.831L155.425 286.346C155.633 285.306 155.763 284.123 155.776 282.836ZM173.368 286.307H170.95V283.824H169.676V286.307H167.258V287.451H169.676V289.934H170.95V287.451H173.368V286.307ZM188.566 283.525V281.25H187.279V287.386H188.566V284.76H190.126V283.525H188.566ZM186.473 286.255V285.163C185.758 285.475 184.484 285.657 182.976 285.657H180.194V282.615H185.68V281.523H178.907V286.749H182.898C184.471 286.749 185.797 286.554 186.473 286.255ZM183.977 287.75C181.325 287.75 179.219 288.387 179.219 290.051C179.219 291.715 181.325 292.352 183.977 292.352C186.642 292.352 188.735 291.715 188.735 290.051C188.735 288.387 186.642 287.75 183.977 287.75ZM183.977 291.286C182.092 291.286 180.597 290.909 180.597 290.051C180.597 289.206 182.092 288.816 183.977 288.816C185.875 288.816 187.357 289.206 187.357 290.051C187.357 290.909 185.875 291.286 183.977 291.286ZM194.805 285.462L198.081 287.529L198.692 286.567L195.325 284.474C195.455 284.11 195.546 283.746 195.598 283.369H198.497V282.29H195.598V281.055H194.298V282.29H191.36V283.369H194.285C194.051 284.955 192.946 286.229 191.243 286.476V287.594C192.79 287.425 194.051 286.606 194.805 285.462ZM200.187 281.25V283.941H198.055V285.085H200.187V287.75H201.474V281.25H200.187ZM192.023 292.209H201.474V288.361H192.023V292.209ZM193.31 289.414H200.187V291.156H193.31V289.414ZM215.136 285.748H213.576V281.25H212.289V292.352H213.576V286.983H215.136V285.748ZM208.103 282.836H210.898V281.653H203.917V282.836H206.803C206.764 286.957 205.62 290.051 203.657 290.415V291.689C205.334 291.494 206.634 290.116 207.388 287.815L210.313 291.598L211.327 290.831L207.765 286.359C207.973 285.319 208.09 284.136 208.103 282.836ZM229.113 281.25V285.722H227.215V281.315H225.98V292.157H227.215V286.931H229.113V292.352H230.348V281.25H229.113ZM219.922 282.823H223.315V284.708C223.315 288.14 221.989 290.389 219.922 290.454V291.663C222.639 291.637 224.563 288.933 224.563 284.643V281.653H219.922V282.823ZM241.345 286.814H242.632V281.25H241.345V282.251H239.538V283.317H241.345V284.487H239.538V285.553H241.345V286.814ZM238.966 281.445H237.718V282.823H233.896V281.445H232.635V286.411H238.966V281.445ZM233.896 285.371V283.85H237.718V285.371H233.896ZM234.455 291.208V290.285H242.632V287.425H233.155V288.426H241.358V289.336H233.181V292.209H242.905V291.208H234.455ZM248.731 281.666V292.079H252.423C256.011 292.079 258.091 289.986 258.091 286.879C258.091 283.772 256.011 281.666 252.423 281.666H248.731ZM252.462 290.844H250.096V282.888H252.462C255.101 282.888 256.713 284.344 256.713 286.879C256.713 289.414 255.101 290.844 252.462 290.844ZM259.89 281.666V292.079H261.255V284.396L264.609 290.324H265.597L268.951 284.396V292.079H270.316V281.666H269.12L265.103 288.738L261.086 281.666H259.89Z" fill="#2B1E34"/>
<ellipse cx="33" cy="267" rx="9" ry="12" fill="#9E30F4"/>
<ellipse cx="42" cy="267" rx="9" ry="12" fill="#9E30F4"/>
<ellipse cx="51" cy="267" rx="9" ry="12" fill="#9E30F4"/>
<path d="M40.669 263.44V262H38.641V267.136H40.669V265.288H41.869V263.44H40.669ZM37.525 262.12H35.557V262.96H33.241V262.12H31.273V266.92H37.525V262.12ZM33.241 265.348V264.496H35.557V265.348H33.241ZM33.625 270.496H40.669V267.496H31.609V268.852H38.677V269.248H31.633V272.248H40.777V270.892H33.625V270.496ZM50.748 270.04V268.348H52.488V266.512H50.928V264.088H52.38V262.24H43.164V264.088H44.616V266.512H43.056V268.348H44.796V270.04H42.588V271.888H52.956V270.04H50.748ZM46.644 264.088H48.9V266.512H46.644V264.088ZM46.824 268.348H48.72V270.04H46.824V268.348Z" fill="white"/>
<path d="M42.722 64.624V61.5H39.004V71.84H42.722V68.232H44.922V64.624H42.722ZM38.124 70.432V67.44C37.134 67.836 35.484 68.056 33.79 68.056H29.214V64.778H37.046V61.72H25.496V71.092H33.636C35.396 71.092 37.156 70.85 38.124 70.432ZM34.428 72.104C29.698 72.104 25.958 73.182 25.958 76.306C25.958 79.43 29.698 80.508 34.428 80.508C39.158 80.508 42.898 79.43 42.898 76.306C42.898 73.182 39.158 72.104 34.428 72.104ZM34.428 77.538C31.942 77.538 29.962 77.208 29.962 76.306C29.962 75.426 31.942 75.074 34.428 75.074C36.914 75.074 38.894 75.426 38.894 76.306C38.894 77.208 36.914 77.538 34.428 77.538ZM60.7821 61.5V65.064H58.8461V62.908H54.7101V61.17H50.9261V62.908H46.7901V65.9H50.8381C50.3101 67.638 48.7921 69.178 46.5701 69.354V72.478C49.1001 72.412 51.2341 71.246 52.7081 69.618L57.7241 72.39L59.3961 69.662L54.3361 66.934C54.4681 66.604 54.5561 66.252 54.6441 65.9H58.3181V68.364H60.7821V72.456H64.5001V61.5H60.7821ZM47.6921 80.288H64.5001V73.116H47.6921V80.288ZM51.3881 76.02H60.8041V77.384H51.3881V76.02ZM85.5742 61.5H81.8562V75.404H85.5742V61.5ZM73.5182 61.522C69.8442 61.522 67.3362 63.766 67.3362 67.154C67.3362 70.564 69.8442 72.786 73.5182 72.786C77.1922 72.786 79.7002 70.564 79.7002 67.154C79.7002 63.766 77.1922 61.522 73.5182 61.522ZM73.5182 64.624C74.9482 64.624 76.0042 65.526 76.0042 67.154C76.0042 68.782 74.9482 69.684 73.5182 69.684C72.0882 69.684 71.0322 68.782 71.0322 67.154C71.0322 65.526 72.0882 64.624 73.5182 64.624ZM72.7702 73.71H68.9862V80.288H85.8382V76.944H72.7702V73.71ZM95.2523 68.958C98.6403 68.958 101.016 67.682 101.016 65.13C101.016 62.578 98.6403 61.302 95.2523 61.302C91.8643 61.302 89.4883 62.578 89.4883 65.13C89.4883 67.682 91.8643 68.958 95.2523 68.958ZM98.3103 72.984V75.558H103.15V76.086H106.868V61.5H103.15V72.984H98.3103ZM95.2523 64.03C96.5723 64.03 97.4303 64.382 97.4303 65.13C97.4303 65.878 96.5723 66.23 95.2523 66.23C93.9323 66.23 93.0743 65.878 93.0743 65.13C93.0743 64.382 93.9323 64.03 95.2523 64.03ZM93.7783 77.186V75.294H96.7483V72.456H97.1443C99.0143 72.456 100.906 72.28 102.072 71.774V68.914C100.906 69.42 98.9483 69.596 97.2103 69.596H88.5643V72.456H93.0523V74.326H90.0603V80.288H107.132V77.186H93.7783Z" fill="#2B1E34"/>
<path d="M35.063 110.839L35.401 109.877L30.76 108.499C30.877 108.317 30.968 108.109 31.033 107.901H35.141V106.9H30.916V105.808H29.603V106.9H25.365V107.901H29.668C29.07 109.123 26.938 109.76 25.157 109.812V110.826C26.925 110.787 28.849 110.267 30.019 109.305L35.063 110.839ZM30.903 111.71V110.41H29.603V111.71H24.715V112.737H35.804V111.71H30.903ZM30.253 113.634C27.601 113.634 25.352 114.076 25.352 115.506C25.352 116.923 27.601 117.378 30.253 117.378C32.905 117.378 35.154 116.936 35.154 115.506C35.154 114.076 32.905 113.634 30.253 113.634ZM30.253 116.377C28.446 116.377 26.704 116.182 26.704 115.506C26.704 114.83 28.446 114.622 30.253 114.622C32.06 114.622 33.802 114.83 33.802 115.506C33.802 116.182 32.06 116.377 30.253 116.377ZM42.8914 117.079H44.2564V106.666H40.7334V107.862H42.8914V117.079ZM50.5374 117.313C52.7214 117.313 54.3724 115.506 54.3724 111.866C54.3724 108.226 52.7214 106.419 50.5374 106.419C48.3404 106.419 46.6894 108.226 46.6894 111.866C46.6894 115.506 48.3404 117.313 50.5374 117.313ZM50.5374 116.104C49.1204 116.104 48.0024 114.7 48.0024 111.866C48.0024 109.045 49.1204 107.628 50.5374 107.628C51.9414 107.628 53.0594 109.045 53.0594 111.866C53.0594 114.7 51.9414 116.104 50.5374 116.104ZM64.933 112.386H66.207V106.25H64.933V107.225H63.113V108.343H64.933V109.63H63.113V110.748H64.933V112.386ZM62.463 106.523H56.223V111.749H62.463V106.523ZM61.189 110.644H57.484V107.615H61.189V110.644ZM61.501 112.75C58.81 112.75 56.704 113.387 56.704 115.051C56.704 116.715 58.81 117.352 61.501 117.352C64.192 117.352 66.311 116.715 66.311 115.051C66.311 113.387 64.192 112.75 61.501 112.75ZM61.501 116.286C59.59 116.286 58.069 115.909 58.069 115.051C58.069 114.206 59.59 113.816 61.501 113.816C63.412 113.816 64.933 114.206 64.933 115.051C64.933 115.909 63.412 116.286 61.501 116.286Z" fill="#2B1E34"/>
</g>
<defs>
<linearGradient id="paint0_linear_2546_10864" x1="1898" y1="-335" x2="375" y2="375" gradientUnits="userSpaceOnUse">
<stop stop-color="#9E30F4"/>
<stop offset="1" stop-color="#FFEBEF"/>
</linearGradient>
<clipPath id="clip0_2546_10864">
<rect width="375" height="375" fill="white"/>
</clipPath>
</defs>
</svg>
