<svg width="375" height="375" viewBox="0 0 375 375" fill="none" xmlns="http://www.w3.org/2000/svg">
<g clip-path="url(#clip0_2546_10809)">
<rect width="375" height="375" fill="white"/>
<rect x="375" width="375" height="375" transform="rotate(90 375 0)" fill="url(#paint0_linear_2546_10809)"/>
<path d="M31.392 51.486L36.452 54.104L38.058 51.332L33.064 48.802C33.174 48.494 33.262 48.186 33.35 47.878H37.574V44.886H33.438V43.17H29.654V44.886H25.518V47.878H29.522C28.972 49.528 27.476 50.958 25.298 51.134V54.258C27.806 54.192 29.94 53.048 31.392 51.486ZM44.922 46.91H42.722V43.5H39.004V54.346H42.722V50.518H44.922V46.91ZM26.134 62.288H42.722V55.006H26.134V62.288ZM29.83 57.91H39.026V59.384H29.83V57.91ZM60.8481 43.5V47.482H58.7141L58.9561 50.958H60.8481V54.28H58.9561L58.7141 57.756H60.8481V62.288H64.5001V43.5H60.8481ZM52.4881 43.72C49.0121 43.72 46.7021 46.492 46.7021 52.674C46.7021 58.856 49.0121 61.628 52.4881 61.628C55.9641 61.628 58.2521 58.856 58.2521 52.674C58.2521 46.492 55.9641 43.72 52.4881 43.72ZM52.4881 58.218C51.2561 58.218 50.3541 56.898 50.3541 52.674C50.3541 48.472 51.2561 47.13 52.4881 47.13C53.6981 47.13 54.6001 48.472 54.6001 52.674C54.6001 56.898 53.6981 58.218 52.4881 58.218ZM85.0462 46.734V43.5H81.3282V54.104H85.0462V50.342H87.2462V46.734H85.0462ZM79.2822 43.72H75.6742V45.59H71.4282V43.72H67.8202V53.4H79.2822V43.72ZM71.4282 50.408V48.494H75.6742V50.408H71.4282ZM76.7522 54.412C72.0222 54.412 68.2822 55.446 68.2822 58.46C68.2822 61.474 72.0222 62.508 76.7522 62.508C81.4822 62.508 85.2222 61.474 85.2222 58.46C85.2222 55.446 81.4822 54.412 76.7522 54.412ZM76.7522 59.582C74.2662 59.582 72.2862 59.296 72.2862 58.46C72.2862 57.646 74.2662 57.338 76.7522 57.338C79.2382 57.338 81.2182 57.646 81.2182 58.46C81.2182 59.296 79.2382 59.582 76.7522 59.582ZM103.106 43.5V46.646H100.554V43.72H96.9463V45.568H92.7003V43.72H89.0923V53.18H100.554V50.122H103.106V53.532H106.824V43.5H103.106ZM92.7003 50.276V48.384H96.9463V50.276H92.7003ZM103.172 55.336H93.6683V54.192H90.0163V62.288H106.824V54.192H103.172V55.336ZM93.6683 59.406V58.152H103.172V59.406H93.6683Z" fill="#2B1E34"/>
<path d="M74.11 97.981L78.855 101.27L79.557 100.243L74.669 96.954C75.033 96.213 75.293 95.394 75.449 94.536L74.123 94.302C73.551 97.409 71.341 100.009 68.936 100.009V101.231C70.977 101.231 72.862 99.944 74.11 97.981ZM68.715 103.61V104.819H79.804V103.61H68.715ZM90.3849 94.25V96.291H88.4609V97.461H90.3849V100.373H91.6719V94.25H90.3849ZM81.6749 96.863V100.23H85.5099C87.0829 100.23 88.4089 100.035 89.0849 99.736V98.696C88.3699 99.008 87.0959 99.19 85.5879 99.19H82.9489V97.877H87.7329V94.523H81.6489V95.563H86.4589V96.863H81.6749ZM90.3589 102.011H83.4949V100.984H82.2209V105.209H91.6329V100.984H90.3589V102.011ZM83.4949 104.182V103.025H90.3589V104.182H83.4949ZM106.351 98.15H107.638V94.38H98.1093V95.472H106.351V98.15ZM102.828 98.93V96.759H101.528V98.93H97.3683V99.996H108.457V98.93H102.828ZM102.906 101.036C100.254 101.036 98.0313 101.595 98.0313 103.194C98.0313 104.754 100.254 105.365 102.906 105.365C105.558 105.365 107.781 104.754 107.781 103.194C107.781 101.647 105.558 101.036 102.906 101.036ZM102.906 104.338C101.112 104.338 99.3833 103.987 99.3833 103.194C99.3833 102.375 101.112 102.063 102.906 102.063C104.7 102.063 106.429 102.414 106.429 103.194C106.429 103.987 104.7 104.338 102.906 104.338ZM118.947 94.25V100.88H120.234V94.25H118.947ZM113.773 98.059L117.088 100.399L117.816 99.463L114.293 97.019C114.605 96.226 114.774 95.342 114.774 94.432L113.487 94.354C113.461 96.837 112.148 98.982 110.042 99.359V100.555C111.641 100.347 112.941 99.398 113.773 98.059ZM110.718 102.609H118.934V105.352H120.234V101.491H110.718V102.609ZM135.096 102.492H136.383V94.25H135.096V102.492ZM129.649 100.815C131.82 100.815 133.159 99.45 133.159 97.591C133.159 95.732 131.82 94.367 129.649 94.367C127.478 94.367 126.126 95.732 126.126 97.591C126.126 99.45 127.478 100.815 129.649 100.815ZM129.649 99.723C128.323 99.723 127.413 98.904 127.413 97.591C127.413 96.278 128.323 95.446 129.649 95.446C130.962 95.446 131.872 96.278 131.872 97.591C131.872 98.904 130.962 99.723 129.649 99.723ZM127.101 105.209H136.682V104.039H128.414V101.582H127.101V105.209ZM143.922 97.981L148.667 101.27L149.369 100.243L144.481 96.954C144.845 96.213 145.105 95.394 145.261 94.536L143.935 94.302C143.363 97.409 141.153 100.009 138.748 100.009V101.231C140.789 101.231 142.674 99.944 143.922 97.981ZM138.527 103.61V104.819H149.616V103.61H138.527ZM162.64 98.748H161.08V94.25H159.793V105.352H161.08V99.983H162.64V98.748ZM152.838 103.506V100.178H157.765V98.995H152.838V95.836H157.96V94.653H151.551V104.689H155.919C156.985 104.689 158.155 104.494 158.831 104.156V102.986C158.155 103.298 157.011 103.506 155.958 103.506H152.838ZM172.532 102.336H173.884V94.64H164.212V95.849H172.532V102.336ZM163.536 104.819H174.625V103.61H163.536V104.819ZM185.492 94.25V96.616H183.685V94.315H182.463V100.737H183.685V97.786H185.492V100.854H186.714V94.25H185.492ZM181.709 100.022V99.008C180.981 99.307 179.902 99.424 178.667 99.424H177.575V97.942H181.085V94.523H176.379V95.537H179.889V96.967H176.379V100.438H178.576C179.85 100.438 180.981 100.321 181.709 100.022ZM177.016 105.209H186.714V101.465H177.016V105.209ZM178.29 102.492H185.453V104.182H178.29V102.492ZM201.654 94.25V105.352H202.863V94.25H201.654ZM198.924 97.032H197.026V94.653H192.437V95.823H195.778V97.708C195.778 101.14 194.504 103.389 192.437 103.454V104.663C194.127 104.65 195.505 103.584 196.298 101.725H198.924V105.157H200.133V94.315H198.924V97.032ZM196.688 100.529C196.87 99.84 196.974 99.06 197.013 98.228H198.924V100.529H196.688ZM211.701 96.343V97.461H213.859V100.49H215.146V94.25H213.859V96.343H211.701ZM208.607 97.968L211.87 100.061L212.507 99.099L209.088 96.941C209.218 96.525 209.309 96.096 209.335 95.641H212.143V94.536H205.058V95.641H208.048C207.892 97.448 206.748 98.761 204.915 99.008V100.165C206.553 100.009 207.84 99.177 208.607 97.968ZM210.44 100.854C207.749 100.854 205.643 101.478 205.643 103.103C205.643 104.728 207.749 105.352 210.44 105.352C213.131 105.352 215.237 104.728 215.237 103.103C215.237 101.478 213.131 100.854 210.44 100.854ZM210.44 104.299C208.529 104.299 207.008 103.922 207.008 103.103C207.008 102.284 208.529 101.907 210.44 101.907C212.351 101.907 213.872 102.284 213.872 103.103C213.872 103.922 212.351 104.299 210.44 104.299ZM70.925 125.586H72.368C70.873 124.065 69.833 122.089 69.833 119.788C69.833 117.487 70.873 115.511 72.368 113.99H70.925C69.482 115.55 68.507 117.422 68.507 119.788C68.507 122.154 69.482 124.026 70.925 125.586ZM79.1852 126.535C80.6022 126.535 81.8892 126.184 82.6952 125.56V124.247C81.8502 124.78 80.7322 125.027 79.1852 125.027C76.5202 125.027 74.7002 123.064 74.7002 120.425C74.7002 117.812 76.5332 115.823 79.2242 115.823C81.9672 115.823 83.6052 117.591 83.6052 119.996C83.6052 121.322 83.2022 122.128 82.5912 122.128C82.2012 122.128 82.0322 121.803 82.0322 121.361V117.63H80.2512V118.215C79.9132 117.747 79.3932 117.474 78.6782 117.474C77.0142 117.474 75.8832 118.722 75.8832 120.49C75.8832 122.219 77.0142 123.454 78.6782 123.454C79.4322 123.454 79.9782 123.168 80.3422 122.635L80.4072 122.752C80.7322 123.324 81.3822 123.727 82.1622 123.727C84.0082 123.727 85.3602 122.076 85.3602 119.97C85.3602 116.928 83.1112 114.341 79.2242 114.341C75.4152 114.341 72.9452 117.149 72.9452 120.425C72.9452 123.831 75.4282 126.535 79.1852 126.535ZM78.9382 121.92C78.1972 121.92 77.7032 121.309 77.7032 120.49C77.7032 119.619 78.1972 119.034 78.9382 119.034C79.7182 119.034 80.2252 119.619 80.2252 120.49C80.2252 121.309 79.7182 121.92 78.9382 121.92ZM89.7025 117.37C87.7655 117.37 86.2185 118.306 86.2185 119.788C86.2185 121.335 87.4145 121.894 89.2345 122.167C90.5475 122.362 91.0675 122.596 91.0675 122.96C91.0675 123.311 90.5215 123.584 89.7805 123.584C89.0525 123.584 88.4805 123.259 88.4025 122.765H86.1665C86.2445 124.364 87.7525 125.352 89.7415 125.352C91.6785 125.352 93.3165 124.39 93.3165 122.83C93.3165 121.517 92.5105 120.776 90.2615 120.438C88.9615 120.23 88.4545 120.048 88.4545 119.671C88.4545 119.333 88.9615 119.086 89.6635 119.086C90.3395 119.086 90.8725 119.372 90.9505 119.84H93.1865C93.0955 118.332 91.6005 117.37 89.7025 117.37ZM96.9946 114.25H94.6806V125.17H96.9946V114.25ZM101.59 125.352C102.565 125.352 103.267 125.001 103.722 124.39V125.17H106.036V117.552H103.722V121.465C103.722 122.648 103.176 123.363 102.266 123.363C101.395 123.363 100.927 122.726 100.927 121.569V117.552H98.6134V121.959C98.6134 124.065 99.8224 125.352 101.59 125.352ZM112.956 117.552L111.253 122.518L109.55 117.552H107.041L109.966 125.17H112.371L115.296 117.552H112.956ZM115.885 125.508V127.354H121.514V125.508H115.885ZM126.492 117.37C124.139 117.37 122.449 119.047 122.449 121.361C122.449 123.675 124.139 125.352 126.492 125.352C128.845 125.352 130.535 123.675 130.535 121.361C130.535 119.047 128.845 117.37 126.492 117.37ZM126.492 119.346C127.584 119.346 128.299 120.191 128.299 121.361C128.299 122.531 127.584 123.376 126.492 123.376C125.4 123.376 124.685 122.531 124.685 121.361C124.685 120.191 125.4 119.346 126.492 119.346ZM136.209 117.552H134.753V116.928C134.753 116.473 135.026 116.187 135.481 116.187C135.65 116.187 135.91 116.187 136.079 116.213V114.276C135.793 114.224 135.416 114.198 135.026 114.198C133.375 114.198 132.439 115.303 132.439 116.798V117.552H131.165V119.541H132.439V125.17H134.753V119.541H136.209V117.552ZM141.821 117.552H140.365V116.928C140.365 116.473 140.638 116.187 141.093 116.187C141.262 116.187 141.522 116.187 141.691 116.213V114.276C141.405 114.224 141.028 114.198 140.638 114.198C138.987 114.198 138.051 115.303 138.051 116.798V117.552H136.777V119.541H138.051V125.17H140.365V119.541H141.821V117.552ZM144.029 113.873C143.21 113.873 142.612 114.471 142.612 115.29C142.612 116.109 143.21 116.707 144.029 116.707C144.848 116.707 145.446 116.109 145.446 115.29C145.446 114.471 144.848 113.873 144.029 113.873ZM145.186 117.552H142.872V125.196H145.186V117.552ZM154.371 122.427H152.031C151.823 122.973 151.29 123.337 150.575 123.337C149.496 123.337 148.794 122.505 148.794 121.361C148.794 120.217 149.496 119.385 150.575 119.385C151.303 119.385 151.81 119.749 151.992 120.269H154.332C154.059 118.644 152.564 117.37 150.575 117.37C148.222 117.37 146.532 119.047 146.532 121.361C146.532 123.675 148.222 125.352 150.575 125.352C152.499 125.352 153.981 124.195 154.371 122.427ZM156.775 113.873C155.956 113.873 155.358 114.471 155.358 115.29C155.358 116.109 155.956 116.707 156.775 116.707C157.594 116.707 158.192 116.109 158.192 115.29C158.192 114.471 157.594 113.873 156.775 113.873ZM157.932 117.552H155.618V125.196H157.932V117.552ZM162.983 125.352C163.984 125.352 164.712 125.001 165.167 124.39V125.17H167.481V117.552H165.167V118.332C164.712 117.721 163.984 117.37 162.983 117.37C160.799 117.37 159.278 119.047 159.278 121.361C159.278 123.675 160.799 125.352 162.983 125.352ZM163.347 123.376C162.242 123.376 161.54 122.531 161.54 121.361C161.54 120.191 162.242 119.346 163.347 119.346C164.478 119.346 165.206 120.191 165.206 121.361C165.206 122.531 164.478 123.376 163.347 123.376ZM171.541 114.25H169.227V125.17H171.541V114.25ZM172.705 125.586H174.135C175.591 124.026 176.553 122.154 176.553 119.788C176.553 117.422 175.591 115.55 174.135 113.99H172.705C174.2 115.511 175.227 117.487 175.227 119.788C175.227 122.089 174.2 124.065 172.705 125.586ZM183.318 118.254C185.996 118.254 188.193 117.708 188.193 116.226C188.193 114.757 185.996 114.211 183.318 114.211C180.64 114.211 178.443 114.757 178.443 116.226C178.443 117.708 180.64 118.254 183.318 118.254ZM183.318 117.266C181.381 117.266 179.769 116.967 179.769 116.226C179.769 115.498 181.381 115.186 183.318 115.186C185.255 115.186 186.867 115.498 186.867 116.226C186.867 116.967 185.255 117.266 183.318 117.266ZM177.78 119.944H188.869V118.943H177.78V119.944ZM178.547 125.222H188.297V124.26H179.808V123.48H188.102V120.828H178.521V121.79H186.841V122.57H178.547V125.222ZM203.978 116.239V114.25H202.691V119.814H203.978V117.422H205.538V116.239H203.978ZM201.872 118.904V117.877C201.417 118.072 200.806 118.202 200.052 118.293V115.563H201.391V114.523H193.981V115.563H195.32V118.371H193.942V119.411H198.232C199.844 119.411 201.183 119.203 201.872 118.904ZM196.568 115.563H198.804V118.371H198.388H196.568V115.563ZM195.983 123.285H203.978V120.425H194.683V121.426H202.704V122.336H194.709V125.209H204.251V124.208H195.983V123.285ZM212.609 123.636V121.543H216.964V120.399H208.462V118.644H216.795V114.653H207.175V115.797H215.521V117.539H207.175V121.543H211.296V123.636H206.434V124.819H217.523V123.636H212.609ZM224.477 120.282C227.454 120.282 229.417 119.164 229.417 117.318C229.417 115.472 227.454 114.354 224.477 114.354C221.5 114.354 219.537 115.472 219.537 117.318C219.537 119.164 221.5 120.282 224.477 120.282ZM224.477 115.511C226.583 115.511 228.078 116.161 228.078 117.318C228.078 118.475 226.583 119.125 224.477 119.125C222.371 119.125 220.876 118.475 220.876 117.318C220.876 116.161 222.371 115.511 224.477 115.511ZM230.028 121.309H218.939V122.505H223.814V125.612H225.127V122.505H230.028V121.309ZM238.945 115.303H235.825V114.055H234.525V115.303H231.405V116.356H238.945V115.303ZM241.493 117.292V114.25H240.206V122.57H241.493V118.527H243.053V117.292H241.493ZM235.175 121.53C237.021 121.53 238.451 120.711 238.451 119.255C238.451 117.799 237.021 116.98 235.175 116.98C233.329 116.98 231.886 117.799 231.886 119.255C231.886 120.711 233.329 121.53 235.175 121.53ZM235.175 117.968C236.423 117.968 237.216 118.514 237.216 119.255C237.216 120.009 236.423 120.542 235.175 120.542C233.927 120.542 233.134 120.009 233.134 119.255C233.134 118.514 233.927 117.968 235.175 117.968ZM233.511 122.167H232.211V125.209H241.792V124.065H233.511V122.167ZM255.557 118.748H253.997V114.25H252.71V125.352H253.997V119.983H255.557V118.748ZM245.781 123.519V115.823H250.877V114.653H244.468V124.689H248.81C249.876 124.689 251.072 124.494 251.748 124.156V122.986C251.072 123.311 249.928 123.519 248.875 123.519H245.781ZM257.415 125.248C257.935 125.248 258.325 124.845 258.325 124.325C258.325 123.805 257.935 123.402 257.415 123.402C256.895 123.402 256.492 123.805 256.492 124.325C256.492 124.845 256.895 125.248 257.415 125.248Z" fill="#2B1E34"/>
<path d="M74.11 159.981L78.855 163.27L79.557 162.243L74.669 158.954C75.033 158.213 75.293 157.394 75.449 156.536L74.123 156.302C73.551 159.409 71.341 162.009 68.936 162.009V163.231C70.977 163.231 72.862 161.944 74.11 159.981ZM68.715 165.61V166.819H79.804V165.61H68.715ZM90.3849 156.25V158.291H88.4609V159.461H90.3849V162.373H91.6719V156.25H90.3849ZM81.6749 158.863V162.23H85.5099C87.0829 162.23 88.4089 162.035 89.0849 161.736V160.696C88.3699 161.008 87.0959 161.19 85.5879 161.19H82.9489V159.877H87.7329V156.523H81.6489V157.563H86.4589V158.863H81.6749ZM90.3589 164.011H83.4949V162.984H82.2209V167.209H91.6329V162.984H90.3589V164.011ZM83.4949 166.182V165.025H90.3589V166.182H83.4949ZM106.442 164.492H107.729V156.25H106.442V164.492ZM100.995 162.815C103.166 162.815 104.505 161.45 104.505 159.591C104.505 157.732 103.166 156.367 100.995 156.367C98.8243 156.367 97.4723 157.732 97.4723 159.591C97.4723 161.45 98.8243 162.815 100.995 162.815ZM100.995 161.723C99.6693 161.723 98.7593 160.904 98.7593 159.591C98.7593 158.278 99.6693 157.446 100.995 157.446C102.308 157.446 103.218 158.278 103.218 159.591C103.218 160.904 102.308 161.723 100.995 161.723ZM98.4473 167.209H108.028V166.039H99.7603V163.582H98.4473V167.209ZM115.268 159.981L120.013 163.27L120.715 162.243L115.827 158.954C116.191 158.213 116.451 157.394 116.607 156.536L115.281 156.302C114.709 159.409 112.499 162.009 110.094 162.009V163.231C112.135 163.231 114.02 161.944 115.268 159.981ZM109.873 165.61V166.819H120.962V165.61H109.873ZM133.987 160.748H132.427V156.25H131.14V167.352H132.427V161.983H133.987V160.748ZM124.185 165.506V162.178H129.112V160.995H124.185V157.836H129.307V156.653H122.898V166.689H127.266C128.332 166.689 129.502 166.494 130.178 166.156V164.986C129.502 165.298 128.358 165.506 127.305 165.506H124.185ZM147.588 156.25V167.352H148.875V156.25H147.588ZM144.871 157.823H146.132V156.653H138.826V157.823H140.074V165.519H138.761V166.689H143.038C144.624 166.689 145.976 166.429 146.704 166.052V164.869C146.21 165.116 145.599 165.298 144.871 165.402V157.823ZM141.348 165.519V157.823H143.61V165.506C143.428 165.519 143.246 165.519 143.051 165.519H141.348ZM151.759 163.205H161.522V162.009H153.072V157.849H161.392V156.653H151.759V163.205ZM151.031 166.819H162.12V165.61H151.031V166.819ZM172.987 156.25V167.352H174.209V156.25H172.987ZM170.309 160.878H168.827C168.697 157.849 167.813 156.51 166.266 156.51C164.589 156.51 163.679 158.083 163.679 161.671C163.679 165.259 164.589 166.832 166.266 166.832C167.878 166.832 168.762 165.389 168.84 162.1H170.309V167.157H171.518V156.315H170.309V160.878ZM166.266 165.662C165.343 165.662 164.901 164.401 164.901 161.671C164.901 158.941 165.343 157.68 166.266 157.68C167.189 157.68 167.618 158.941 167.618 161.671C167.618 164.401 167.189 165.662 166.266 165.662ZM185.206 156.25V160.267H182.346V161.476H185.206V167.352H186.493V156.25H185.206ZM180.682 156.575L179.369 156.523C179.356 161.19 178.264 165.025 176.132 165.376V166.689C177.887 166.546 179.226 164.973 179.98 162.347L182.749 166.715L183.828 166.013L180.357 160.709C180.565 159.474 180.682 158.096 180.682 156.575ZM80.324 180.748H78.764V176.25H77.477V187.352H78.764V181.983H80.324V180.748ZM69.235 186.689H75.41V176.653H69.235V186.689ZM70.522 177.849H74.123V185.493H70.522V177.849ZM86.7579 180.462C89.4489 180.462 91.6589 179.838 91.6589 178.317C91.6589 176.809 89.4489 176.185 86.7579 176.185C84.0669 176.185 81.8569 176.809 81.8569 178.317C81.8569 179.838 84.0669 180.462 86.7579 180.462ZM86.7579 179.435C84.8209 179.435 83.2219 179.097 83.2219 178.317C83.2219 177.55 84.8209 177.199 86.7579 177.199C88.6949 177.199 90.2939 177.55 90.2939 178.317C90.2939 179.097 88.6949 179.435 86.7579 179.435ZM81.2199 182.373H92.3089V181.333H81.2199V182.373ZM81.9869 187.222H91.5289V183.452H81.9869V187.222ZM83.2739 186.195V184.479H90.2549V186.195H83.2739ZM103.176 176.25V187.352H104.398V176.25H103.176ZM100.498 180.878H99.0158C98.8858 177.849 98.0018 176.51 96.4548 176.51C94.7778 176.51 93.8678 178.083 93.8678 181.671C93.8678 185.259 94.7778 186.832 96.4548 186.832C98.0668 186.832 98.9508 185.389 99.0288 182.1H100.498V187.157H101.707V176.315H100.498V180.878ZM96.4548 185.662C95.5318 185.662 95.0898 184.401 95.0898 181.671C95.0898 178.941 95.5318 177.68 96.4548 177.68C97.3778 177.68 97.8068 178.941 97.8068 181.671C97.8068 184.401 97.3778 185.662 96.4548 185.662ZM110.601 183.205H120.364V182.009H111.914V177.849H120.234V176.653H110.601V183.205ZM109.873 186.819H120.962V185.61H109.873V186.819ZM123.171 180.553H132.778V179.409H124.471V176.25H123.171V180.553ZM122.378 182.919H133.467V181.775H122.378V182.919ZM123.145 187.222H132.895V186.078H124.458V183.907H123.145V187.222ZM147.965 176.25V187.352H149.2V176.25H147.965ZM145.196 180.722H143.376C143.402 180.371 143.415 180.02 143.415 179.643V176.653H138.774V177.823H142.167V179.708C142.167 183.14 140.841 185.389 138.774 185.454V186.663C140.971 186.637 142.648 184.882 143.207 181.944H145.196V187.157H146.418V176.315H145.196V180.722ZM160.105 176.25V187.352H161.392V176.25H160.105ZM155.997 176.575L154.684 176.523C154.671 181.19 153.449 185.038 151.226 185.389V186.689C152.981 186.559 154.333 185.077 155.152 182.633L158.103 186.663L159.143 185.922L155.555 181.138C155.841 179.812 155.984 178.278 155.997 176.575ZM173.819 176.38H164.329V179.981H173.819V176.38ZM172.545 178.993H165.616V177.368H172.545V178.993ZM174.625 181.827V180.826H163.536V181.827H168.437V182.828H164.277V183.79H172.597V184.57H164.303V187.222H174.053V186.26H165.564V185.48H173.858V182.828H169.711V181.827H174.625ZM181.579 180.254C184.257 180.254 186.454 179.708 186.454 178.226C186.454 176.757 184.257 176.211 181.579 176.211C178.901 176.211 176.704 176.757 176.704 178.226C176.704 179.708 178.901 180.254 181.579 180.254ZM181.579 179.266C179.642 179.266 178.03 178.967 178.03 178.226C178.03 177.498 179.642 177.186 181.579 177.186C183.516 177.186 185.128 177.498 185.128 178.226C185.128 178.967 183.516 179.266 181.579 179.266ZM176.041 181.944H187.13V180.943H176.041V181.944ZM176.808 187.222H186.558V186.26H178.069V185.48H186.363V182.828H176.782V183.79H185.102V184.57H176.808V187.222ZM201.199 183.972H202.538V176.64H192.866V177.849H201.199V183.972ZM197.65 185.61V180.657H196.324V185.61H192.19V186.819H203.279V185.61H197.65ZM205.5 181.528H215.146V180.514H206.774V179.448H214.99V176.38H205.5V177.394H213.729V178.46H205.5V181.528ZM204.694 183.595H215.783V182.555H204.694V183.595ZM205.461 187.222H215.211V186.156H206.774V184.466H205.461V187.222ZM228.808 180.748H227.248V176.25H225.961V187.352H227.248V181.983H228.808V180.748ZM219.032 185.519V177.823H224.128V176.653H217.719V186.689H222.061C223.127 186.689 224.323 186.494 224.999 186.156V184.986C224.323 185.311 223.179 185.519 222.126 185.519H219.032ZM230.666 187.248C231.186 187.248 231.576 186.845 231.576 186.325C231.576 185.805 231.186 185.402 230.666 185.402C230.146 185.402 229.743 185.805 229.743 186.325C229.743 186.845 230.146 187.248 230.666 187.248Z" fill="#2B1E34"/>
<path d="M72.069 218.224H70.795V219.979H68.468V221.136H74.396V219.979H72.069V218.224ZM78.192 218.25V222.722H76.411V218.315H75.215V229.157H76.411V223.931H78.192V229.352H79.388V218.25H78.192ZM71.484 222.007C70.002 222.007 68.91 223.203 68.91 225.413C68.91 227.623 70.002 228.819 71.484 228.819C72.979 228.819 74.071 227.623 74.071 225.413C74.071 223.203 72.979 222.007 71.484 222.007ZM71.484 227.688C70.691 227.688 70.106 226.869 70.106 225.413C70.106 223.957 70.691 223.138 71.484 223.138C72.29 223.138 72.888 223.957 72.888 225.413C72.888 226.869 72.29 227.688 71.484 227.688ZM91.2689 220.525V218.25H89.9819V224.386H91.2689V221.76H92.8289V220.525H91.2689ZM89.1759 223.255V222.163C88.4609 222.475 87.1869 222.657 85.6789 222.657H82.8969V219.615H88.3829V218.523H81.6099V223.749H85.6009C87.1739 223.749 88.4999 223.554 89.1759 223.255ZM86.6799 224.75C84.0279 224.75 81.9219 225.387 81.9219 227.051C81.9219 228.715 84.0279 229.352 86.6799 229.352C89.3449 229.352 91.4379 228.715 91.4379 227.051C91.4379 225.387 89.3449 224.75 86.6799 224.75ZM86.6799 228.286C84.7949 228.286 83.2999 227.909 83.2999 227.051C83.2999 226.206 84.7949 225.816 86.6799 225.816C88.5779 225.816 90.0599 226.206 90.0599 227.051C90.0599 227.909 88.5779 228.286 86.6799 228.286ZM106.806 218.25V229.352H108.041V218.25H106.806ZM104.037 222.722H102.217C102.243 222.371 102.256 222.02 102.256 221.643V218.653H97.6153V219.823H101.008V221.708C101.008 225.14 99.6823 227.389 97.6153 227.454V228.663C99.8123 228.637 101.489 226.882 102.048 223.944H104.037V229.157H105.259V218.315H104.037V222.722ZM118.947 218.25V229.352H120.234V218.25H118.947ZM114.839 218.575L113.526 218.523C113.513 223.19 112.291 227.038 110.068 227.389V228.689C111.823 228.559 113.175 227.077 113.994 224.633L116.945 228.663L117.985 227.922L114.397 223.138C114.683 221.812 114.826 220.278 114.839 218.575ZM132.661 218.38H123.171V221.981H132.661V218.38ZM131.387 220.993H124.458V219.368H131.387V220.993ZM133.467 223.827V222.826H122.378V223.827H127.279V224.828H123.119V225.79H131.439V226.57H123.145V229.222H132.895V228.26H124.406V227.48H132.7V224.828H128.553V223.827H133.467ZM140.421 222.254C143.099 222.254 145.296 221.708 145.296 220.226C145.296 218.757 143.099 218.211 140.421 218.211C137.743 218.211 135.546 218.757 135.546 220.226C135.546 221.708 137.743 222.254 140.421 222.254ZM140.421 221.266C138.484 221.266 136.872 220.967 136.872 220.226C136.872 219.498 138.484 219.186 140.421 219.186C142.358 219.186 143.97 219.498 143.97 220.226C143.97 220.967 142.358 221.266 140.421 221.266ZM134.883 223.944H145.972V222.943H134.883V223.944ZM135.65 229.222H145.4V228.26H136.911V227.48H145.205V224.828H135.624V225.79H143.944V226.57H135.65V229.222ZM156.426 221.981L161.171 225.27L161.873 224.243L156.985 220.954C157.349 220.213 157.609 219.394 157.765 218.536L156.439 218.302C155.867 221.409 153.657 224.009 151.252 224.009V225.231C153.293 225.231 155.178 223.944 156.426 221.981ZM151.031 227.61V228.819H162.12V227.61H151.031ZM169.698 227.649V225.595H174.066V224.451H165.564V222.67H173.754V221.539H165.564V219.797H173.897V218.653H164.277V225.595H168.398V227.649H163.536V228.819H174.625V227.649H169.698ZM185.115 229.352H186.402V218.25H185.115V229.352ZM176.678 228.689H181.176C182.255 228.689 183.412 228.494 184.088 228.156V226.973C183.412 227.298 182.268 227.506 181.215 227.506H177.965V224.178H182.931V218.653H176.652V219.836H181.644V222.995H176.678V228.689ZM197.997 218.25V229.352H199.219V218.25H197.997ZM195.319 222.878H193.837C193.707 219.849 192.823 218.51 191.276 218.51C189.599 218.51 188.689 220.083 188.689 223.671C188.689 227.259 189.599 228.832 191.276 228.832C192.888 228.832 193.772 227.389 193.85 224.1H195.319V229.157H196.528V218.315H195.319V222.878ZM191.276 227.662C190.353 227.662 189.911 226.401 189.911 223.671C189.911 220.941 190.353 219.68 191.276 219.68C192.199 219.68 192.628 220.941 192.628 223.671C192.628 226.401 192.199 227.662 191.276 227.662ZM213.677 222.15H214.964V218.38H205.435V219.472H213.677V222.15ZM210.154 222.93V220.759H208.854V222.93H204.694V223.996H215.783V222.93H210.154ZM210.232 225.036C207.58 225.036 205.357 225.595 205.357 227.194C205.357 228.754 207.58 229.365 210.232 229.365C212.884 229.365 215.107 228.754 215.107 227.194C215.107 225.647 212.884 225.036 210.232 225.036ZM210.232 228.338C208.438 228.338 206.709 227.987 206.709 227.194C206.709 226.375 208.438 226.063 210.232 226.063C212.026 226.063 213.755 226.414 213.755 227.194C213.755 227.987 212.026 228.338 210.232 228.338ZM222.737 224.204C225.714 224.204 227.677 223.138 227.677 221.279C227.677 219.42 225.714 218.354 222.737 218.354C219.76 218.354 217.797 219.42 217.797 221.279C217.797 223.138 219.76 224.204 222.737 224.204ZM222.737 219.498C224.843 219.498 226.338 220.122 226.338 221.279C226.338 222.423 224.843 223.047 222.737 223.047C220.631 223.047 219.136 222.423 219.136 221.279C219.136 220.122 220.631 219.498 222.737 219.498ZM228.288 225.257H217.199V226.466H219.929V229.612H221.203V226.466H224.271V229.612H225.545V226.466H228.288V225.257ZM234.202 218.224H232.889V220.005H229.951V221.149H237.153V220.005H234.202V218.224ZM241.313 222.748H239.753V218.25H238.466V229.352H239.753V223.983H241.313V222.748ZM233.552 222.033C231.745 222.033 230.458 223.385 230.458 225.426C230.458 227.467 231.745 228.819 233.552 228.819C235.359 228.819 236.633 227.467 236.633 225.426C236.633 223.385 235.359 222.033 233.552 222.033ZM233.552 227.701C232.512 227.701 231.706 226.843 231.706 225.426C231.706 224.009 232.512 223.151 233.552 223.151C234.579 223.151 235.385 224.009 235.385 225.426C235.385 226.843 234.579 227.701 233.552 227.701ZM251.218 225.972H252.557V218.64H242.885V219.849H251.218V225.972ZM247.669 227.61V222.657H246.343V227.61H242.209V228.819H253.298V227.61H247.669ZM256.43 227.454H255.13L254.714 230.392H255.78L256.43 227.454ZM266.901 221.981L271.646 225.27L272.348 224.243L267.46 220.954C267.824 220.213 268.084 219.394 268.24 218.536L266.914 218.302C266.342 221.409 264.132 224.009 261.727 224.009V225.231C263.768 225.231 265.653 223.944 266.901 221.981ZM261.506 227.61V228.819H272.595V227.61H261.506ZM283.176 218.25V220.291H281.252V221.461H283.176V224.373H284.463V218.25H283.176ZM274.466 220.863V224.23H278.301C279.874 224.23 281.2 224.035 281.876 223.736V222.696C281.161 223.008 279.887 223.19 278.379 223.19H275.74V221.877H280.524V218.523H274.44V219.563H279.25V220.863H274.466ZM283.15 226.011H276.286V224.984H275.012V229.209H284.424V224.984H283.15V226.011ZM276.286 228.182V227.025H283.15V228.182H276.286ZM299.142 222.15H300.429V218.38H290.9V219.472H299.142V222.15ZM295.619 222.93V220.759H294.319V222.93H290.159V223.996H301.248V222.93H295.619ZM295.697 225.036C293.045 225.036 290.822 225.595 290.822 227.194C290.822 228.754 293.045 229.365 295.697 229.365C298.349 229.365 300.572 228.754 300.572 227.194C300.572 225.647 298.349 225.036 295.697 225.036ZM295.697 228.338C293.903 228.338 292.174 227.987 292.174 227.194C292.174 226.375 293.903 226.063 295.697 226.063C297.491 226.063 299.22 226.414 299.22 227.194C299.22 227.987 297.491 228.338 295.697 228.338ZM311.738 218.25V224.88H313.025V218.25H311.738ZM306.564 222.059L309.879 224.399L310.607 223.463L307.084 221.019C307.396 220.226 307.565 219.342 307.565 218.432L306.278 218.354C306.252 220.837 304.939 222.982 302.833 223.359V224.555C304.432 224.347 305.732 223.398 306.564 222.059ZM303.509 226.609H311.725V229.352H313.025V225.491H303.509V226.609ZM77.789 246.492H79.076V238.25H77.789V246.492ZM72.342 244.815C74.513 244.815 75.852 243.45 75.852 241.591C75.852 239.732 74.513 238.367 72.342 238.367C70.171 238.367 68.819 239.732 68.819 241.591C68.819 243.45 70.171 244.815 72.342 244.815ZM72.342 243.723C71.016 243.723 70.106 242.904 70.106 241.591C70.106 240.278 71.016 239.446 72.342 239.446C73.655 239.446 74.565 240.278 74.565 241.591C74.565 242.904 73.655 243.723 72.342 243.723ZM69.794 249.209H79.375V248.039H71.107V245.582H69.794V249.209ZM86.6149 241.981L91.3599 245.27L92.0619 244.243L87.1739 240.954C87.5379 240.213 87.7979 239.394 87.9539 238.536L86.6279 238.302C86.0559 241.409 83.8459 244.009 81.4409 244.009V245.231C83.4819 245.231 85.3669 243.944 86.6149 241.981ZM81.2199 247.61V248.819H92.3089V247.61H81.2199ZM105.334 242.748H103.774V238.25H102.487V249.352H103.774V243.983H105.334V242.748ZM95.5318 247.506V244.178H100.459V242.995H95.5318V239.836H100.654V238.653H94.2448V248.689H98.6128C99.6788 248.689 100.849 248.494 101.525 248.156V246.986C100.849 247.298 99.7048 247.506 98.6518 247.506H95.5318ZM115.226 246.336H116.578V238.64H106.906V239.849H115.226V246.336ZM106.23 248.819H117.319V247.61H106.23V248.819ZM128.186 238.25V240.616H126.379V238.315H125.157V244.737H126.379V241.786H128.186V244.854H129.408V238.25H128.186ZM124.403 244.022V243.008C123.675 243.307 122.596 243.424 121.361 243.424H120.269V241.942H123.779V238.523H119.073V239.537H122.583V240.967H119.073V244.438H121.27C122.544 244.438 123.675 244.321 124.403 244.022ZM119.71 249.209H129.408V245.465H119.71V249.209ZM120.984 246.492H128.147V248.182H120.984V246.492ZM133.449 249.586H134.892C133.397 248.065 132.357 246.089 132.357 243.788C132.357 241.487 133.397 239.511 134.892 237.99H133.449C132.006 239.55 131.031 241.422 131.031 243.788C131.031 246.154 132.006 248.026 133.449 249.586ZM141.71 250.535C143.127 250.535 144.414 250.184 145.22 249.56V248.247C144.375 248.78 143.257 249.027 141.71 249.027C139.045 249.027 137.225 247.064 137.225 244.425C137.225 241.812 139.058 239.823 141.749 239.823C144.492 239.823 146.13 241.591 146.13 243.996C146.13 245.322 145.727 246.128 145.116 246.128C144.726 246.128 144.557 245.803 144.557 245.361V241.63H142.776V242.215C142.438 241.747 141.918 241.474 141.203 241.474C139.539 241.474 138.408 242.722 138.408 244.49C138.408 246.219 139.539 247.454 141.203 247.454C141.957 247.454 142.503 247.168 142.867 246.635L142.932 246.752C143.257 247.324 143.907 247.727 144.687 247.727C146.533 247.727 147.885 246.076 147.885 243.97C147.885 240.928 145.636 238.341 141.749 238.341C137.94 238.341 135.47 241.149 135.47 244.425C135.47 247.831 137.953 250.535 141.71 250.535ZM141.463 245.92C140.722 245.92 140.228 245.309 140.228 244.49C140.228 243.619 140.722 243.034 141.463 243.034C142.243 243.034 142.75 243.619 142.75 244.49C142.75 245.309 142.243 245.92 141.463 245.92ZM152.227 241.37C150.29 241.37 148.743 242.306 148.743 243.788C148.743 245.335 149.939 245.894 151.759 246.167C153.072 246.362 153.592 246.596 153.592 246.96C153.592 247.311 153.046 247.584 152.305 247.584C151.577 247.584 151.005 247.259 150.927 246.765H148.691C148.769 248.364 150.277 249.352 152.266 249.352C154.203 249.352 155.841 248.39 155.841 246.83C155.841 245.517 155.035 244.776 152.786 244.438C151.486 244.23 150.979 244.048 150.979 243.671C150.979 243.333 151.486 243.086 152.188 243.086C152.864 243.086 153.397 243.372 153.475 243.84H155.711C155.62 242.332 154.125 241.37 152.227 241.37ZM159.519 238.25H157.205V249.17H159.519V238.25ZM164.115 249.352C165.09 249.352 165.792 249.001 166.247 248.39V249.17H168.561V241.552H166.247V245.465C166.247 246.648 165.701 247.363 164.791 247.363C163.92 247.363 163.452 246.726 163.452 245.569V241.552H161.138V245.959C161.138 248.065 162.347 249.352 164.115 249.352ZM175.481 241.552L173.778 246.518L172.075 241.552H169.566L172.491 249.17H174.896L177.821 241.552H175.481ZM178.409 249.508V251.354H184.038V249.508H178.409ZM189.016 241.37C186.663 241.37 184.973 243.047 184.973 245.361C184.973 247.675 186.663 249.352 189.016 249.352C191.369 249.352 193.059 247.675 193.059 245.361C193.059 243.047 191.369 241.37 189.016 241.37ZM189.016 243.346C190.108 243.346 190.823 244.191 190.823 245.361C190.823 246.531 190.108 247.376 189.016 247.376C187.924 247.376 187.209 246.531 187.209 245.361C187.209 244.191 187.924 243.346 189.016 243.346ZM198.734 241.552H197.278V240.928C197.278 240.473 197.551 240.187 198.006 240.187C198.175 240.187 198.435 240.187 198.604 240.213V238.276C198.318 238.224 197.941 238.198 197.551 238.198C195.9 238.198 194.964 239.303 194.964 240.798V241.552H193.69V243.541H194.964V249.17H197.278V243.541H198.734V241.552ZM204.345 241.552H202.889V240.928C202.889 240.473 203.162 240.187 203.617 240.187C203.786 240.187 204.046 240.187 204.215 240.213V238.276C203.929 238.224 203.552 238.198 203.162 238.198C201.511 238.198 200.575 239.303 200.575 240.798V241.552H199.301V243.541H200.575V249.17H202.889V243.541H204.345V241.552ZM206.553 237.873C205.734 237.873 205.136 238.471 205.136 239.29C205.136 240.109 205.734 240.707 206.553 240.707C207.372 240.707 207.97 240.109 207.97 239.29C207.97 238.471 207.372 237.873 206.553 237.873ZM207.71 241.552H205.396V249.196H207.71V241.552ZM216.895 246.427H214.555C214.347 246.973 213.814 247.337 213.099 247.337C212.02 247.337 211.318 246.505 211.318 245.361C211.318 244.217 212.02 243.385 213.099 243.385C213.827 243.385 214.334 243.749 214.516 244.269H216.856C216.583 242.644 215.088 241.37 213.099 241.37C210.746 241.37 209.056 243.047 209.056 245.361C209.056 247.675 210.746 249.352 213.099 249.352C215.023 249.352 216.505 248.195 216.895 246.427ZM219.299 237.873C218.48 237.873 217.882 238.471 217.882 239.29C217.882 240.109 218.48 240.707 219.299 240.707C220.118 240.707 220.716 240.109 220.716 239.29C220.716 238.471 220.118 237.873 219.299 237.873ZM220.456 241.552H218.142V249.196H220.456V241.552ZM225.507 249.352C226.508 249.352 227.236 249.001 227.691 248.39V249.17H230.005V241.552H227.691V242.332C227.236 241.721 226.508 241.37 225.507 241.37C223.323 241.37 221.802 243.047 221.802 245.361C221.802 247.675 223.323 249.352 225.507 249.352ZM225.871 247.376C224.766 247.376 224.064 246.531 224.064 245.361C224.064 244.191 224.766 243.346 225.871 243.346C227.002 243.346 227.73 244.191 227.73 245.361C227.73 246.531 227.002 247.376 225.871 247.376ZM234.066 238.25H231.752V249.17H234.066V238.25ZM235.23 249.586H236.66C238.116 248.026 239.078 246.154 239.078 243.788C239.078 241.422 238.116 239.55 236.66 237.99H235.23C236.725 239.511 237.752 241.487 237.752 243.788C237.752 246.089 236.725 248.065 235.23 249.586ZM245.843 242.254C248.521 242.254 250.718 241.708 250.718 240.226C250.718 238.757 248.521 238.211 245.843 238.211C243.165 238.211 240.968 238.757 240.968 240.226C240.968 241.708 243.165 242.254 245.843 242.254ZM245.843 241.266C243.906 241.266 242.294 240.967 242.294 240.226C242.294 239.498 243.906 239.186 245.843 239.186C247.78 239.186 249.392 239.498 249.392 240.226C249.392 240.967 247.78 241.266 245.843 241.266ZM240.305 243.944H251.394V242.943H240.305V243.944ZM241.072 249.222H250.822V248.26H242.333V247.48H250.627V244.828H241.046V245.79H249.366V246.57H241.072V249.222ZM265.904 238.25V242.722H264.097V238.315H262.875V249.157H264.097V243.918H265.904V249.352H267.126V238.25H265.904ZM258.026 247.545V244.152H261.497V243.008H258.026V239.797H261.653V238.653H256.791V248.689H258.806C260.171 248.689 261.354 248.52 262.082 248.195V247.038C261.263 247.389 260.21 247.545 258.871 247.545H258.026ZM277.954 246.336H279.306V238.64H269.634V239.849H277.954V246.336ZM268.958 248.819H280.047V247.61H268.958V248.819ZM288.964 239.303H285.844V238.055H284.544V239.303H281.424V240.356H288.964V239.303ZM291.512 241.292V238.25H290.225V246.57H291.512V242.527H293.072V241.292H291.512ZM285.194 245.53C287.04 245.53 288.47 244.711 288.47 243.255C288.47 241.799 287.04 240.98 285.194 240.98C283.348 240.98 281.905 241.799 281.905 243.255C281.905 244.711 283.348 245.53 285.194 245.53ZM285.194 241.968C286.442 241.968 287.235 242.514 287.235 243.255C287.235 244.009 286.442 244.542 285.194 244.542C283.946 244.542 283.153 244.009 283.153 243.255C283.153 242.514 283.946 241.968 285.194 241.968ZM283.53 246.167H282.23V249.209H291.811V248.065H283.53V246.167ZM305.577 242.748H304.017V238.25H302.73V249.352H304.017V243.983H305.577V242.748ZM295.801 247.519V239.823H300.897V238.653H294.488V248.689H298.83C299.896 248.689 301.092 248.494 301.768 248.156V246.986C301.092 247.311 299.948 247.519 298.895 247.519H295.801ZM307.435 249.248C307.955 249.248 308.345 248.845 308.345 248.325C308.345 247.805 307.955 247.402 307.435 247.402C306.915 247.402 306.512 247.805 306.512 248.325C306.512 248.845 306.915 249.248 307.435 249.248Z" fill="#2B1E34"/>
<ellipse cx="33" cy="100" rx="9" ry="12" fill="#9E30F4"/>
<ellipse cx="33" cy="162" rx="9" ry="12" fill="#9E30F4"/>
<ellipse cx="33" cy="224" rx="9" ry="12" fill="#9E30F4"/>
<ellipse cx="33" cy="286" rx="9" ry="12" fill="#FF365F"/>
<ellipse cx="42" cy="100" rx="9" ry="12" fill="#9E30F4"/>
<ellipse cx="42" cy="162" rx="9" ry="12" fill="#9E30F4"/>
<ellipse cx="42" cy="224" rx="9" ry="12" fill="#9E30F4"/>
<ellipse cx="42" cy="286" rx="9" ry="12" fill="#FF365F"/>
<ellipse cx="51" cy="100" rx="9" ry="12" fill="#9E30F4"/>
<ellipse cx="51" cy="162" rx="9" ry="12" fill="#9E30F4"/>
<ellipse cx="51" cy="224" rx="9" ry="12" fill="#9E30F4"/>
<ellipse cx="51" cy="286" rx="9" ry="12" fill="#FF365F"/>
<path d="M43.26 95.3H39.36V97.196H41.088V105.08H43.26V95.3Z" fill="white"/>
<path d="M41.864 157.036C39.8 157.036 38.348 158.476 38.348 160.396H40.496C40.496 159.652 40.976 158.932 41.864 158.932C42.812 158.932 43.208 159.412 43.208 160.132C43.208 160.684 42.932 161.32 41.756 162.532L38.552 165.832V167.08H45.548V165.232H41.744L43.148 163.78C44.864 162.004 45.356 161.128 45.356 160.108C45.356 158.332 44.06 157.036 41.864 157.036Z" fill="white"/>
<path d="M41.912 219.036C39.908 219.036 38.504 220.38 38.504 222.24H40.652C40.652 221.544 41.048 220.86 41.9 220.86C42.716 220.86 43.196 221.304 43.196 222.024C43.196 222.768 42.668 223.248 41.78 223.248H40.808V225.024H41.78C42.8 225.024 43.484 225.456 43.484 226.272C43.484 226.992 42.884 227.484 41.984 227.484C41.072 227.484 40.58 227.016 40.496 226.236H38.348C38.504 228.12 39.836 229.32 41.984 229.32C44.012 229.32 45.608 228.144 45.608 226.26C45.608 225 44.6 224.22 43.7 224.076C44.516 223.932 45.344 223.104 45.344 221.976C45.344 220.224 43.94 219.036 41.912 219.036Z" fill="white"/>
<path d="M39.112 283.048H37.72V280.96H35.584V283.048H34.192V284.884H35.584V290.08H37.72V284.884H39.112V283.048ZM41.1806 279.652C40.4246 279.652 39.8726 280.204 39.8726 280.96C39.8726 281.716 40.4246 282.268 41.1806 282.268C41.9366 282.268 42.4886 281.716 42.4886 280.96C42.4886 280.204 41.9366 279.652 41.1806 279.652ZM42.2486 283.048H40.1126V290.104H42.2486V283.048ZM43.8509 293.008H45.9869V289.36C46.4069 289.924 47.0789 290.248 48.0029 290.248C50.0189 290.248 51.4229 288.7 51.4229 286.564C51.4229 284.428 50.0189 282.88 48.0029 282.88C47.0789 282.88 46.4069 283.204 45.9869 283.768V283.048H43.8509V293.008ZM47.6669 288.424C46.6229 288.424 45.9509 287.644 45.9509 286.564C45.9509 285.484 46.6229 284.704 47.6669 284.704C48.6869 284.704 49.3349 285.484 49.3349 286.564C49.3349 287.644 48.6869 288.424 47.6669 288.424Z" fill="white"/>
<path fill-rule="evenodd" clip-rule="evenodd" d="M73.9526 289.089C73.9357 289.39 73.9271 289.694 73.9271 290V319C73.9271 327.837 81.0906 335 89.9271 335H279.927C288.764 335 295.927 327.837 295.927 319V290C295.927 281.163 288.764 274 279.927 274H89.9271C84.3901 274 79.5099 276.813 76.6375 281.087L69.7839 281.884C67.9544 282.096 67.3446 284.455 68.8469 285.508L73.9526 289.089Z" fill="#F8EEFF"/>
<path d="M100.964 293.098L101.276 292.136L96.7262 290.953C96.8432 290.771 96.9342 290.576 96.9992 290.368H100.964V289.38H91.3962V290.368H95.6732C95.1662 291.434 93.0602 291.993 91.2142 292.045V293.046C92.9692 293.007 94.8022 292.565 95.9462 291.746L100.964 293.098ZM96.8172 293.813V292.747H95.5432V293.813H90.6422V294.801H101.731V293.813H96.8172ZM96.8302 295.243H95.5302V295.945H91.2142V296.92H101.133V295.945H96.8302V295.243ZM96.1672 297.453C93.1772 297.453 91.7212 297.934 91.7212 298.935C91.7212 299.936 93.1772 300.417 96.1672 300.417C99.1702 300.417 100.626 299.936 100.626 298.935C100.626 297.934 99.1702 297.453 96.1672 297.453ZM96.1672 299.507C94.2042 299.507 93.0212 299.312 93.0212 298.935C93.0212 298.558 94.2042 298.363 96.1672 298.363C98.1432 298.363 99.3262 298.558 99.3262 298.935C99.3262 299.312 98.1432 299.507 96.1672 299.507ZM114.756 293.748H113.196V289.25H111.909V300.352H113.196V294.983H114.756V293.748ZM106.813 289.51C104.863 289.51 103.498 291.148 103.498 294.671C103.498 298.194 104.863 299.832 106.813 299.832C108.75 299.832 110.115 298.194 110.115 294.671C110.115 291.148 108.75 289.51 106.813 289.51ZM106.813 298.649C105.656 298.649 104.785 297.492 104.785 294.671C104.785 291.863 105.656 290.693 106.813 290.693C107.957 290.693 108.828 291.863 108.828 294.671C108.828 297.492 107.957 298.649 106.813 298.649ZM120.15 289.224H118.837V291.005H115.899V292.149H123.101V291.005H120.15V289.224ZM127.261 293.748H125.701V289.25H124.414V300.352H125.701V294.983H127.261V293.748ZM119.5 293.033C117.693 293.033 116.406 294.385 116.406 296.426C116.406 298.467 117.693 299.819 119.5 299.819C121.307 299.819 122.581 298.467 122.581 296.426C122.581 294.385 121.307 293.033 119.5 293.033ZM119.5 298.701C118.46 298.701 117.654 297.843 117.654 296.426C117.654 295.009 118.46 294.151 119.5 294.151C120.527 294.151 121.333 295.009 121.333 296.426C121.333 297.843 120.527 298.701 119.5 298.701ZM128.95 293.553H138.557V292.409H130.25V289.25H128.95V293.553ZM128.157 295.919H139.246V294.775H128.157V295.919ZM128.924 300.222H138.674V299.078H130.237V296.907H128.924V300.222ZM154.978 289.25H153.756V294.918H154.978V289.25ZM151.013 294.801H152.222V289.315H151.013V290.771H149.063V291.902H151.013V294.801ZM147.165 292.773L149.583 294.671L150.337 293.774L147.633 291.707C147.841 291.031 147.945 290.264 147.945 289.419L146.71 289.38C146.71 291.616 146.008 293.124 144.305 293.631V294.788C145.618 294.502 146.567 293.8 147.165 292.773ZM146.541 299.208V298.337H154.978V295.516H145.254V296.517H153.717V297.375H145.28V300.209H155.251V299.208H146.541ZM165.975 289.25V291.291H164.051V292.461H165.975V295.373H167.262V289.25H165.975ZM157.265 291.863V295.23H161.1C162.673 295.23 163.999 295.035 164.675 294.736V293.696C163.96 294.008 162.686 294.19 161.178 294.19H158.539V292.877H163.323V289.523H157.239V290.563H162.049V291.863H157.265ZM165.949 297.011H159.085V295.984H157.811V300.209H167.223V295.984H165.949V297.011ZM159.085 299.182V298.025H165.949V299.182H159.085ZM178.389 300.352H179.689V289.25H178.389V300.352ZM173.15 299.832C175.113 299.832 176.504 298.194 176.504 294.671C176.504 291.148 175.113 289.51 173.15 289.51C171.174 289.51 169.783 291.148 169.783 294.671C169.783 298.194 171.174 299.832 173.15 299.832ZM173.15 298.649C171.967 298.649 171.07 297.492 171.07 294.671C171.07 291.863 171.967 290.693 173.15 290.693C174.307 290.693 175.217 291.863 175.217 294.671C175.217 297.492 174.307 298.649 173.15 298.649ZM195.825 289.25H194.538V295.425H195.825V289.25ZM192.575 292.253C192.575 290.55 191.223 289.367 189.104 289.367C186.972 289.367 185.62 290.55 185.62 292.253C185.62 293.969 186.972 295.139 189.104 295.139C191.223 295.139 192.575 293.969 192.575 292.253ZM186.907 292.253C186.907 291.109 187.804 290.433 189.104 290.433C190.391 290.433 191.288 291.109 191.288 292.253C191.288 293.397 190.391 294.073 189.104 294.073C187.804 294.073 186.907 293.397 186.907 292.253ZM196.722 299.351L194.33 297.492C194.512 297.011 194.629 296.504 194.681 295.945L193.433 295.763C193.316 297.323 192.445 298.649 191.405 298.974L189.702 297.57C189.91 297.076 190.053 296.53 190.118 295.932L188.87 295.763C188.727 297.479 187.648 298.922 186.426 299.039V300.209C187.492 300.131 188.48 299.52 189.169 298.545L191.054 300.209C192.146 300.144 193.147 299.507 193.823 298.48L195.955 300.261L196.722 299.351ZM198.761 293.553H208.368V292.409H200.061V289.25H198.761V293.553ZM197.968 295.919H209.057V294.775H197.968V295.919ZM198.735 300.222H208.485V299.078H200.048V296.907H198.735V300.222ZM218.069 293.839L221.293 295.971L221.956 294.996L218.563 292.786C218.693 292.383 218.771 291.954 218.81 291.512H221.748V290.407H218.797V289.055H217.497V290.407H214.507V291.512H217.51C217.328 293.371 216.145 294.645 214.39 294.918V296.062C215.989 295.906 217.302 295.061 218.069 293.839ZM224.478 289.25H223.191V297.531H224.478V289.25ZM216.366 299.065V296.985H215.066V300.209H224.777V299.065H216.366ZM235.579 294.58H236.918V289.51H227.35V290.719H235.579V294.58ZM237.711 295.503H226.622V296.725H231.432V300.612H232.758V296.725H237.711V295.503ZM239.933 293.553H249.579V292.643H241.181V291.902H249.423V289.38H239.933V290.29H248.175V291.044H239.933V293.553ZM239.127 295.295H250.216V294.359H239.127V295.295ZM239.894 300.222H249.644V299.312H241.142V298.584H249.449V296.101H239.868V297.011H248.201V297.726H239.894V300.222ZM262.776 290.186H259.656V289.055H258.356V290.186H255.236V291.187H262.776V290.186ZM266.884 291.941H265.324V289.25H264.037V295.867H265.324V293.163H266.884V291.941ZM259.006 295.776C260.839 295.776 262.256 295.048 262.256 293.8C262.256 292.513 260.839 291.772 259.006 291.772C257.16 291.772 255.743 292.513 255.743 293.8C255.743 295.048 257.16 295.776 259.006 295.776ZM259.006 292.721C260.241 292.721 261.034 293.176 261.034 293.8C261.034 294.398 260.241 294.827 259.006 294.827C257.758 294.827 256.978 294.398 256.978 293.8C256.978 293.176 257.758 292.721 259.006 292.721ZM256.042 300.209H265.324V296.478H256.042V300.209ZM257.316 297.505H264.05V299.182H257.316V297.505ZM277.348 289.25V300.352H278.518V289.25H277.348ZM274.969 293.592H273.604C273.617 293.228 273.617 292.864 273.617 292.474V289.653H271.108V290.745H272.434V292.604C272.434 296.166 272.031 298.311 270.705 298.545V299.663C272.551 299.455 273.318 297.739 273.539 294.775H274.969V300.157H276.139V289.315H274.969V293.592ZM270.562 289.653H267.897V290.745H269.379L269.392 292.435C269.418 295.581 269.145 297.921 267.897 298.155V299.273C270.094 299.013 270.601 296.361 270.575 292.318L270.562 289.653ZM100.093 308.25V312.722H98.2862V308.315H97.0642V319.157H98.2862V313.918H100.093V319.352H101.315V308.25H100.093ZM92.2152 317.545V314.152H95.6862V313.008H92.2152V309.797H95.8422V308.653H90.9802V318.689H92.9952C94.3602 318.689 95.5432 318.52 96.2712 318.195V317.038C95.4522 317.389 94.3992 317.545 93.0602 317.545H92.2152ZM112.143 316.336H113.495V308.64H103.823V309.849H112.143V316.336ZM103.147 318.819H114.236V317.61H103.147V318.819ZM120.15 308.224H118.837V310.005H115.899V311.149H123.101V310.005H120.15V308.224ZM127.261 312.748H125.701V308.25H124.414V319.352H125.701V313.983H127.261V312.748ZM119.5 312.033C117.693 312.033 116.406 313.385 116.406 315.426C116.406 317.467 117.693 318.819 119.5 318.819C121.307 318.819 122.581 317.467 122.581 315.426C122.581 313.385 121.307 312.033 119.5 312.033ZM119.5 317.701C118.46 317.701 117.654 316.843 117.654 315.426C117.654 314.009 118.46 313.151 119.5 313.151C120.527 313.151 121.333 314.009 121.333 315.426C121.333 316.843 120.527 317.701 119.5 317.701ZM137.335 316.505H138.609V308.25H137.335V309.485H135.515V310.629H137.335V312.189H135.515V313.333H137.335V316.505ZM134.865 308.523H128.625V314.529H134.865V308.523ZM133.591 313.411H129.886V309.641H133.591V313.411ZM130.471 318.052V315.608H129.158V319.209H138.843V318.052H130.471ZM154.354 310.525V308.25H153.067V314.386H154.354V311.76H155.914V310.525H154.354ZM152.261 313.255V312.163C151.546 312.475 150.272 312.657 148.764 312.657H145.982V309.615H151.468V308.523H144.695V313.749H148.686C150.259 313.749 151.585 313.554 152.261 313.255ZM149.765 314.75C147.113 314.75 145.007 315.387 145.007 317.051C145.007 318.715 147.113 319.352 149.765 319.352C152.43 319.352 154.523 318.715 154.523 317.051C154.523 315.387 152.43 314.75 149.765 314.75ZM149.765 318.286C147.88 318.286 146.385 317.909 146.385 317.051C146.385 316.206 147.88 315.816 149.765 315.816C151.663 315.816 153.145 316.206 153.145 317.051C153.145 317.909 151.663 318.286 149.765 318.286ZM160.593 312.462L163.869 314.529L164.48 313.567L161.113 311.474C161.243 311.11 161.334 310.746 161.386 310.369H164.285V309.29H161.386V308.055H160.086V309.29H157.148V310.369H160.073C159.839 311.955 158.734 313.229 157.031 313.476V314.594C158.578 314.425 159.839 313.606 160.593 312.462ZM165.975 308.25V310.941H163.843V312.085H165.975V314.75H167.262V308.25H165.975ZM157.811 319.209H167.262V315.361H157.811V319.209ZM159.098 316.414H165.975V318.156H159.098V316.414ZM180.421 309.069H177.327V307.938H176.001V309.069H172.998V310.031H180.421V309.069ZM184.568 311.214H183.034V308.25H181.747V315.868H183.034V312.41H184.568V311.214ZM180.824 315.205V314.204C180.135 314.503 178.783 314.633 177.314 314.646V313.853C178.926 313.736 179.888 313.125 179.888 312.202C179.888 311.175 178.679 310.525 176.69 310.525C174.701 310.525 173.492 311.175 173.492 312.202C173.492 313.125 174.441 313.723 176.04 313.853V314.646H172.959V315.634H177.132C178.705 315.634 180.122 315.504 180.824 315.205ZM174.701 312.202C174.701 311.773 175.364 311.461 176.69 311.461C178.003 311.461 178.666 311.773 178.666 312.202C178.666 312.644 178.003 312.969 176.69 312.969C175.364 312.969 174.701 312.644 174.701 312.202ZM173.674 317.467H181.747V319.352H183.034V316.466H173.674V317.467ZM195.916 311.591H187.518V310.876H195.76V308.38H186.27V309.29H194.512V310.018H186.27V312.501H195.916V311.591ZM196.553 314.165V313.255H185.464V314.165H188.285V315.153H186.205V316.063H194.538V316.752H186.231V319.222H195.981V318.312H187.479V317.61H195.786V315.153H193.719V314.165H196.553ZM192.471 315.153H189.533V314.165H192.471V315.153ZM207.042 319.352H208.342V308.25H207.042V319.352ZM201.803 318.832C203.766 318.832 205.157 317.194 205.157 313.671C205.157 310.148 203.766 308.51 201.803 308.51C199.827 308.51 198.436 310.148 198.436 313.671C198.436 317.194 199.827 318.832 201.803 318.832ZM201.803 317.649C200.62 317.649 199.723 316.492 199.723 313.671C199.723 310.863 200.62 309.693 201.803 309.693C202.96 309.693 203.87 310.863 203.87 313.671C203.87 316.492 202.96 317.649 201.803 317.649ZM235.774 316.193H236.762L237.1 308.666H235.449L235.774 316.193ZM236.268 319.287C236.814 319.287 237.23 318.871 237.23 318.325C237.23 317.792 236.814 317.376 236.268 317.376C235.722 317.376 235.306 317.792 235.306 318.325C235.306 318.871 235.722 319.287 236.268 319.287Z" fill="#2B1E34"/>
<path d="M217.588 308.289C215.352 308.289 213.779 309.849 213.779 311.929H216.106C216.106 311.123 216.626 310.343 217.588 310.343C218.615 310.343 219.044 310.863 219.044 311.643C219.044 312.241 218.745 312.93 217.471 314.243L214 317.818V319.17H221.579V317.168H217.458L218.979 315.595C220.838 313.671 221.371 312.722 221.371 311.617C221.371 309.693 219.967 308.289 217.588 308.289ZM231.706 308.25V312.332H230.783V308.302H228.755V319.157H230.783V314.412H231.706V319.352H233.76V308.25H231.706ZM225.947 311.786H224.907V308.51H222.905V318.832H227.949V308.51H225.947V311.786ZM224.907 316.856V313.749H225.947V316.856H224.907Z" fill="#9E30F4"/>
</g>
<defs>
<linearGradient id="paint0_linear_2546_10809" x1="1898" y1="-335" x2="375" y2="375" gradientUnits="userSpaceOnUse">
<stop stop-color="#9E30F4"/>
<stop offset="1" stop-color="#FFEBEF"/>
</linearGradient>
<clipPath id="clip0_2546_10809">
<rect width="375" height="375" fill="white"/>
</clipPath>
</defs>
</svg>
