<svg width="375" height="375" viewBox="0 0 375 375" fill="none" xmlns="http://www.w3.org/2000/svg">
    <g clip-path="url(#9cit1bhwwa)">
        <path fill="#fff" d="M0 0h375v375H0z"/>
        <path transform="rotate(90 375 0)" fill="url(#skxf3cbuvb)" d="M375 0h375v375H375z"/>
        <path d="m31.392 51.486 5.06 2.618 1.606-2.772-4.994-2.53c.11-.308.198-.616.286-.924h4.224v-2.992h-4.136V43.17h-3.784v1.716h-4.136v2.992h4.004c-.55 1.65-2.046 3.08-4.224 3.256v3.124c2.508-.066 4.642-1.21 6.094-2.772zm13.53-4.576h-2.2V43.5h-3.718v10.846h3.718v-3.828h2.2V46.91zM26.134 62.288h16.588v-7.282H26.134v7.282zm3.696-4.378h9.196v1.474H29.83V57.91zM60.848 43.5v3.982h-2.134l.242 3.476h1.892v3.322h-1.892l-.242 3.476h2.134v4.532H64.5V43.5h-3.652zm-8.36.22c-3.476 0-5.786 2.772-5.786 8.954s2.31 8.954 5.786 8.954c3.476 0 5.764-2.772 5.764-8.954s-2.288-8.954-5.764-8.954zm0 14.498c-1.232 0-2.134-1.32-2.134-5.544 0-4.202.902-5.544 2.134-5.544 1.21 0 2.112 1.342 2.112 5.544 0 4.224-.902 5.544-2.112 5.544zm32.558-11.484V43.5h-3.718v10.604h3.718v-3.762h2.2v-3.608h-2.2zm-5.764-3.014h-3.608v1.87h-4.246v-1.87H67.82v9.68h11.462v-9.68zm-7.854 6.688v-1.914h4.246v1.914h-4.246zm5.324 4.004c-4.73 0-8.47 1.034-8.47 4.048 0 3.014 3.74 4.048 8.47 4.048s8.47-1.034 8.47-4.048c0-3.014-3.74-4.048-8.47-4.048zm0 5.17c-2.486 0-4.466-.286-4.466-1.122 0-.814 1.98-1.122 4.466-1.122s4.466.308 4.466 1.122c0 .836-1.98 1.122-4.466 1.122zM103.106 43.5v3.146h-2.552V43.72h-3.608v1.848H92.7V43.72h-3.608v9.46h11.462v-3.058h2.552v3.41h3.718V43.5h-3.718zM92.7 50.276v-1.892h4.246v1.892H92.7zm10.472 5.06h-9.504v-1.144h-3.652v8.096h16.808v-8.096h-3.652v1.144zm-9.504 4.07v-1.254h9.504v1.254h-9.504zM74.11 97.981l4.745 3.289.702-1.027-4.888-3.289c.364-.741.624-1.56.78-2.418l-1.326-.234c-.572 3.107-2.782 5.707-5.187 5.707v1.222c2.041 0 3.926-1.287 5.174-3.25zm-5.395 5.629v1.209h11.089v-1.209H68.715zm21.67-9.36v2.041H88.46v1.17h1.924v2.912h1.287V94.25h-1.287zm-8.71 2.613v3.367h3.835c1.573 0 2.899-.195 3.575-.494v-1.04c-.715.312-1.99.494-3.497.494h-2.64v-1.313h4.785v-3.354h-6.084v1.04h4.81v1.3h-4.784zm8.684 5.148h-6.864v-1.027H82.22v4.225h9.412v-4.225h-1.274v1.027zm-6.864 2.171v-1.157h6.864v1.157h-6.864zm22.856-6.032h1.287v-3.77h-9.529v1.092h8.242v2.678zm-3.523.78v-2.171h-1.3v2.171h-4.16v1.066h11.089V98.93h-5.629zm.078 2.106c-2.652 0-4.875.559-4.875 2.158 0 1.56 2.223 2.171 4.875 2.171s4.875-.611 4.875-2.171c0-1.547-2.223-2.158-4.875-2.158zm0 3.302c-1.794 0-3.523-.351-3.523-1.144 0-.819 1.729-1.131 3.523-1.131s3.523.351 3.523 1.131c0 .793-1.729 1.144-3.523 1.144zm16.041-10.088v6.63h1.287v-6.63h-1.287zm-5.174 3.809 3.315 2.34.728-.936-3.523-2.444a7.093 7.093 0 0 0 .481-2.587l-1.287-.078c-.026 2.483-1.339 4.628-3.445 5.005v1.196c1.599-.208 2.899-1.157 3.731-2.496zm-3.055 4.55h8.216v2.743h1.3v-3.861h-9.516v1.118zm24.378-.117h1.287V94.25h-1.287v8.242zm-5.447-1.677c2.171 0 3.51-1.365 3.51-3.224 0-1.859-1.339-3.224-3.51-3.224s-3.523 1.365-3.523 3.224c0 1.859 1.352 3.224 3.523 3.224zm0-1.092c-1.326 0-2.236-.819-2.236-2.132 0-1.313.91-2.145 2.236-2.145 1.313 0 2.223.832 2.223 2.145 0 1.313-.91 2.132-2.223 2.132zm-2.548 5.486h9.581v-1.17h-8.268v-2.457h-1.313v3.627zm16.821-7.228 4.745 3.289.702-1.027-4.888-3.289c.364-.741.624-1.56.78-2.418l-1.326-.234c-.572 3.107-2.782 5.707-5.187 5.707v1.222c2.041 0 3.926-1.287 5.174-3.25zm-5.395 5.629v1.209h11.089v-1.209h-11.089zm24.113-4.862h-1.56V94.25h-1.287v11.102h1.287v-5.369h1.56v-1.235zm-9.802 4.758v-3.328h4.927v-1.183h-4.927v-3.159h5.122v-1.183h-6.409v10.036h4.368c1.066 0 2.236-.195 2.912-.533v-1.17c-.676.312-1.82.52-2.873.52h-3.12zm19.694-1.17h1.352V94.64h-9.672v1.209h8.32v6.487zm-8.996 2.483h11.089v-1.209h-11.089v1.209zm21.956-10.569v2.366h-1.807v-2.301h-1.222v6.422h1.222v-2.951h1.807v3.068h1.222V94.25h-1.222zm-3.783 5.772v-1.014c-.728.299-1.807.416-3.042.416h-1.092v-1.482h3.51v-3.419h-4.706v1.014h3.51v1.43h-3.51v3.471h2.197c1.274 0 2.405-.117 3.133-.416zm-4.693 5.187h9.698v-3.744h-9.698v3.744zm1.274-2.717h7.163v1.69h-7.163v-1.69zm23.364-8.242v11.102h1.209V94.25h-1.209zm-2.73 2.782h-1.898v-2.379h-4.589v1.17h3.341v1.885c0 3.432-1.274 5.681-3.341 5.746v1.209c1.69-.013 3.068-1.079 3.861-2.938h2.626v3.432h1.209V94.315h-1.209v2.717zm-2.236 3.497c.182-.689.286-1.469.325-2.301h1.911v2.301h-2.236zm15.013-4.186v1.118h2.158v3.029h1.287v-6.24h-1.287v2.093h-2.158zm-3.094 1.625 3.263 2.093.637-.962-3.419-2.158c.13-.416.221-.845.247-1.3h2.808v-1.105h-7.085v1.105h2.99c-.156 1.807-1.3 3.12-3.133 3.367v1.157c1.638-.156 2.925-.988 3.692-2.197zm1.833 2.886c-2.691 0-4.797.624-4.797 2.249s2.106 2.249 4.797 2.249 4.797-.624 4.797-2.249-2.106-2.249-4.797-2.249zm0 3.445c-1.911 0-3.432-.377-3.432-1.196s1.521-1.196 3.432-1.196 3.432.377 3.432 1.196-1.521 1.196-3.432 1.196zM70.925 125.586h1.443c-1.495-1.521-2.535-3.497-2.535-5.798s1.04-4.277 2.535-5.798h-1.443c-1.443 1.56-2.418 3.432-2.418 5.798s.975 4.238 2.418 5.798zm8.26.949c1.417 0 2.704-.351 3.51-.975v-1.313c-.845.533-1.963.78-3.51.78-2.665 0-4.485-1.963-4.485-4.602 0-2.613 1.833-4.602 4.524-4.602 2.743 0 4.381 1.768 4.381 4.173 0 1.326-.403 2.132-1.014 2.132-.39 0-.559-.325-.559-.767v-3.731h-1.78v.585c-.339-.468-.859-.741-1.574-.741-1.664 0-2.795 1.248-2.795 3.016 0 1.729 1.131 2.964 2.795 2.964.754 0 1.3-.286 1.664-.819l.065.117c.325.572.975.975 1.755.975 1.846 0 3.198-1.651 3.198-3.757 0-3.042-2.249-5.629-6.136-5.629-3.809 0-6.279 2.808-6.279 6.084 0 3.406 2.483 6.11 6.24 6.11zm-.247-4.615c-.74 0-1.235-.611-1.235-1.43 0-.871.494-1.456 1.235-1.456.78 0 1.287.585 1.287 1.456 0 .819-.507 1.43-1.287 1.43zm7.163 3.588v1.846h5.63v-1.846H86.1zm10.14-8.138c-1.937 0-3.484.936-3.484 2.418 0 1.547 1.196 2.106 3.016 2.379 1.313.195 1.833.429 1.833.793 0 .351-.546.624-1.287.624-.728 0-1.3-.325-1.378-.819h-2.236c.078 1.599 1.586 2.587 3.575 2.587 1.937 0 3.575-.962 3.575-2.522 0-1.313-.806-2.054-3.055-2.392-1.3-.208-1.807-.39-1.807-.767 0-.338.507-.585 1.209-.585.676 0 1.209.286 1.287.754h2.236c-.091-1.508-1.586-2.47-3.484-2.47zm7.292-3.12h-2.314v10.92h2.314v-10.92zm4.595 11.102c.975 0 1.677-.351 2.132-.962v.78h2.314v-7.618h-2.314v3.913c0 1.183-.546 1.898-1.456 1.898-.871 0-1.339-.637-1.339-1.794v-4.017h-2.314v4.407c0 2.106 1.209 3.393 2.977 3.393zm11.366-7.8-1.703 4.966-1.703-4.966h-2.509l2.925 7.618h2.405l2.925-7.618h-2.34zm2.929 7.956v1.846h5.629v-1.846h-5.629zm9.268-11.258h-2.314v10.92h2.314v-10.92zm4.596 11.102c.975 0 1.677-.351 2.132-.962v.78h2.314v-7.618h-2.314v3.913c0 1.183-.546 1.898-1.456 1.898-.871 0-1.339-.637-1.339-1.794v-4.017h-2.314v4.407c0 2.106 1.209 3.393 2.977 3.393zm11.365-7.8-1.703 4.966-1.703-4.966h-2.509l2.925 7.618h2.405l2.925-7.618h-2.34zm2.773 8.034h1.43c1.456-1.56 2.418-3.432 2.418-5.798s-.962-4.238-2.418-5.798h-1.43c1.495 1.521 2.522 3.497 2.522 5.798s-1.027 4.277-2.522 5.798zm10.613-7.332c2.678 0 4.875-.546 4.875-2.028 0-1.469-2.197-2.015-4.875-2.015s-4.875.546-4.875 2.015c0 1.482 2.197 2.028 4.875 2.028zm0-.988c-1.937 0-3.549-.299-3.549-1.04 0-.728 1.612-1.04 3.549-1.04 1.937 0 3.549.312 3.549 1.04 0 .741-1.612 1.04-3.549 1.04zm-5.538 2.678h11.089v-1.001H155.5v1.001zm.767 5.278h9.75v-.962h-8.489v-.78h8.294v-2.652h-9.581v.962h8.32v.78h-8.294v2.652zm25.431-8.983v-1.989h-1.287v5.564h1.287v-2.392h1.56v-1.183h-1.56zm-2.106 2.665v-1.027c-.455.195-1.066.325-1.82.416v-2.73h1.339v-1.04h-7.41v1.04h1.339v2.808h-1.378v1.04h4.29c1.612 0 2.951-.208 3.64-.507zm-5.304-3.341h2.236v2.808h-2.236v-2.808zm-.585 7.722h7.995v-2.86h-9.295v1.001h8.021v.91h-7.995v2.873h9.542v-1.001h-8.268v-.923zm16.625.351v-2.093h4.355v-1.144h-8.502v-1.755h8.333v-3.991h-9.62v1.144h8.346v1.742h-8.346v4.004h4.121v2.093h-4.862v1.183h11.089v-1.183h-4.914zm11.868-3.354c2.977 0 4.94-1.118 4.94-2.964 0-1.846-1.963-2.964-4.94-2.964-2.977 0-4.94 1.118-4.94 2.964 0 1.846 1.963 2.964 4.94 2.964zm0-4.771c2.106 0 3.601.65 3.601 1.807s-1.495 1.807-3.601 1.807-3.601-.65-3.601-1.807 1.495-1.807 3.601-1.807zm5.551 5.798h-11.089v1.196h4.875v3.107h1.313v-3.107h4.901v-1.196zm8.917-6.006h-3.12v-1.248h-1.3v1.248h-3.12v1.053h7.54v-1.053zm2.548 1.989v-3.042h-1.287v8.32h1.287v-4.043h1.56v-1.235h-1.56zm-6.318 4.238c1.846 0 3.276-.819 3.276-2.275s-1.43-2.275-3.276-2.275c-1.846 0-3.289.819-3.289 2.275s1.443 2.275 3.289 2.275zm0-3.562c1.248 0 2.041.546 2.041 1.287 0 .754-.793 1.287-2.041 1.287-1.248 0-2.041-.533-2.041-1.287 0-.741.793-1.287 2.041-1.287zm-1.664 4.199h-1.3v3.042h9.581v-1.144h-8.281v-1.898zm22.047-3.419h-1.56v-4.498h-1.287v11.102h1.287v-5.369h1.56v-1.235zm-9.776 4.771v-7.696h5.096v-1.17h-6.409v10.036h4.342c1.066 0 2.262-.195 2.938-.533v-1.17c-.676.325-1.82.533-2.873.533h-3.094zm11.634 1.729a.9.9 0 0 0 .91-.923.9.9 0 0 0-.91-.923.91.91 0 0 0-.923.923c0 .52.403.923.923.923zM74.11 159.981l4.745 3.289.702-1.027-4.888-3.289c.364-.741.624-1.56.78-2.418l-1.326-.234c-.572 3.107-2.782 5.707-5.187 5.707v1.222c2.041 0 3.926-1.287 5.174-3.25zm-5.395 5.629v1.209h11.089v-1.209H68.715zm21.67-9.36v2.041H88.46v1.17h1.924v2.912h1.287v-6.123h-1.287zm-8.71 2.613v3.367h3.835c1.573 0 2.899-.195 3.575-.494v-1.04c-.715.312-1.99.494-3.497.494h-2.64v-1.313h4.785v-3.354h-6.084v1.04h4.81v1.3h-4.784zm8.684 5.148h-6.864v-1.027H82.22v4.225h9.412v-4.225h-1.274v1.027zm-6.864 2.171v-1.157h6.864v1.157h-6.864zm22.947-1.69h1.287v-8.242h-1.287v8.242zm-5.447-1.677c2.171 0 3.51-1.365 3.51-3.224 0-1.859-1.339-3.224-3.51-3.224-2.17 0-3.523 1.365-3.523 3.224 0 1.859 1.352 3.224 3.523 3.224zm0-1.092c-1.326 0-2.236-.819-2.236-2.132 0-1.313.91-2.145 2.236-2.145 1.313 0 2.223.832 2.223 2.145 0 1.313-.91 2.132-2.223 2.132zm-2.548 5.486h9.581v-1.17H99.76v-2.457h-1.313v3.627zm16.821-7.228 4.745 3.289.702-1.027-4.888-3.289c.364-.741.624-1.56.78-2.418l-1.326-.234c-.572 3.107-2.782 5.707-5.187 5.707v1.222c2.041 0 3.926-1.287 5.174-3.25zm-5.395 5.629v1.209h11.089v-1.209h-11.089zm24.114-4.862h-1.56v-4.498h-1.287v11.102h1.287v-5.369h1.56v-1.235zm-9.802 4.758v-3.328h4.927v-1.183h-4.927v-3.159h5.122v-1.183h-6.409v10.036h4.368c1.066 0 2.236-.195 2.912-.533v-1.17c-.676.312-1.82.52-2.873.52h-3.12zm23.403-9.256v11.102h1.287V156.25h-1.287zm-2.717 1.573h1.261v-1.17h-7.306v1.17h1.248v7.696h-1.313v1.17h4.277c1.586 0 2.938-.26 3.666-.637v-1.183c-.494.247-1.105.429-1.833.533v-7.579zm-3.523 7.696v-7.696h2.262v7.683c-.182.013-.364.013-.559.013h-1.703zm10.411-2.314h9.763v-1.196h-8.45v-4.16h8.32v-1.196h-9.633v6.552zm-.728 3.614h11.089v-1.209h-11.089v1.209zm21.956-10.569v11.102h1.222V156.25h-1.222zm-2.678 4.628h-1.482c-.13-3.029-1.014-4.368-2.561-4.368-1.677 0-2.587 1.573-2.587 5.161 0 3.588.91 5.161 2.587 5.161 1.612 0 2.496-1.443 2.574-4.732h1.469v5.057h1.209v-10.842h-1.209v4.563zm-4.043 4.784c-.923 0-1.365-1.261-1.365-3.991 0-2.73.442-3.991 1.365-3.991s1.352 1.261 1.352 3.991c0 2.73-.429 3.991-1.352 3.991zm18.94-9.412v4.017h-2.86v1.209h2.86v5.876h1.287V156.25h-1.287zm-4.524.325-1.313-.052c-.013 4.667-1.105 8.502-3.237 8.853v1.313c1.755-.143 3.094-1.716 3.848-4.342l2.769 4.368 1.079-.702-3.471-5.304a24.93 24.93 0 0 0 .325-4.134zM80.324 180.748h-1.56v-4.498h-1.287v11.102h1.287v-5.369h1.56v-1.235zm-11.089 5.941h6.175v-10.036h-6.175v10.036zm1.287-8.84h3.601v7.644h-3.601v-7.644zm16.236 2.613c2.69 0 4.9-.624 4.9-2.145 0-1.508-2.21-2.132-4.9-2.132-2.691 0-4.901.624-4.901 2.132 0 1.521 2.21 2.145 4.9 2.145zm0-1.027c-1.937 0-3.536-.338-3.536-1.118 0-.767 1.599-1.118 3.536-1.118s3.536.351 3.536 1.118c0 .78-1.6 1.118-3.536 1.118zm-5.538 2.938h11.089v-1.04h-11.09v1.04zm.767 4.849h9.542v-3.77h-9.542v3.77zm1.287-1.027v-1.716h6.98v1.716h-6.98zm19.902-9.945v11.102h1.222V176.25h-1.222zm-2.678 4.628h-1.482c-.13-3.029-1.014-4.368-2.561-4.368-1.677 0-2.587 1.573-2.587 5.161 0 3.588.91 5.161 2.587 5.161 1.612 0 2.496-1.443 2.574-4.732h1.469v5.057h1.209v-10.842h-1.209v4.563zm-4.043 4.784c-.923 0-1.365-1.261-1.365-3.991 0-2.73.442-3.991 1.365-3.991s1.352 1.261 1.352 3.991c0 2.73-.43 3.991-1.352 3.991zm14.146-2.457h9.763v-1.196h-8.45v-4.16h8.32v-1.196h-9.633v6.552zm-.728 3.614h11.089v-1.209h-11.089v1.209zm13.298-6.266h9.607v-1.144h-8.307v-3.159h-1.3v4.303zm-.793 2.366h11.089v-1.144h-11.089v1.144zm.767 4.303h9.75v-1.144h-8.437v-2.171h-1.313v3.315zm24.82-10.972v11.102h1.235V176.25h-1.235zm-2.769 4.472h-1.82c.026-.351.039-.702.039-1.079v-2.99h-4.641v1.17h3.393v1.885c0 3.432-1.326 5.681-3.393 5.746v1.209c2.197-.026 3.874-1.781 4.433-4.719h1.989v5.213h1.222v-10.842h-1.222v4.407zm14.909-4.472v11.102h1.287V176.25h-1.287zm-4.108.325-1.313-.052c-.013 4.667-1.235 8.515-3.458 8.866v1.3c1.755-.13 3.107-1.612 3.926-4.056l2.951 4.03 1.04-.741-3.588-4.784c.286-1.326.429-2.86.442-4.563zm17.822-.195h-9.49v3.601h9.49v-3.601zm-1.274 2.613h-6.929v-1.625h6.929v1.625zm2.08 2.834v-1.001h-11.089v1.001h4.901v1.001h-4.16v.962h8.32v.78h-8.294v2.652h9.75v-.962h-8.489v-.78h8.294v-2.652h-4.147v-1.001h4.914zm6.954-1.573c2.678 0 4.875-.546 4.875-2.028 0-1.469-2.197-2.015-4.875-2.015s-4.875.546-4.875 2.015c0 1.482 2.197 2.028 4.875 2.028zm0-.988c-1.937 0-3.549-.299-3.549-1.04 0-.728 1.612-1.04 3.549-1.04 1.937 0 3.549.312 3.549 1.04 0 .741-1.612 1.04-3.549 1.04zm-5.538 2.678h11.089v-1.001h-11.089v1.001zm.767 5.278h9.75v-.962h-8.489v-.78h8.294v-2.652h-9.581v.962h8.32v.78h-8.294v2.652zm24.391-3.25h1.339v-7.332h-9.672v1.209h8.333v6.123zm-3.549 1.638v-4.953h-1.326v4.953h-4.134v1.209h11.089v-1.209h-5.629zm7.85-4.082h9.646v-1.014h-8.372v-1.066h8.216v-3.068h-9.49v1.014h8.229v1.066H205.5v3.068zm-.806 2.067h11.089v-1.04h-11.089v1.04zm.767 3.627h9.75v-1.066h-8.437v-1.69h-1.313v2.756zm23.347-6.474h-1.56v-4.498h-1.287v11.102h1.287v-5.369h1.56v-1.235zm-9.776 4.771v-7.696h5.096v-1.17h-6.409v10.036h4.342c1.066 0 2.262-.195 2.938-.533v-1.17c-.676.325-1.82.533-2.873.533h-3.094zm11.634 1.729a.9.9 0 0 0 .91-.923.9.9 0 0 0-.91-.923.91.91 0 0 0-.923.923c0 .52.403.923.923.923zM72.069 218.224h-1.274v1.755h-2.327v1.157h5.928v-1.157h-2.327v-1.755zm6.123.026v4.472h-1.781v-4.407h-1.196v10.842h1.196v-5.226h1.781v5.421h1.196V218.25h-1.196zm-6.708 3.757c-1.482 0-2.574 1.196-2.574 3.406s1.092 3.406 2.574 3.406c1.495 0 2.587-1.196 2.587-3.406s-1.092-3.406-2.587-3.406zm0 5.681c-.793 0-1.378-.819-1.378-2.275s.585-2.275 1.378-2.275c.806 0 1.404.819 1.404 2.275s-.598 2.275-1.404 2.275zm19.785-7.163v-2.275h-1.287v6.136h1.287v-2.626h1.56v-1.235h-1.56zm-2.093 2.73v-1.092c-.715.312-1.99.494-3.497.494h-2.782v-3.042h5.486v-1.092H81.61v5.226h3.99c1.574 0 2.9-.195 3.576-.494zm-2.496 1.495c-2.652 0-4.758.637-4.758 2.301 0 1.664 2.106 2.301 4.758 2.301 2.665 0 4.758-.637 4.758-2.301 0-1.664-2.093-2.301-4.758-2.301zm0 3.536c-1.885 0-3.38-.377-3.38-1.235 0-.845 1.495-1.235 3.38-1.235 1.898 0 3.38.39 3.38 1.235 0 .858-1.482 1.235-3.38 1.235zm20.126-10.036v11.102h1.235V218.25h-1.235zm-2.769 4.472h-1.82c.026-.351.039-.702.039-1.079v-2.99h-4.64v1.17h3.392v1.885c0 3.432-1.326 5.681-3.393 5.746v1.209c2.197-.026 3.874-1.781 4.433-4.719h1.989v5.213h1.222v-10.842h-1.222v4.407zm14.91-4.472v11.102h1.287V218.25h-1.287zm-4.108.325-1.313-.052c-.013 4.667-1.235 8.515-3.458 8.866v1.3c1.755-.13 3.107-1.612 3.926-4.056l2.951 4.03 1.04-.741-3.588-4.784c.286-1.326.429-2.86.442-4.563zm17.822-.195h-9.49v3.601h9.49v-3.601zm-1.274 2.613h-6.929v-1.625h6.929v1.625zm2.08 2.834v-1.001h-11.089v1.001h4.901v1.001h-4.16v.962h8.32v.78h-8.294v2.652h9.75v-.962h-8.489v-.78h8.294v-2.652h-4.147v-1.001h4.914zm6.954-1.573c2.678 0 4.875-.546 4.875-2.028 0-1.469-2.197-2.015-4.875-2.015s-4.875.546-4.875 2.015c0 1.482 2.197 2.028 4.875 2.028zm0-.988c-1.937 0-3.549-.299-3.549-1.04 0-.728 1.612-1.04 3.549-1.04 1.937 0 3.549.312 3.549 1.04 0 .741-1.612 1.04-3.549 1.04zm-5.538 2.678h11.089v-1.001h-11.089v1.001zm.767 5.278h9.75v-.962h-8.489v-.78h8.294v-2.652h-9.581v.962h8.32v.78h-8.294v2.652zm20.776-7.241 4.745 3.289.702-1.027-4.888-3.289c.364-.741.624-1.56.78-2.418l-1.326-.234c-.572 3.107-2.782 5.707-5.187 5.707v1.222c2.041 0 3.926-1.287 5.174-3.25zm-5.395 5.629v1.209h11.089v-1.209h-11.089zm18.667.039v-2.054h4.368v-1.144h-8.502v-1.781h8.19v-1.131h-8.19v-1.742h8.333v-1.144h-9.62v6.942h4.121v2.054h-4.862v1.17h11.089v-1.17h-4.927zm15.417 1.703h1.287V218.25h-1.287v11.102zm-8.437-.663h4.498c1.079 0 2.236-.195 2.912-.533v-1.183c-.676.325-1.82.533-2.873.533h-3.25v-3.328h4.966v-5.525h-6.279v1.183h4.992v3.159h-4.966v5.694zm21.319-10.439v11.102h1.222V218.25h-1.222zm-2.678 4.628h-1.482c-.13-3.029-1.014-4.368-2.561-4.368-1.677 0-2.587 1.573-2.587 5.161 0 3.588.91 5.161 2.587 5.161 1.612 0 2.496-1.443 2.574-4.732h1.469v5.057h1.209v-10.842h-1.209v4.563zm-4.043 4.784c-.923 0-1.365-1.261-1.365-3.991 0-2.73.442-3.991 1.365-3.991s1.352 1.261 1.352 3.991c0 2.73-.429 3.991-1.352 3.991zm22.401-5.512h1.287v-3.77h-9.529v1.092h8.242v2.678zm-3.523.78v-2.171h-1.3v2.171h-4.16v1.066h11.089v-1.066h-5.629zm.078 2.106c-2.652 0-4.875.559-4.875 2.158 0 1.56 2.223 2.171 4.875 2.171s4.875-.611 4.875-2.171c0-1.547-2.223-2.158-4.875-2.158zm0 3.302c-1.794 0-3.523-.351-3.523-1.144 0-.819 1.729-1.131 3.523-1.131s3.523.351 3.523 1.131c0 .793-1.729 1.144-3.523 1.144zm12.505-4.134c2.977 0 4.94-1.066 4.94-2.925 0-1.859-1.963-2.925-4.94-2.925-2.977 0-4.94 1.066-4.94 2.925 0 1.859 1.963 2.925 4.94 2.925zm0-4.706c2.106 0 3.601.624 3.601 1.781 0 1.144-1.495 1.768-3.601 1.768s-3.601-.624-3.601-1.768c0-1.157 1.495-1.781 3.601-1.781zm5.551 5.759h-11.089v1.209h2.73v3.146h1.274v-3.146h3.068v3.146h1.274v-3.146h2.743v-1.209zm5.914-7.033h-1.313v1.781h-2.938v1.144h7.202v-1.144h-2.951v-1.781zm7.111 4.524h-1.56v-4.498h-1.287v11.102h1.287v-5.369h1.56v-1.235zm-7.761-.715c-1.807 0-3.094 1.352-3.094 3.393 0 2.041 1.287 3.393 3.094 3.393s3.081-1.352 3.081-3.393c0-2.041-1.274-3.393-3.081-3.393zm0 5.668c-1.04 0-1.846-.858-1.846-2.275 0-1.417.806-2.275 1.846-2.275 1.027 0 1.833.858 1.833 2.275 0 1.417-.806 2.275-1.833 2.275zm17.666-1.729h1.339v-7.332h-9.672v1.209h8.333v6.123zm-3.549 1.638v-4.953h-1.326v4.953h-4.134v1.209h11.089v-1.209h-5.629zm8.761-.156h-1.3l-.416 2.938h1.066l.65-2.938zM74.11 241.981l4.745 3.289.702-1.027-4.888-3.289c.364-.741.624-1.56.78-2.418l-1.326-.234c-.572 3.107-2.782 5.707-5.187 5.707v1.222c2.041 0 3.926-1.287 5.174-3.25zm-5.395 5.629v1.209h11.089v-1.209H68.715zm21.67-9.36v2.041H88.46v1.17h1.924v2.912h1.287v-6.123h-1.287zm-8.71 2.613v3.367h3.835c1.573 0 2.899-.195 3.575-.494v-1.04c-.715.312-1.99.494-3.497.494h-2.64v-1.313h4.785v-3.354h-6.084v1.04h4.81v1.3h-4.784zm8.684 5.148h-6.864v-1.027H82.22v4.225h9.412v-4.225h-1.274v1.027zm-6.864 2.171v-1.157h6.864v1.157h-6.864zm22.856-6.032h1.287v-3.77h-9.529v1.092h8.242v2.678zm-3.523.78v-2.171h-1.3v2.171h-4.16v1.066h11.089v-1.066h-5.629zm.078 2.106c-2.652 0-4.875.559-4.875 2.158 0 1.56 2.223 2.171 4.875 2.171s4.875-.611 4.875-2.171c0-1.547-2.223-2.158-4.875-2.158zm0 3.302c-1.794 0-3.523-.351-3.523-1.144 0-.819 1.729-1.131 3.523-1.131s3.523.351 3.523 1.131c0 .793-1.729 1.144-3.523 1.144zm16.041-10.088v6.63h1.287v-6.63h-1.287zm-5.174 3.809 3.315 2.34.728-.936-3.523-2.444a7.093 7.093 0 0 0 .481-2.587l-1.287-.078c-.026 2.483-1.339 4.628-3.445 5.005v1.196c1.599-.208 2.899-1.157 3.731-2.496zm-3.055 4.55h8.216v2.743h1.3v-3.861h-9.516v1.118zm24.378-.117h1.287v-8.242h-1.287v8.242zm-5.447-1.677c2.171 0 3.51-1.365 3.51-3.224 0-1.859-1.339-3.224-3.51-3.224s-3.523 1.365-3.523 3.224c0 1.859 1.352 3.224 3.523 3.224zm0-1.092c-1.326 0-2.236-.819-2.236-2.132 0-1.313.91-2.145 2.236-2.145 1.313 0 2.223.832 2.223 2.145 0 1.313-.91 2.132-2.223 2.132zm-2.548 5.486h9.581v-1.17h-8.268v-2.457h-1.313v3.627zm16.821-7.228 4.745 3.289.702-1.027-4.888-3.289c.364-.741.624-1.56.78-2.418l-1.326-.234c-.572 3.107-2.782 5.707-5.187 5.707v1.222c2.041 0 3.926-1.287 5.174-3.25zm-5.395 5.629v1.209h11.089v-1.209h-11.089zm24.113-4.862h-1.56v-4.498h-1.287v11.102h1.287v-5.369h1.56v-1.235zm-9.802 4.758v-3.328h4.927v-1.183h-4.927v-3.159h5.122v-1.183h-6.409v10.036h4.368c1.066 0 2.236-.195 2.912-.533v-1.17c-.676.312-1.82.52-2.873.52h-3.12zm19.694-1.17h1.352v-7.696h-9.672v1.209h8.32v6.487zm-8.996 2.483h11.089v-1.209h-11.089v1.209zm21.956-10.569v2.366h-1.807v-2.301h-1.222v6.422h1.222v-2.951h1.807v3.068h1.222v-6.604h-1.222zm-3.783 5.772v-1.014c-.728.299-1.807.416-3.042.416h-1.092v-1.482h3.51v-3.419h-4.706v1.014h3.51v1.43h-3.51v3.471h2.197c1.274 0 2.405-.117 3.133-.416zm-4.693 5.187h9.698v-3.744h-9.698v3.744zm1.274-2.717h7.163v1.69h-7.163v-1.69zm16.11 3.094h1.443c-1.495-1.521-2.535-3.497-2.535-5.798s1.04-4.277 2.535-5.798H194.4c-1.443 1.56-2.418 3.432-2.418 5.798s.975 4.238 2.418 5.798zm8.26.949c1.417 0 2.704-.351 3.51-.975v-1.313c-.845.533-1.963.78-3.51.78-2.665 0-4.485-1.963-4.485-4.602 0-2.613 1.833-4.602 4.524-4.602 2.743 0 4.381 1.768 4.381 4.173 0 1.326-.403 2.132-1.014 2.132-.39 0-.559-.325-.559-.767v-3.731h-1.781v.585c-.338-.468-.858-.741-1.573-.741-1.664 0-2.795 1.248-2.795 3.016 0 1.729 1.131 2.964 2.795 2.964.754 0 1.3-.286 1.664-.819l.065.117c.325.572.975.975 1.755.975 1.846 0 3.198-1.651 3.198-3.757 0-3.042-2.249-5.629-6.136-5.629-3.809 0-6.279 2.808-6.279 6.084 0 3.406 2.483 6.11 6.24 6.11zm-.247-4.615c-.741 0-1.235-.611-1.235-1.43 0-.871.494-1.456 1.235-1.456.78 0 1.287.585 1.287 1.456 0 .819-.507 1.43-1.287 1.43zm7.163 3.588v1.846h5.629v-1.846h-5.629zm10.139-8.138c-1.937 0-3.484.936-3.484 2.418 0 1.547 1.196 2.106 3.016 2.379 1.313.195 1.833.429 1.833.793 0 .351-.546.624-1.287.624-.728 0-1.3-.325-1.378-.819h-2.236c.078 1.599 1.586 2.587 3.575 2.587 1.937 0 3.575-.962 3.575-2.522 0-1.313-.806-2.054-3.055-2.392-1.3-.208-1.807-.39-1.807-.767 0-.338.507-.585 1.209-.585.676 0 1.209.286 1.287.754h2.236c-.091-1.508-1.586-2.47-3.484-2.47zm7.292-3.12h-2.314v10.92h2.314v-10.92zm4.596 11.102c.975 0 1.677-.351 2.132-.962v.78h2.314v-7.618h-2.314v3.913c0 1.183-.546 1.898-1.456 1.898-.871 0-1.339-.637-1.339-1.794v-4.017h-2.314v4.407c0 2.106 1.209 3.393 2.977 3.393zm11.366-7.8-1.703 4.966-1.703-4.966h-2.509l2.925 7.618h2.405l2.925-7.618h-2.34zm2.928 7.956v1.846h5.629v-1.846h-5.629zm9.268-11.258h-2.314v10.92h2.314v-10.92zm4.596 11.102c.975 0 1.677-.351 2.132-.962v.78h2.314v-7.618h-2.314v3.913c0 1.183-.546 1.898-1.456 1.898-.871 0-1.339-.637-1.339-1.794v-4.017h-2.314v4.407c0 2.106 1.209 3.393 2.977 3.393zm11.366-7.8-1.703 4.966-1.703-4.966h-2.509l2.925 7.618h2.405l2.925-7.618h-2.34zm2.773 8.034h1.43c1.456-1.56 2.418-3.432 2.418-5.798s-.962-4.238-2.418-5.798h-1.43c1.495 1.521 2.522 3.497 2.522 5.798s-1.027 4.277-2.522 5.798zm10.613-7.332c2.678 0 4.875-.546 4.875-2.028 0-1.469-2.197-2.015-4.875-2.015s-4.875.546-4.875 2.015c0 1.482 2.197 2.028 4.875 2.028zm0-.988c-1.937 0-3.549-.299-3.549-1.04 0-.728 1.612-1.04 3.549-1.04 1.937 0 3.549.312 3.549 1.04 0 .741-1.612 1.04-3.549 1.04zm-5.538 2.678h11.089v-1.001h-11.089v1.001zm.767 5.278h9.75v-.962h-8.489v-.78h8.294v-2.652h-9.581v.962h8.32v.78h-8.294v2.652zm24.832-10.972v4.472h-1.807v-4.407h-1.222v10.842h1.222v-5.239h1.807v5.434h1.222V238.25h-1.222zm-7.878 9.295v-3.393h3.471v-1.144h-3.471v-3.211h3.627v-1.144h-4.862v10.036h2.015c1.365 0 2.548-.169 3.276-.494v-1.157c-.819.351-1.872.507-3.211.507h-.845zm19.928-1.209h1.352v-7.696h-9.672v1.209h8.32v6.487zm-8.996 2.483h11.089v-1.209h-11.089v1.209zm20.006-9.516h-3.12v-1.248h-1.3v1.248h-3.12v1.053h7.54v-1.053zm2.548 1.989v-3.042h-1.287v8.32h1.287v-4.043h1.56v-1.235h-1.56zm-6.318 4.238c1.846 0 3.276-.819 3.276-2.275s-1.43-2.275-3.276-2.275c-1.846 0-3.289.819-3.289 2.275s1.443 2.275 3.289 2.275zm0-3.562c1.248 0 2.041.546 2.041 1.287 0 .754-.793 1.287-2.041 1.287-1.248 0-2.041-.533-2.041-1.287 0-.741.793-1.287 2.041-1.287zm-1.664 4.199h-1.3v3.042h9.581v-1.144H322.2v-1.898zm22.047-3.419h-1.56v-4.498H341.4v11.102h1.287v-5.369h1.56v-1.235zm-9.776 4.771v-7.696h5.096v-1.17h-6.409v10.036h4.342c1.066 0 2.262-.195 2.938-.533v-1.17c-.676.325-1.82.533-2.873.533h-3.094zm11.634 1.729a.9.9 0 0 0 .91-.923.9.9 0 0 0-.91-.923.91.91 0 0 0-.923.923c0 .52.403.923.923.923z" fill="#2B1E34"/>
        <ellipse cx="33" cy="100" rx="9" ry="12" fill="#9E30F4"/>
        <ellipse cx="33" cy="162" rx="9" ry="12" fill="#9E30F4"/>
        <ellipse cx="33" cy="224" rx="9" ry="12" fill="#9E30F4"/>
        <ellipse cx="33" cy="286" rx="9" ry="12" fill="#FF365F"/>
        <ellipse cx="42" cy="100" rx="9" ry="12" fill="#9E30F4"/>
        <ellipse cx="42" cy="162" rx="9" ry="12" fill="#9E30F4"/>
        <ellipse cx="42" cy="224" rx="9" ry="12" fill="#9E30F4"/>
        <ellipse cx="42" cy="286" rx="9" ry="12" fill="#FF365F"/>
        <ellipse cx="51" cy="100" rx="9" ry="12" fill="#9E30F4"/>
        <ellipse cx="51" cy="162" rx="9" ry="12" fill="#9E30F4"/>
        <ellipse cx="51" cy="224" rx="9" ry="12" fill="#9E30F4"/>
        <ellipse cx="51" cy="286" rx="9" ry="12" fill="#FF365F"/>
        <path d="M43.26 95.3h-3.9v1.896h1.728v7.884h2.172V95.3zM41.864 157.036c-2.064 0-3.516 1.44-3.516 3.36h2.148c0-.744.48-1.464 1.368-1.464.948 0 1.344.48 1.344 1.2 0 .552-.276 1.188-1.452 2.4l-3.204 3.3v1.248h6.996v-1.848h-3.804l1.404-1.452c1.716-1.776 2.208-2.652 2.208-3.672 0-1.776-1.296-3.072-3.492-3.072zM41.912 219.036c-2.004 0-3.408 1.344-3.408 3.204h2.148c0-.696.396-1.38 1.248-1.38.816 0 1.296.444 1.296 1.164 0 .744-.528 1.224-1.416 1.224h-.972v1.776h.972c1.02 0 1.704.432 1.704 1.248 0 .72-.6 1.212-1.5 1.212-.912 0-1.404-.468-1.488-1.248h-2.148c.156 1.884 1.488 3.084 3.636 3.084 2.028 0 3.624-1.176 3.624-3.06 0-1.26-1.008-2.04-1.908-2.184.816-.144 1.644-.972 1.644-2.1 0-1.752-1.404-2.94-3.432-2.94zM39.112 283.048H37.72v-2.088h-2.136v2.088h-1.392v1.836h1.392v5.196h2.136v-5.196h1.392v-1.836zm2.069-3.396c-.756 0-1.308.552-1.308 1.308s.552 1.308 1.308 1.308 1.308-.552 1.308-1.308-.552-1.308-1.308-1.308zm1.068 3.396h-2.136v7.056h2.136v-7.056zm1.602 9.96h2.136v-3.648c.42.564 1.092.888 2.016.888 2.016 0 3.42-1.548 3.42-3.684s-1.404-3.684-3.42-3.684c-.924 0-1.596.324-2.016.888v-.72H43.85v9.96zm3.816-4.584c-1.044 0-1.716-.78-1.716-1.86s.672-1.86 1.716-1.86c1.02 0 1.668.78 1.668 1.86s-.648 1.86-1.668 1.86z" fill="#fff"/>
        <path fill-rule="evenodd" clip-rule="evenodd" d="M73.953 289.089c-.017.301-.026.605-.026.911v29c0 8.837 7.164 16 16 16h190c8.837 0 16-7.163 16-16v-29c0-8.837-7.163-16-16-16h-190c-5.537 0-10.417 2.813-13.29 7.087l-6.853.797c-1.83.212-2.44 2.571-.937 3.624l5.106 3.581z" fill="#F8EEFF"/>
        <path d="m100.964 293.098.312-.962-4.55-1.183c.117-.182.208-.377.273-.585h3.965v-.988h-9.568v.988h4.277c-.507 1.066-2.613 1.625-4.459 1.677v1.001c1.755-.039 3.588-.481 4.732-1.3l5.018 1.352zm-4.147.715v-1.066h-1.274v1.066h-4.9v.988h11.088v-.988h-4.914zm.013 1.43h-1.3v.702h-4.316v.975h9.919v-.975H96.83v-.702zm-.663 2.21c-2.99 0-4.446.481-4.446 1.482s1.456 1.482 4.446 1.482c3.003 0 4.459-.481 4.459-1.482s-1.456-1.482-4.459-1.482zm0 2.054c-1.963 0-3.146-.195-3.146-.572 0-.377 1.183-.572 3.146-.572 1.976 0 3.16.195 3.16.572 0 .377-1.184.572-3.16.572zm18.589-5.759h-1.56v-4.498h-1.287v11.102h1.287v-5.369h1.56v-1.235zm-7.943-4.238c-1.95 0-3.315 1.638-3.315 5.161 0 3.523 1.365 5.161 3.315 5.161 1.937 0 3.302-1.638 3.302-5.161 0-3.523-1.365-5.161-3.302-5.161zm0 9.139c-1.157 0-2.028-1.157-2.028-3.978 0-2.808.871-3.978 2.028-3.978 1.144 0 2.015 1.17 2.015 3.978 0 2.821-.871 3.978-2.015 3.978zm13.337-9.425h-1.313v1.781h-2.938v1.144h7.202v-1.144h-2.951v-1.781zm7.111 4.524h-1.56v-4.498h-1.287v11.102h1.287v-5.369h1.56v-1.235zm-7.761-.715c-1.807 0-3.094 1.352-3.094 3.393 0 2.041 1.287 3.393 3.094 3.393s3.081-1.352 3.081-3.393c0-2.041-1.274-3.393-3.081-3.393zm0 5.668c-1.04 0-1.846-.858-1.846-2.275 0-1.417.806-2.275 1.846-2.275 1.027 0 1.833.858 1.833 2.275 0 1.417-.806 2.275-1.833 2.275zm9.45-5.148h9.607v-1.144h-8.307v-3.159h-1.3v4.303zm-.793 2.366h11.089v-1.144h-11.089v1.144zm.767 4.303h9.75v-1.144h-8.437v-2.171h-1.313v3.315zm26.054-10.972h-1.222v5.668h1.222v-5.668zm-3.965 5.551h1.209v-5.486h-1.209v1.456h-1.95v1.131h1.95v2.899zm-3.848-2.028 2.418 1.898.754-.897-2.704-2.067c.208-.676.312-1.443.312-2.288l-1.235-.039c0 2.236-.702 3.744-2.405 4.251v1.157c1.313-.286 2.262-.988 2.86-2.015zm-.624 6.435v-.871h8.437v-2.821h-9.724v1.001h8.463v.858h-8.437v2.834h9.971v-1.001h-8.71zm19.434-9.958v2.041h-1.924v1.17h1.924v2.912h1.287v-6.123h-1.287zm-8.71 2.613v3.367h3.835c1.573 0 2.899-.195 3.575-.494v-1.04c-.715.312-1.989.494-3.497.494h-2.639v-1.313h4.784v-3.354h-6.084v1.04h4.81v1.3h-4.784zm8.684 5.148h-6.864v-1.027h-1.274v4.225h9.412v-4.225h-1.274v1.027zm-6.864 2.171v-1.157h6.864v1.157h-6.864zm19.304 1.17h1.3V289.25h-1.3v11.102zm-5.239-.52c1.963 0 3.354-1.638 3.354-5.161 0-3.523-1.391-5.161-3.354-5.161-1.976 0-3.367 1.638-3.367 5.161 0 3.523 1.391 5.161 3.367 5.161zm0-1.183c-1.183 0-2.08-1.157-2.08-3.978 0-2.808.897-3.978 2.08-3.978 1.157 0 2.067 1.17 2.067 3.978 0 2.821-.91 3.978-2.067 3.978zm22.675-9.399h-1.287v6.175h1.287v-6.175zm-3.25 3.003c0-1.703-1.352-2.886-3.471-2.886-2.132 0-3.484 1.183-3.484 2.886 0 1.716 1.352 2.886 3.484 2.886 2.119 0 3.471-1.17 3.471-2.886zm-5.668 0c0-1.144.897-1.82 2.197-1.82 1.287 0 2.184.676 2.184 1.82 0 1.144-.897 1.82-2.184 1.82-1.3 0-2.197-.676-2.197-1.82zm9.815 7.098-2.392-1.859c.182-.481.299-.988.351-1.547l-1.248-.182c-.117 1.56-.988 2.886-2.028 3.211l-1.703-1.404c.208-.494.351-1.04.416-1.638l-1.248-.169c-.143 1.716-1.222 3.159-2.444 3.276v1.17c1.066-.078 2.054-.689 2.743-1.664l1.885 1.664c1.092-.065 2.093-.702 2.769-1.729l2.132 1.781.767-.91zm2.039-5.798h9.607v-1.144h-8.307v-3.159h-1.3v4.303zm-.793 2.366h11.089v-1.144h-11.089v1.144zm.767 4.303h9.75v-1.144h-8.437v-2.171h-1.313v3.315zm19.334-6.383 3.224 2.132.663-.975-3.393-2.21c.13-.403.208-.832.247-1.274h2.938v-1.105h-2.951v-1.352h-1.3v1.352h-2.99v1.105h3.003c-.182 1.859-1.365 3.133-3.12 3.406v1.144c1.599-.156 2.912-1.001 3.679-2.223zm6.409-4.589h-1.287v8.281h1.287v-8.281zm-8.112 9.815v-2.08h-1.3v3.224h9.711v-1.144h-8.411zm19.213-4.485h1.339v-5.07h-9.568v1.209h8.229v3.861zm2.132.923h-11.089v1.222h4.81v3.887h1.326v-3.887h4.953v-1.222zm2.222-1.95h9.646v-.91h-8.398v-.741h8.242v-2.522h-9.49v.91h8.242v.754h-8.242v2.509zm-.806 1.742h11.089v-.936h-11.089v.936zm.767 4.927h9.75v-.91h-8.502v-.728h8.307v-2.483h-9.581v.91h8.333v.715h-8.307v2.496zm22.882-10.036h-3.12v-1.131h-1.3v1.131h-3.12v1.001h7.54v-1.001zm4.108 1.755h-1.56v-2.691h-1.287v6.617h1.287v-2.704h1.56v-1.222zm-7.878 3.835c1.833 0 3.25-.728 3.25-1.976 0-1.287-1.417-2.028-3.25-2.028-1.846 0-3.263.741-3.263 2.028 0 1.248 1.417 1.976 3.263 1.976zm0-3.055c1.235 0 2.028.455 2.028 1.079 0 .598-.793 1.027-2.028 1.027-1.248 0-2.028-.429-2.028-1.027 0-.624.78-1.079 2.028-1.079zm-2.964 7.488h9.282v-3.731h-9.282v3.731zm1.274-2.704h6.734v1.677h-6.734v-1.677zm20.032-8.255v11.102h1.17V289.25h-1.17zm-2.379 4.342h-1.365c.013-.364.013-.728.013-1.118v-2.821h-2.509v1.092h1.326v1.859c0 3.562-.403 5.707-1.729 5.941v1.118c1.846-.208 2.613-1.924 2.834-4.888h1.43v5.382h1.17v-10.842h-1.17v4.277zm-4.407-3.939h-2.665v1.092h1.482l.013 1.69c.026 3.146-.247 5.486-1.495 5.72v1.118c2.197-.26 2.704-2.912 2.678-6.955l-.013-2.665zM100.093 308.25v4.472h-1.807v-4.407h-1.222v10.842h1.222v-5.239h1.807v5.434h1.222V308.25h-1.222zm-7.878 9.295v-3.393h3.471v-1.144h-3.47v-3.211h3.626v-1.144H90.98v10.036h2.015c1.365 0 2.548-.169 3.276-.494v-1.157c-.819.351-1.872.507-3.21.507h-.846zm19.928-1.209h1.352v-7.696h-9.672v1.209h8.32v6.487zm-8.996 2.483h11.089v-1.209h-11.089v1.209zm17.003-10.595h-1.313v1.781h-2.938v1.144h7.202v-1.144h-2.951v-1.781zm7.111 4.524h-1.56v-4.498h-1.287v11.102h1.287v-5.369h1.56v-1.235zm-7.761-.715c-1.807 0-3.094 1.352-3.094 3.393 0 2.041 1.287 3.393 3.094 3.393s3.081-1.352 3.081-3.393c0-2.041-1.274-3.393-3.081-3.393zm0 5.668c-1.04 0-1.846-.858-1.846-2.275 0-1.417.806-2.275 1.846-2.275 1.027 0 1.833.858 1.833 2.275 0 1.417-.806 2.275-1.833 2.275zm17.835-1.196h1.274v-8.255h-1.274v1.235h-1.82v1.144h1.82v1.56h-1.82v1.144h1.82v3.172zm-2.47-7.982h-6.24v6.006h6.24v-6.006zm-1.274 4.888h-3.705v-3.77h3.705v3.77zm-3.12 4.641v-2.444h-1.313v3.601h9.685v-1.157h-8.372zm23.883-7.527v-2.275h-1.287v6.136h1.287v-2.626h1.56v-1.235h-1.56zm-2.093 2.73v-1.092c-.715.312-1.989.494-3.497.494h-2.782v-3.042h5.486v-1.092h-6.773v5.226h3.991c1.573 0 2.899-.195 3.575-.494zm-2.496 1.495c-2.652 0-4.758.637-4.758 2.301 0 1.664 2.106 2.301 4.758 2.301 2.665 0 4.758-.637 4.758-2.301 0-1.664-2.093-2.301-4.758-2.301zm0 3.536c-1.885 0-3.38-.377-3.38-1.235 0-.845 1.495-1.235 3.38-1.235 1.898 0 3.38.39 3.38 1.235 0 .858-1.482 1.235-3.38 1.235zm10.828-5.824 3.276 2.067.611-.962-3.367-2.093c.13-.364.221-.728.273-1.105h2.899v-1.079h-2.899v-1.235h-1.3v1.235h-2.938v1.079h2.925c-.234 1.586-1.339 2.86-3.042 3.107v1.118c1.547-.169 2.808-.988 3.562-2.132zm5.382-4.212v2.691h-2.132v1.144h2.132v2.665h1.287v-6.5h-1.287zm-8.164 10.959h9.451v-3.848h-9.451v3.848zm1.287-2.795h6.877v1.742h-6.877v-1.742zm21.323-7.345h-3.094v-1.131h-1.326v1.131h-3.003v.962h7.423v-.962zm4.147 2.145h-1.534v-2.964h-1.287v7.618h1.287v-3.458h1.534v-1.196zm-3.744 3.991v-1.001c-.689.299-2.041.429-3.51.442v-.793c1.612-.117 2.574-.728 2.574-1.651 0-1.027-1.209-1.677-3.198-1.677-1.989 0-3.198.65-3.198 1.677 0 .923.949 1.521 2.548 1.651v.793h-3.081v.988h4.173c1.573 0 2.99-.13 3.692-.429zm-6.123-3.003c0-.429.663-.741 1.989-.741 1.313 0 1.976.312 1.976.741 0 .442-.663.767-1.976.767-1.326 0-1.989-.325-1.989-.767zm-1.027 5.265h8.073v1.885h1.287v-2.886h-9.36v1.001zm22.242-5.876h-8.398v-.715h8.242v-2.496h-9.49v.91h8.242v.728h-8.242v2.483h9.646v-.91zm.637 2.574v-.91h-11.089v.91h2.821v.988h-2.08v.91h8.333v.689h-8.307v2.47h9.75v-.91h-8.502v-.702h8.307v-2.457h-2.067v-.988h2.834zm-4.082.988h-2.938v-.988h2.938v.988zm14.571 4.199h1.3V308.25h-1.3v11.102zm-5.239-.52c1.963 0 3.354-1.638 3.354-5.161 0-3.523-1.391-5.161-3.354-5.161-1.976 0-3.367 1.638-3.367 5.161 0 3.523 1.391 5.161 3.367 5.161zm0-1.183c-1.183 0-2.08-1.157-2.08-3.978 0-2.808.897-3.978 2.08-3.978 1.157 0 2.067 1.17 2.067 3.978 0 2.821-.91 3.978-2.067 3.978zm33.971-1.456h.988l.338-7.527h-1.651l.325 7.527zm.494 3.094a.944.944 0 0 0 .962-.962.94.94 0 0 0-.962-.949.94.94 0 0 0-.962.949c0 .546.416.962.962.962z" fill="#2B1E34"/>
        <path d="M217.588 308.289c-2.236 0-3.809 1.56-3.809 3.64h2.327c0-.806.52-1.586 1.482-1.586 1.027 0 1.456.52 1.456 1.3 0 .598-.299 1.287-1.573 2.6L214 317.818v1.352h7.579v-2.002h-4.121l1.521-1.573c1.859-1.924 2.392-2.873 2.392-3.978 0-1.924-1.404-3.328-3.783-3.328zm14.118-.039v4.082h-.923v-4.03h-2.028v10.855h2.028v-4.745h.923v4.94h2.054V308.25h-2.054zm-5.759 3.536h-1.04v-3.276h-2.002v10.322h5.044V308.51h-2.002v3.276zm-1.04 5.07v-3.107h1.04v3.107h-1.04z" fill="#9E30F4"/>
    </g>
    <defs>
        <linearGradient id="skxf3cbuvb" x1="1898" y1="-335" x2="375" y2="375" gradientUnits="userSpaceOnUse">
            <stop stop-color="#9E30F4"/>
            <stop offset="1" stop-color="#FFEBEF"/>
        </linearGradient>
        <clipPath id="9cit1bhwwa">
            <path fill="#fff" d="M0 0h375v375H0z"/>
        </clipPath>
    </defs>
</svg>
