<svg width="375" height="375" viewBox="0 0 375 375" fill="none" xmlns="http://www.w3.org/2000/svg">
    <g clip-path="url(#eq4e0imjfa)">
        <path fill="#fff" d="M0 0h375v375H0z"/>
        <path transform="rotate(90 375 0)" fill="url(#o8k08s4r4b)" d="M375 0h375v375H375z"/>
        <path d="m31.392 178.486 5.06 2.618 1.606-2.772-4.994-2.53c.11-.308.198-.616.286-.924h4.224v-2.992h-4.136v-1.716h-3.784v1.716h-4.136v2.992h4.004c-.55 1.65-2.046 3.08-4.224 3.256v3.124c2.508-.066 4.642-1.21 6.094-2.772zm13.53-4.576h-2.2v-3.41h-3.718v10.846h3.718v-3.828h2.2v-3.608zm-18.788 15.378h16.588v-7.282H26.134v7.282zm3.696-4.378h9.196v1.474H29.83v-1.474zm31.018-14.41v3.982h-2.134l.242 3.476h1.892v3.322h-1.892l-.242 3.476h2.134v4.532H64.5V170.5h-3.652zm-8.36.22c-3.476 0-5.786 2.772-5.786 8.954s2.31 8.954 5.786 8.954c3.476 0 5.764-2.772 5.764-8.954s-2.288-8.954-5.764-8.954zm0 14.498c-1.232 0-2.134-1.32-2.134-5.544 0-4.202.902-5.544 2.134-5.544 1.21 0 2.112 1.342 2.112 5.544 0 4.224-.902 5.544-2.112 5.544zM85.574 170.5h-3.718v18.788h3.718V170.5zm-6.622.44H68.128v3.388h7.018v1.694c0 5.434-2.464 8.822-7.018 8.866v3.52c6.578 0 10.824-4.752 10.824-12.386v-5.082zm27.256 3.3v-3.74h-3.718v13.904h3.718v-6.556h2.2v-3.608h-2.2zm-6.116-.506v-3.014H88.894v3.212h7.414v.418c0 2.53-3.036 4.114-7.414 4.158v3.278c6.446 0 11.198-2.596 11.198-8.052zm-6.688 9.042H89.62v6.512h16.852v-3.344H93.404v-3.168zM25.755 230.079h1.443l4.368-9.503v-.91h-7.137v1.196h5.564l-4.238 9.217zm16.123-4.875h1.287v-5.954h-1.287v1.456h-1.534v1.157h1.534v3.341zm-5.356-2.054c1.95 0 3.237-.728 3.237-1.937 0-1.196-1.287-1.937-3.237-1.937-1.95 0-3.237.741-3.237 1.937 0 1.209 1.287 1.937 3.237 1.937zm0-2.925c1.209 0 1.989.364 1.989.988 0 .611-.78.988-1.989.988-1.196 0-1.989-.377-1.989-.988 0-.624.793-.988 1.989-.988zm-1.495 9.035v-.793h8.138v-2.652h-6.071v-.962h.169c1.586 0 2.977-.13 3.679-.442v-.988c-.767.312-2.119.442-3.64.442h-4.589v.988h3.107v.962h-2.093v.949h8.177v.793h-8.151v2.652h9.685v-.949h-8.411zm17.37 1.053c2.184 0 3.666-1.326 3.666-3.068 0-1.443-1.079-2.262-2.132-2.457a2.445 2.445 0 0 0 1.86-2.392c0-1.638-1.391-2.977-3.536-2.977-2.133 0-3.537 1.43-3.537 3.263h1.365c0-1.105.767-2.093 2.172-2.093 1.377 0 2.183.832 2.183 1.846 0 1.079-.897 1.833-2.223 1.833h-1.144v1.131h1.145c1.572 0 2.508.689 2.508 1.859 0 1.04-.87 1.872-2.326 1.872-1.47 0-2.302-.871-2.34-1.989h-1.352c.077 1.82 1.455 3.172 3.691 3.172zm8.817 0c2.184 0 3.835-1.807 3.835-5.447s-1.65-5.447-3.835-5.447c-2.197 0-3.848 1.807-3.848 5.447s1.651 5.447 3.848 5.447zm0-1.209c-1.417 0-2.535-1.404-2.535-4.238 0-2.821 1.118-4.238 2.535-4.238 1.404 0 2.522 1.417 2.522 4.238 0 2.834-1.118 4.238-2.522 4.238zm14.292-4.42h1.287v-5.434h-1.287v5.434zm-5.421-.143c2.054 0 3.432-1.079 3.432-2.587 0-1.508-1.378-2.587-3.432-2.587-2.054 0-3.445 1.079-3.445 2.587 0 1.508 1.39 2.587 3.445 2.587zm0-1.04c-1.274 0-2.171-.611-2.171-1.547 0-.936.897-1.547 2.17-1.547 1.275 0 2.159.611 2.159 1.547 0 .936-.884 1.547-2.158 1.547zm-2.561 6.708h9.542v-1.014h-8.268v-.962h7.995v-2.938h-9.295v1.014h8.02v.962h-7.994v2.938zm17.266.377h1.443c-1.495-1.521-2.535-3.497-2.535-5.798s1.04-4.277 2.535-5.798H84.79c-1.443 1.56-2.418 3.432-2.418 5.798s.975 4.238 2.418 5.798zm8.611-1.937v-2.054h4.368v-1.144h-8.502v-1.781h8.19v-1.131h-8.19v-1.742H97.6v-1.144h-9.62v6.942h4.121v2.054H87.24v1.17h11.09v-1.17H93.4zm5.927 1.937h1.43c1.456-1.56 2.418-3.432 2.418-5.798s-.962-4.238-2.418-5.798h-1.43c1.495 1.521 2.522 3.497 2.522 5.798s-1.027 4.277-2.522 5.798zm14.907-1.976v-2.366c2.652-.182 4.355-1.495 4.355-3.38 0-2.054-1.989-3.419-5.005-3.419s-5.005 1.365-5.005 3.419c0 1.885 1.703 3.198 4.342 3.38v2.366h-4.875v1.209h11.089v-1.209h-4.901zm-4.29-5.746c0-1.352 1.456-2.249 3.64-2.249 2.197 0 3.653.897 3.653 2.249 0 1.339-1.456 2.236-3.653 2.236-2.184 0-3.64-.897-3.64-2.236zm21.267-2.509h-4.472v-1.378h-1.326v1.378h-4.446v1.118h10.244v-1.118zm-9.724 3.926c0 1.43 1.976 2.08 4.602 2.08 2.626 0 4.602-.65 4.602-2.08 0-1.443-1.976-2.093-4.602-2.093-2.626 0-4.602.65-4.602 2.093zm7.891 0c0 .689-1.404 1.014-3.289 1.014-1.872 0-3.289-.325-3.289-1.014 0-.702 1.417-1.027 3.289-1.027 1.885 0 3.289.325 3.289 1.027zm2.262 2.847h-11.089v1.144h4.875v2.34h1.313v-2.34h4.901v-1.144zm7.087 2.951h1.365v-10.413h-3.523v1.196h2.158v9.217zm8.725 0h1.3v-2.353h1.703v-1.157h-1.703v-6.903h-1.612l-4.94 6.903v1.157h5.252v2.353zm-3.848-3.51 3.848-5.408v5.408h-3.848zm8.784-5.187c-.52 0-.91.403-.91.91s.39.91.91.91a.893.893 0 0 0 .897-.91c0-.507-.39-.91-.897-.91zm0 5.174c-.52 0-.91.39-.91.91 0 .507.39.897.91.897.507 0 .897-.39.897-.897 0-.52-.39-.91-.897-.91zm6.173 3.757c2.184 0 3.835-1.807 3.835-5.447s-1.651-5.447-3.835-5.447c-2.197 0-3.848 1.807-3.848 5.447s1.651 5.447 3.848 5.447zm0-1.209c-1.417 0-2.535-1.404-2.535-4.238 0-2.821 1.118-4.238 2.535-4.238 1.404 0 2.522 1.417 2.522 4.238 0 2.834-1.118 4.238-2.522 4.238zm9.013 1.209c2.184 0 3.835-1.807 3.835-5.447s-1.651-5.447-3.835-5.447c-2.197 0-3.848 1.807-3.848 5.447s1.651 5.447 3.848 5.447zm0-1.209c-1.417 0-2.535-1.404-2.535-4.238 0-2.821 1.118-4.238 2.535-4.238 1.404 0 2.522 1.417 2.522 4.238 0 2.834-1.118 4.238-2.522 4.238zm8.94-4.745v1.3c.403-.429.819-.676 1.43-.676.975 0 1.781.936 2.899.936.689 0 1.196-.273 1.573-.728v-1.313c-.416.507-.819.845-1.443.845-.962 0-1.768-.936-2.886-.936-.663 0-1.196.208-1.573.572zm12.095 5.72h1.443l4.368-9.503v-.91h-7.137v1.196h5.564l-4.238 9.217zm16.124-4.875h1.287v-5.954h-1.287v1.456H203.2v1.157h1.534v3.341zm-5.356-2.054c1.95 0 3.237-.728 3.237-1.937 0-1.196-1.287-1.937-3.237-1.937-1.95 0-3.237.741-3.237 1.937 0 1.209 1.287 1.937 3.237 1.937zm0-2.925c1.209 0 1.989.364 1.989.988 0 .611-.78.988-1.989.988-1.196 0-1.989-.377-1.989-.988 0-.624.793-.988 1.989-.988zm-1.495 9.035v-.793h8.138v-2.652h-6.071v-.962h.169c1.586 0 2.977-.13 3.679-.442v-.988c-.767.312-2.119.442-3.64.442h-4.589v.988h3.107v.962h-2.093v.949h8.177v.793h-8.151v2.652h9.685v-.949h-8.411zm17.37 1.053c2.184 0 3.666-1.326 3.666-3.068 0-1.443-1.079-2.262-2.132-2.457a2.445 2.445 0 0 0 1.859-2.392c0-1.638-1.391-2.977-3.536-2.977-2.132 0-3.536 1.43-3.536 3.263h1.365c0-1.105.767-2.093 2.171-2.093 1.378 0 2.184.832 2.184 1.846 0 1.079-.897 1.833-2.223 1.833h-1.144v1.131h1.144c1.573 0 2.509.689 2.509 1.859 0 1.04-.871 1.872-2.327 1.872-1.469 0-2.301-.871-2.34-1.989h-1.352c.078 1.82 1.456 3.172 3.692 3.172zm7.049-.234h1.365v-10.413h-3.523v1.196h2.158v9.217zm12.924-5.395h1.287v-5.434h-1.287v5.434zm-5.421-.143c2.054 0 3.432-1.079 3.432-2.587 0-1.508-1.378-2.587-3.432-2.587-2.054 0-3.445 1.079-3.445 2.587 0 1.508 1.391 2.587 3.445 2.587zm0-1.04c-1.274 0-2.171-.611-2.171-1.547 0-.936.897-1.547 2.171-1.547 1.274 0 2.158.611 2.158 1.547 0 .936-.884 1.547-2.158 1.547zm-2.561 6.708h9.542v-1.014h-8.268v-.962h7.995v-2.938h-9.295v1.014h8.021v.962h-7.995v2.938zm17.266.377h1.443c-1.495-1.521-2.535-3.497-2.535-5.798s1.04-4.277 2.535-5.798h-1.443c-1.443 1.56-2.418 3.432-2.418 5.798s.975 4.238 2.418 5.798zm11.523-5.902h1.287v-5.434h-1.287v5.434zm-5.421-.143c2.054 0 3.432-1.079 3.432-2.587 0-1.508-1.378-2.587-3.432-2.587-2.054 0-3.445 1.079-3.445 2.587 0 1.508 1.391 2.587 3.445 2.587zm0-1.04c-1.274 0-2.171-.611-2.171-1.547 0-.936.897-1.547 2.171-1.547 1.274 0 2.158.611 2.158 1.547 0 .936-.884 1.547-2.158 1.547zm-2.561 6.708h9.542v-1.014h-8.268v-.962h7.995v-2.938h-9.295v1.014h8.021v.962h-7.995v2.938zm10.997.377h1.43c1.456-1.56 2.418-3.432 2.418-5.798s-.962-4.238-2.418-5.798h-1.43c1.495 1.521 2.522 3.497 2.522 5.798s-1.027 4.277-2.522 5.798zm14.907-1.976v-2.366c2.652-.182 4.355-1.495 4.355-3.38 0-2.054-1.989-3.419-5.005-3.419s-5.005 1.365-5.005 3.419c0 1.885 1.703 3.198 4.342 3.38v2.366h-4.875v1.209h11.089v-1.209h-4.901zm-4.29-5.746c0-1.352 1.456-2.249 3.64-2.249 2.197 0 3.653.897 3.653 2.249 0 1.339-1.456 2.236-3.653 2.236-2.184 0-3.64-.897-3.64-2.236zm21.267-2.509h-4.472v-1.378h-1.326v1.378h-4.446v1.118h10.244v-1.118zm-9.724 3.926c0 1.43 1.976 2.08 4.602 2.08 2.626 0 4.602-.65 4.602-2.08 0-1.443-1.976-2.093-4.602-2.093-2.626 0-4.602.65-4.602 2.093zm7.891 0c0 .689-1.404 1.014-3.289 1.014-1.872 0-3.289-.325-3.289-1.014 0-.702 1.417-1.027 3.289-1.027 1.885 0 3.289.325 3.289 1.027zm2.262 2.847h-11.089v1.144h4.875v2.34h1.313v-2.34h4.901v-1.144zm7.087 2.951h1.365v-10.413h-3.523v1.196h2.158v9.217zm8.725 0h1.3v-2.353h1.703v-1.157h-1.703v-6.903h-1.612l-4.94 6.903v1.157h5.252v2.353zm-3.848-3.51 3.848-5.408v5.408h-3.848zm8.784-5.187c-.52 0-.91.403-.91.91s.39.91.91.91a.893.893 0 0 0 .897-.91c0-.507-.39-.91-.897-.91zm0 5.174c-.52 0-.91.39-.91.91 0 .507.39.897.91.897.507 0 .897-.39.897-.897 0-.52-.39-.91-.897-.91zm6.173 3.757c2.184 0 3.835-1.807 3.835-5.447s-1.651-5.447-3.835-5.447c-2.197 0-3.848 1.807-3.848 5.447s1.651 5.447 3.848 5.447zm0-1.209c-1.417 0-2.535-1.404-2.535-4.238 0-2.821 1.118-4.238 2.535-4.238 1.404 0 2.522 1.417 2.522 4.238 0 2.834-1.118 4.238-2.522 4.238zm9.013 1.209c2.184 0 3.835-1.807 3.835-5.447s-1.651-5.447-3.835-5.447c-2.197 0-3.848 1.807-3.848 5.447s1.651 5.447 3.848 5.447zm0-1.209c-1.417 0-2.535-1.404-2.535-4.238 0-2.821 1.118-4.238 2.535-4.238 1.404 0 2.522 1.417 2.522 4.238 0 2.834-1.118 4.238-2.522 4.238zM72.277 272.313c2.171 0 3.679-1.222 3.679-2.964 0-1.573-1.235-2.444-2.184-2.665.806-.247 1.82-1.092 1.82-2.418 0-1.547-1.339-2.847-3.315-2.847-1.989 0-3.328 1.287-3.328 2.847 0 1.326 1.014 2.171 1.82 2.418-.936.221-2.184 1.092-2.184 2.665 0 1.742 1.508 2.964 3.692 2.964zm0-6.24c-1.183 0-2.015-.793-2.015-1.794 0-.962.793-1.716 2.015-1.716s2.015.78 2.015 1.742c0 .988-.832 1.768-2.015 1.768zm0 5.096c-1.443 0-2.366-.819-2.366-1.898 0-1.092 1.001-1.937 2.366-1.937 1.352 0 2.353.845 2.353 1.937 0 1.079-.923 1.898-2.353 1.898zm14.147-3.965h1.287v-5.954h-1.287v1.456H84.89v1.157h1.534v3.341zm-5.356-2.054c1.95 0 3.237-.728 3.237-1.937 0-1.196-1.287-1.937-3.237-1.937-1.95 0-3.237.741-3.237 1.937 0 1.209 1.287 1.937 3.237 1.937zm0-2.925c1.209 0 1.989.364 1.989.988 0 .611-.78.988-1.99.988-1.195 0-1.988-.377-1.988-.988 0-.624.793-.988 1.989-.988zm-1.495 9.035v-.793h8.138v-2.652H81.64v-.962h.169c1.586 0 2.977-.13 3.679-.442v-.988c-.767.312-2.12.442-3.64.442h-4.59v.988h3.108v.962h-2.093v.949h8.177v.793h-8.151v2.652h9.685v-.949h-8.411zm15.862.819H96.8v-10.413h-3.523v1.196h2.158v9.217zm12.924-5.395h1.287v-5.434h-1.287v5.434zm-5.421-.143c2.054 0 3.432-1.079 3.432-2.587 0-1.508-1.378-2.587-3.432-2.587-2.054 0-3.445 1.079-3.445 2.587 0 1.508 1.391 2.587 3.445 2.587zm0-1.04c-1.274 0-2.171-.611-2.171-1.547 0-.936.897-1.547 2.171-1.547 1.274 0 2.158.611 2.158 1.547 0 .936-.884 1.547-2.158 1.547zm-2.561 6.708h9.542v-1.014h-8.268v-.962h7.995v-2.938h-9.295v1.014h8.021v.962h-7.995v2.938zm17.267.377h1.443c-1.495-1.521-2.535-3.497-2.535-5.798s1.04-4.277 2.535-5.798h-1.443c-1.443 1.56-2.418 3.432-2.418 5.798s.975 4.238 2.418 5.798zm11.614-5.382h1.287v-5.954h-1.287v1.456h-1.534v1.157h1.534v3.341zm-5.356-2.054c1.95 0 3.237-.728 3.237-1.937 0-1.196-1.287-1.937-3.237-1.937-1.95 0-3.237.741-3.237 1.937 0 1.209 1.287 1.937 3.237 1.937zm0-2.925c1.209 0 1.989.364 1.989.988 0 .611-.78.988-1.989.988-1.196 0-1.989-.377-1.989-.988 0-.624.793-.988 1.989-.988zm-1.495 9.035v-.793h8.138v-2.652h-6.071v-.962h.169c1.586 0 2.977-.13 3.679-.442v-.988c-.767.312-2.119.442-3.64.442h-4.589v.988h3.107v.962h-2.093v.949h8.177v.793h-8.151v2.652h9.685v-.949h-8.411zm9.775 1.326h1.43c1.456-1.56 2.418-3.432 2.418-5.798s-.962-4.238-2.418-5.798h-1.43c1.495 1.521 2.522 3.497 2.522 5.798s-1.027 4.277-2.522 5.798zm14.907-1.976v-2.366c2.652-.182 4.355-1.495 4.355-3.38 0-2.054-1.989-3.419-5.005-3.419s-5.005 1.365-5.005 3.419c0 1.885 1.703 3.198 4.342 3.38v2.366h-4.875v1.209h11.089v-1.209h-4.901zm-4.29-5.746c0-1.352 1.456-2.249 3.64-2.249 2.197 0 3.653.897 3.653 2.249 0 1.339-1.456 2.236-3.653 2.236-2.184 0-3.64-.897-3.64-2.236zm21.266-2.509h-4.472v-1.378h-1.326v1.378h-4.446v1.118h10.244v-1.118zm-9.724 3.926c0 1.43 1.976 2.08 4.602 2.08 2.626 0 4.602-.65 4.602-2.08 0-1.443-1.976-2.093-4.602-2.093-2.626 0-4.602.65-4.602 2.093zm7.891 0c0 .689-1.404 1.014-3.289 1.014-1.872 0-3.289-.325-3.289-1.014 0-.702 1.417-1.027 3.289-1.027 1.885 0 3.289.325 3.289 1.027zm2.262 2.847h-11.089v1.144h4.875v2.34h1.313v-2.34h4.901v-1.144zm7.088 2.951h1.365v-10.413h-3.523v1.196h2.158v9.217zm7.412.234c2.171 0 3.679-1.222 3.679-2.964 0-1.573-1.235-2.444-2.184-2.665.806-.247 1.82-1.092 1.82-2.418 0-1.547-1.339-2.847-3.315-2.847-1.989 0-3.328 1.287-3.328 2.847 0 1.326 1.014 2.171 1.82 2.418-.936.221-2.184 1.092-2.184 2.665 0 1.742 1.508 2.964 3.692 2.964zm0-6.24c-1.183 0-2.015-.793-2.015-1.794 0-.962.793-1.716 2.015-1.716s2.015.78 2.015 1.742c0 .988-.832 1.768-2.015 1.768zm0 5.096c-1.443 0-2.366-.819-2.366-1.898 0-1.092 1.001-1.937 2.366-1.937 1.352 0 2.353.845 2.353 1.937 0 1.079-.923 1.898-2.353 1.898zm5.944-7.787c-.52 0-.91.403-.91.91s.39.91.91.91a.893.893 0 0 0 .897-.91c0-.507-.39-.91-.897-.91zm0 5.174c-.52 0-.91.39-.91.91 0 .507.39.897.91.897.507 0 .897-.39.897-.897 0-.52-.39-.91-.897-.91zm6.173 3.757c2.184 0 3.835-1.807 3.835-5.447s-1.651-5.447-3.835-5.447c-2.197 0-3.848 1.807-3.848 5.447s1.651 5.447 3.848 5.447zm0-1.209c-1.417 0-2.535-1.404-2.535-4.238 0-2.821 1.118-4.238 2.535-4.238 1.404 0 2.522 1.417 2.522 4.238 0 2.834-1.118 4.238-2.522 4.238zm9.013 1.209c2.184 0 3.835-1.807 3.835-5.447s-1.651-5.447-3.835-5.447c-2.197 0-3.848 1.807-3.848 5.447s1.651 5.447 3.848 5.447zm0-1.209c-1.417 0-2.535-1.404-2.535-4.238 0-2.821 1.118-4.238 2.535-4.238 1.404 0 2.522 1.417 2.522 4.238 0 2.834-1.118 4.238-2.522 4.238zM77.789 289.492h1.287v-8.242h-1.287v8.242zm-5.447-1.677c2.171 0 3.51-1.365 3.51-3.224 0-1.859-1.339-3.224-3.51-3.224s-3.523 1.365-3.523 3.224c0 1.859 1.352 3.224 3.523 3.224zm0-1.092c-1.326 0-2.236-.819-2.236-2.132 0-1.313.91-2.145 2.236-2.145 1.313 0 2.223.832 2.223 2.145 0 1.313-.91 2.132-2.223 2.132zm-2.548 5.486h9.581v-1.17h-8.268v-2.457h-1.313v3.627zm16.82-7.228 4.746 3.289.702-1.027-4.888-3.289c.364-.741.624-1.56.78-2.418l-1.326-.234c-.572 3.107-2.782 5.707-5.187 5.707v1.222c2.04 0 3.926-1.287 5.174-3.25zm-5.394 5.629v1.209h11.089v-1.209h-11.09zm24.114-4.862h-1.56v-4.498h-1.287v11.102h1.287v-5.369h1.56v-1.235zm-9.802 4.758v-3.328h4.927v-1.183h-4.927v-3.159h5.122v-1.183h-6.41v10.036h4.369c1.066 0 2.236-.195 2.912-.533v-1.17c-.676.312-1.82.52-2.873.52h-3.12zm23.402-9.256v11.102h1.287V281.25h-1.287zm-2.717 1.573h1.261v-1.17h-7.306v1.17h1.248v7.696h-1.313v1.17h4.277c1.586 0 2.938-.26 3.666-.637v-1.183c-.494.247-1.105.429-1.833.533v-7.579zm-3.523 7.696v-7.696h2.262v7.683c-.182.013-.364.013-.559.013h-1.703zm10.412-2.314h9.763v-1.196h-8.45v-4.16h8.32v-1.196h-9.633v6.552zm-.728 3.614h11.089v-1.209h-11.089v1.209zm25.132-6.669h1.287v-3.77h-9.529v1.092h8.242v2.678zm-3.523.78v-2.171h-1.3v2.171h-4.16v1.066h11.089v-1.066h-5.629zm.078 2.106c-2.652 0-4.875.559-4.875 2.158 0 1.56 2.223 2.171 4.875 2.171s4.875-.611 4.875-2.171c0-1.547-2.223-2.158-4.875-2.158zm0 3.302c-1.794 0-3.523-.351-3.523-1.144 0-.819 1.729-1.131 3.523-1.131s3.523.351 3.523 1.131c0 .793-1.729 1.144-3.523 1.144zm16.04-10.088v11.102h1.287V281.25h-1.287zm-4.329 1.586h2.847v-1.183h-7.085v1.183h2.938c-.052 4.121-1.222 7.215-3.198 7.579v1.274c1.677-.195 3.003-1.573 3.77-3.9l2.99 3.809 1.014-.767-3.627-4.485a18.97 18.97 0 0 0 .351-3.51zm17.592 3.471h-2.418v-2.483h-1.274v2.483h-2.418v1.144h2.418v2.483h1.274v-2.483h2.418v-1.144zm15.198-2.782v-2.275h-1.287v6.136h1.287v-2.626h1.56v-1.235h-1.56zm-2.093 2.73v-1.092c-.715.312-1.989.494-3.497.494h-2.782v-3.042h5.486v-1.092h-6.773v5.226h3.991c1.573 0 2.899-.195 3.575-.494zm-2.496 1.495c-2.652 0-4.758.637-4.758 2.301 0 1.664 2.106 2.301 4.758 2.301 2.665 0 4.758-.637 4.758-2.301 0-1.664-2.093-2.301-4.758-2.301zm0 3.536c-1.885 0-3.38-.377-3.38-1.235 0-.845 1.495-1.235 3.38-1.235 1.898 0 3.38.39 3.38 1.235 0 .858-1.482 1.235-3.38 1.235zm10.828-5.824 3.276 2.067.611-.962-3.367-2.093c.13-.364.221-.728.273-1.105h2.899v-1.079h-2.899v-1.235h-1.3v1.235h-2.938v1.079h2.925c-.234 1.586-1.339 2.86-3.042 3.107v1.118c1.547-.169 2.808-.988 3.562-2.132zm5.382-4.212v2.691h-2.132v1.144h2.132v2.665h1.287v-6.5h-1.287zm-8.164 10.959h9.451v-3.848h-9.451v3.848zm1.287-2.795h6.877v1.742h-6.877v-1.742zm21.826-3.666h-1.56v-4.498h-1.287v11.102h1.287v-5.369h1.56v-1.235zm-7.033-2.912h2.795v-1.183h-6.981v1.183h2.886c-.039 4.121-1.183 7.215-3.146 7.579v1.274c1.677-.195 2.977-1.573 3.731-3.874l2.925 3.783 1.014-.767-3.562-4.472c.208-1.04.325-2.223.338-3.523zm21.01-1.586v4.472h-1.898v-4.407h-1.235v10.842h1.235v-5.226h1.898v5.421h1.235V281.25h-1.235zm-9.191 1.573h3.393v1.885c0 3.432-1.326 5.681-3.393 5.746v1.209c2.717-.026 4.641-2.73 4.641-7.02v-2.99h-4.641v1.17zm21.423 3.991h1.287v-5.564h-1.287v1.001h-1.807v1.066h1.807v1.17h-1.807v1.066h1.807v1.261zm-2.379-5.369h-1.248v1.378h-3.822v-1.378h-1.261v4.966h6.331v-4.966zm-5.07 3.926v-1.521h3.822v1.521h-3.822zm.559 5.837v-.923h8.177v-2.86h-9.477v1.001h8.203v.91h-8.177v2.873h9.724v-1.001h-8.45zm14.276-9.542v10.413h3.692c3.588 0 5.668-2.093 5.668-5.2s-2.08-5.213-5.668-5.213h-3.692zm3.731 9.178h-2.366v-7.956h2.366c2.639 0 4.251 1.456 4.251 3.991s-1.612 3.965-4.251 3.965zm7.428-9.178v10.413h1.365v-7.683l3.354 5.928h.988l3.354-5.928v7.683h1.365v-10.413h-1.196l-4.017 7.072-4.017-7.072h-1.196z" fill="#2B1E34"/>
        <ellipse cx="33" cy="267" rx="9" ry="12" fill="#9E30F4"/>
        <ellipse cx="42" cy="267" rx="9" ry="12" fill="#9E30F4"/>
        <ellipse cx="51" cy="267" rx="9" ry="12" fill="#9E30F4"/>
        <path d="M40.669 263.44V262h-2.028v5.136h2.028v-1.848h1.2v-1.848h-1.2zm-3.144-1.32h-1.968v.84h-2.316v-.84h-1.968v4.8h6.252v-4.8zm-4.284 3.228v-.852h2.316v.852h-2.316zm.384 5.148h7.044v-3h-9.06v1.356h7.068v.396h-7.044v3h9.144v-1.356h-7.152v-.396zm17.123-.456v-1.692h1.74v-1.836h-1.56v-2.424h1.452v-1.848h-9.216v1.848h1.452v2.424h-1.56v1.836h1.74v1.692h-2.208v1.848h10.368v-1.848h-2.208zm-4.104-5.952H48.9v2.424h-2.256v-2.424zm.18 4.26h1.896v1.692h-1.896v-1.692z" fill="#fff"/>
        <path d="M42.722 64.624V61.5h-3.718v10.34h3.718v-3.608h2.2v-3.608h-2.2zm-4.598 5.808V67.44c-.99.396-2.64.616-4.334.616h-4.576v-3.278h7.832V61.72h-11.55v9.372h8.14c1.76 0 3.52-.242 4.488-.66zm-3.696 1.672c-4.73 0-8.47 1.078-8.47 4.202 0 3.124 3.74 4.202 8.47 4.202s8.47-1.078 8.47-4.202c0-3.124-3.74-4.202-8.47-4.202zm0 5.434c-2.486 0-4.466-.33-4.466-1.232 0-.88 1.98-1.232 4.466-1.232s4.466.352 4.466 1.232c0 .902-1.98 1.232-4.466 1.232zM60.782 61.5v3.564h-1.936v-2.156H54.71V61.17h-3.784v1.738H46.79V65.9h4.048c-.528 1.738-2.046 3.278-4.268 3.454v3.124c2.53-.066 4.664-1.232 6.138-2.86l5.016 2.772 1.672-2.728-5.06-2.728c.132-.33.22-.682.308-1.034h3.674v2.464h2.464v4.092H64.5V61.5h-3.718zm-13.09 18.788H64.5v-7.172H47.692v7.172zm3.696-4.268h9.416v1.364h-9.416V76.02zM85.574 61.5h-3.718v13.904h3.718V61.5zm-12.056.022c-3.674 0-6.182 2.244-6.182 5.632 0 3.41 2.508 5.632 6.182 5.632 3.674 0 6.182-2.222 6.182-5.632 0-3.388-2.508-5.632-6.182-5.632zm0 3.102c1.43 0 2.486.902 2.486 2.53 0 1.628-1.056 2.53-2.486 2.53-1.43 0-2.486-.902-2.486-2.53 0-1.628 1.056-2.53 2.486-2.53zm-.748 9.086h-3.784v6.578h16.852v-3.344H72.77V73.71zm22.482-4.752c3.388 0 5.764-1.276 5.764-3.828 0-2.552-2.376-3.828-5.764-3.828-3.388 0-5.764 1.276-5.764 3.828 0 2.552 2.376 3.828 5.764 3.828zm3.058 4.026v2.574h4.84v.528h3.718V61.5h-3.718v11.484h-4.84zm-3.058-8.954c1.32 0 2.178.352 2.178 1.1 0 .748-.858 1.1-2.178 1.1-1.32 0-2.178-.352-2.178-1.1 0-.748.858-1.1 2.178-1.1zm-1.474 13.156v-1.892h2.97v-2.838h.396c1.87 0 3.762-.176 4.928-.682v-2.86c-1.166.506-3.124.682-4.862.682h-8.646v2.86h4.488v1.87H90.06v5.962h17.072v-3.102H93.778zM35.063 110.839l.338-.962-4.641-1.378a2.49 2.49 0 0 0 .273-.598h4.108V106.9h-4.225v-1.092h-1.313v1.092h-4.238v1.001h4.303c-.598 1.222-2.73 1.859-4.511 1.911v1.014c1.768-.039 3.692-.559 4.862-1.521l5.044 1.534zm-4.16.871v-1.3h-1.3v1.3h-4.888v1.027h11.089v-1.027h-4.901zm-.65 1.924c-2.652 0-4.901.442-4.901 1.872 0 1.417 2.249 1.872 4.901 1.872 2.652 0 4.901-.442 4.901-1.872 0-1.43-2.249-1.872-4.901-1.872zm0 2.743c-1.807 0-3.549-.195-3.549-.871 0-.676 1.742-.884 3.549-.884s3.549.208 3.549.884-1.742.871-3.549.871zm12.638.702h1.365v-10.413h-3.523v1.196h2.158v9.217zm7.646.234c2.184 0 3.835-1.807 3.835-5.447s-1.65-5.447-3.835-5.447c-2.197 0-3.848 1.807-3.848 5.447s1.651 5.447 3.848 5.447zm0-1.209c-1.417 0-2.535-1.404-2.535-4.238 0-2.821 1.118-4.238 2.535-4.238 1.404 0 2.522 1.417 2.522 4.238 0 2.834-1.118 4.238-2.522 4.238zm14.396-3.718h1.274v-6.136h-1.274v.975h-1.82v1.118h1.82v1.287h-1.82v1.118h1.82v1.638zm-2.47-5.863h-6.24v5.226h6.24v-5.226zm-1.274 4.121h-3.705v-3.029h3.705v3.029zm.312 2.106c-2.691 0-4.797.637-4.797 2.301 0 1.664 2.106 2.301 4.797 2.301s4.81-.637 4.81-2.301c0-1.664-2.119-2.301-4.81-2.301zm0 3.536c-1.911 0-3.432-.377-3.432-1.235 0-.845 1.521-1.235 3.432-1.235s3.432.39 3.432 1.235c0 .858-1.521 1.235-3.432 1.235z" fill="#2B1E34"/>
    </g>
    <defs>
        <linearGradient id="o8k08s4r4b" x1="1898" y1="-335" x2="375" y2="375" gradientUnits="userSpaceOnUse">
            <stop stop-color="#9E30F4"/>
            <stop offset="1" stop-color="#FFEBEF"/>
        </linearGradient>
        <clipPath id="eq4e0imjfa">
            <path fill="#fff" d="M0 0h375v375H0z"/>
        </clipPath>
    </defs>
</svg>
