<svg width="375" height="375" viewBox="0 0 375 375" fill="none" xmlns="http://www.w3.org/2000/svg">
<g clip-path="url(#clip0_2546_10706)">
<rect width="375" height="375" fill="white"/>
<rect x="375" width="375" height="375" transform="rotate(90 375 0)" fill="url(#paint0_linear_2546_10706)"/>
<path fill-rule="evenodd" clip-rule="evenodd" d="M92.0139 149.328C92.0046 149.551 92 149.775 92 150V167C92 175.837 99.1634 183 108 183H253C261.837 183 269 175.837 269 167V150C269 141.163 261.837 134 253 134H108C102.409 134 97.4871 136.868 94.6265 141.213L87.7766 142.022C85.9577 142.237 85.3491 144.578 86.8364 145.638L92.0139 149.328Z" fill="#F8EEFF"/>
<path d="M120.048 162.144H121.632V152H120.048V162.144ZM113.344 160.08C116.016 160.08 117.664 158.4 117.664 156.112C117.664 153.824 116.016 152.144 113.344 152.144C110.672 152.144 109.008 153.824 109.008 156.112C109.008 158.4 110.672 160.08 113.344 160.08ZM113.344 158.736C111.712 158.736 110.592 157.728 110.592 156.112C110.592 154.496 111.712 153.472 113.344 153.472C114.96 153.472 116.08 154.496 116.08 156.112C116.08 157.728 114.96 158.736 113.344 158.736ZM110.208 165.488H122V164.048H111.824V161.024H110.208V165.488ZM130.911 156.592L136.751 160.64L137.615 159.376L131.599 155.328C132.047 154.416 132.367 153.408 132.559 152.352L130.927 152.064C130.223 155.888 127.503 159.088 124.543 159.088V160.592C127.055 160.592 129.375 159.008 130.911 156.592ZM124.271 163.52V165.008H137.919V163.52H124.271ZM153.949 157.536H152.029V152H150.445V165.664H152.029V159.056H153.949V157.536ZM141.885 163.392V159.296H147.949V157.84H141.885V153.952H148.189V152.496H140.301V164.848H145.677C146.989 164.848 148.429 164.608 149.261 164.192V162.752C148.429 163.136 147.021 163.392 145.725 163.392H141.885ZM166.124 161.952H167.788V152.48H155.884V153.968H166.124V161.952ZM155.052 165.008H168.7V163.52H155.052V165.008ZM182.075 152V154.912H179.851V152.08H178.347V159.984H179.851V156.352H182.075V160.128H183.579V152H182.075ZM177.419 159.104V157.856C176.523 158.224 175.195 158.368 173.674 158.368H172.331V156.544H176.651V152.336H170.859V153.584H175.179V155.344H170.859V159.616H173.562C175.131 159.616 176.523 159.472 177.419 159.104ZM171.643 165.488H183.579V160.88H171.643V165.488ZM173.211 162.144H182.027V164.224H173.211V162.144ZM196.958 156.592L202.798 160.64L203.662 159.376L197.646 155.328C198.094 154.416 198.414 153.408 198.606 152.352L196.974 152.064C196.27 155.888 193.549 159.088 190.59 159.088V160.592C193.102 160.592 195.422 159.008 196.958 156.592ZM190.318 163.52V165.008H203.966V163.52H190.318ZM213.292 163.568V161.04H218.668V159.632H208.204V157.44H218.284V156.048H208.204V153.904H218.46V152.496H206.62V161.04H211.692V163.568H205.708V165.008H219.356V163.568H213.292ZM232.267 165.664H233.851V152H232.267V165.664ZM221.883 164.848H227.419C228.747 164.848 230.171 164.608 231.003 164.192V162.736C230.171 163.136 228.763 163.392 227.467 163.392H223.467V159.296H229.579V152.496H221.851V153.952H227.995V157.84H221.883V164.848ZM244.089 163.552V160.976H249.449V159.568H238.985V157.408H249.241V152.496H237.401V153.904H247.673V156.048H237.401V160.976H242.473V163.552H236.489V165.008H250.137V163.552H244.089Z" fill="#2B1E34"/>
<path fill-rule="evenodd" clip-rule="evenodd" d="M81.0139 263.328C81.0046 263.551 81 263.775 81 264V281C81 289.837 88.1634 297 97 297H260C268.837 297 276 289.837 276 281V264C276 255.163 268.837 248 260 248H97C91.4086 248 86.4871 250.868 83.6265 255.213L76.7766 256.022C74.9577 256.237 74.3491 258.578 75.8364 259.638L81.0139 263.328Z" fill="#F8EEFF"/>
<path d="M109.048 279.664H110.632V266H109.048V279.664ZM98.52 278.816C103.192 278.816 106.104 275.264 106.104 269.792V266.496H98.52V267.952H104.488V269.824C104.488 274.4 102.248 277.296 98.52 277.312V278.816ZM126.199 273.104H123.783V268.048H126.055V266.576H114.119V268.048H116.391V273.104H113.975V274.56H126.199V273.104ZM117.991 268.048H122.183V273.104H117.991V268.048ZM113.271 277.504V279.008H126.919V277.504H113.271ZM139.829 266V279.664H141.413V266H139.829ZM131.029 277.392V273.296H137.237V271.84H131.029V267.952H137.477V266.496H129.445V278.848H135.013C136.325 278.848 137.717 278.608 138.549 278.192V276.736C137.717 277.136 136.309 277.392 135.013 277.392H131.029ZM155.124 272.4H156.708V266.128H144.996V267.456H155.124V269.424H144.996V270.72H155.124V272.4ZM150.82 273.296V271.456H149.22V273.296H144.052V274.64H157.7V273.296H150.82ZM146.612 275.776H144.996V279.504H156.996V278.16H146.612V275.776ZM166.259 270.928C169.555 270.928 172.259 270.256 172.259 268.432C172.259 266.624 169.555 265.952 166.259 265.952C162.963 265.952 160.259 266.624 160.259 268.432C160.259 270.256 162.963 270.928 166.259 270.928ZM166.259 269.712C163.875 269.712 161.891 269.344 161.891 268.432C161.891 267.536 163.875 267.152 166.259 267.152C168.643 267.152 170.627 267.536 170.627 268.432C170.627 269.344 168.643 269.712 166.259 269.712ZM159.443 273.008H173.091V271.776H159.443V273.008ZM160.387 279.504H172.387V278.32H161.939V277.36H172.147V274.096H160.355V275.28H170.595V276.24H160.387V279.504ZM191.686 268.848V266H190.102V273.712H191.686V270.368H193.606V268.848H191.686ZM187.782 266.24H186.23V268.24H181.35V266.24H179.798V273.056H187.782V266.24ZM181.35 271.744V269.536H186.23V271.744H181.35ZM181.846 275.792H191.686V274.464H180.262V279.488H191.83V278.16H181.846V275.792ZM208.996 271.536H207.076V266H205.492V279.664H207.076V273.056H208.996V271.536ZM199.22 266.32C196.82 266.32 195.14 268.336 195.14 272.672C195.14 277.008 196.82 279.024 199.22 279.024C201.604 279.024 203.284 277.008 203.284 272.672C203.284 268.336 201.604 266.32 199.22 266.32ZM199.22 277.568C197.796 277.568 196.724 276.144 196.724 272.672C196.724 269.216 197.796 267.776 199.22 267.776C200.628 267.776 201.7 269.216 201.7 272.672C201.7 276.144 200.628 277.568 199.22 277.568ZM224.387 271.536H222.467V266H220.883V279.664H222.467V273.056H224.387V271.536ZM210.595 267.952H216.419V269.824C216.419 274.4 214.307 277.296 210.595 277.312V278.816C215.235 278.816 218.035 275.232 218.035 269.792V266.496H210.595V267.952ZM237.121 266V279.664H238.625V266H237.121ZM233.681 270.672H231.521V272.176H233.681V279.424H235.185V266.08H233.681V270.672ZM230.033 266.4L228.513 266.336C228.497 272.432 227.761 276.544 225.601 277.248V278.848C227.425 278.464 228.625 276.928 229.313 274.192L231.713 278.672L233.041 277.968L229.729 271.952C229.921 270.368 230.033 268.528 230.033 266.4ZM251.392 277.552V273.84C252.944 273.136 253.856 271.92 253.856 270.4C253.856 267.872 251.424 266.24 247.696 266.24C243.968 266.24 241.536 267.872 241.536 270.4C241.536 271.936 242.448 273.136 244.016 273.856V277.552H240.88V279.008H254.528V277.552H251.392ZM243.216 270.4C243.216 268.736 245.008 267.68 247.696 267.68C250.384 267.68 252.192 268.736 252.192 270.4C252.192 272.032 250.384 273.104 247.696 273.104C245.008 273.104 243.216 272.032 243.216 270.4ZM245.6 274.352C246.24 274.48 246.944 274.544 247.696 274.544C248.464 274.544 249.168 274.48 249.808 274.352V277.552H245.6V274.352ZM256.863 275.776H258.079L258.495 266.512H256.463L256.863 275.776ZM257.471 279.584C258.143 279.584 258.655 279.072 258.655 278.4C258.655 277.744 258.143 277.232 257.471 277.232C256.799 277.232 256.287 277.744 256.287 278.4C256.287 279.072 256.799 279.584 257.471 279.584Z" fill="#2B1E34"/>
<path fill-rule="evenodd" clip-rule="evenodd" d="M155.014 206.328C155.005 206.551 155 206.775 155 207V224C155 232.837 162.163 240 171 240H284C292.837 240 300 232.837 300 224V207C300 198.163 292.837 191 284 191H171C165.409 191 160.487 193.868 157.626 198.213L150.777 199.022C148.958 199.237 148.349 201.578 149.836 202.638L155.014 206.328Z" fill="#F8EEFF"/>
<path d="M178.52 213.592L184.36 217.64L185.224 216.376L179.208 212.328C179.656 211.416 179.976 210.408 180.168 209.352L178.536 209.064C177.832 212.888 175.112 216.088 172.152 216.088V217.592C174.664 217.592 176.984 216.008 178.52 213.592ZM171.88 220.52V222.008H185.528V220.52H171.88ZM198.551 209V211.512H196.183V212.952H198.551V216.536H200.135V209H198.551ZM187.831 212.216V216.36H192.551C194.487 216.36 196.119 216.12 196.951 215.752V214.472C196.071 214.856 194.503 215.08 192.647 215.08H189.399V213.464H195.287V209.336H187.799V210.616H193.719V212.216H187.831ZM198.519 218.552H190.071V217.288H188.503V222.488H200.087V217.288H198.519V218.552ZM190.071 221.224V219.8H198.519V221.224H190.071ZM209.477 213.928C212.773 213.928 215.477 213.256 215.477 211.432C215.477 209.624 212.773 208.952 209.477 208.952C206.181 208.952 203.477 209.624 203.477 211.432C203.477 213.256 206.181 213.928 209.477 213.928ZM209.477 212.712C207.093 212.712 205.109 212.344 205.109 211.432C205.109 210.536 207.093 210.152 209.477 210.152C211.861 210.152 213.845 210.536 213.845 211.432C213.845 212.344 211.861 212.712 209.477 212.712ZM202.661 216.008H216.309V214.776H202.661V216.008ZM203.605 222.504H215.605V221.32H205.157V220.36H215.365V217.096H203.573V218.28H213.813V219.24H203.605V222.504ZM235.624 209.704H230.136V208.456H228.536V209.704H223.08V210.84H235.624V209.704ZM230.136 216.344V215.336C233.08 215.256 235.08 214.68 235.08 213.432C235.08 212.072 232.728 211.512 229.352 211.512C225.976 211.512 223.624 212.072 223.624 213.432C223.624 214.68 225.624 215.256 228.568 215.336V216.344H222.536V217.512H236.184V216.344H230.136ZM225.208 213.432C225.208 212.888 227 212.616 229.352 212.616C231.72 212.616 233.496 212.888 233.496 213.432C233.496 213.976 231.72 214.248 229.352 214.248C227 214.248 225.208 213.976 225.208 213.432ZM229.352 218.408C226.088 218.408 223.368 218.968 223.368 220.552C223.368 222.136 226.088 222.712 229.352 222.712C232.616 222.712 235.336 222.136 235.336 220.552C235.336 218.968 232.616 218.408 229.352 218.408ZM229.352 221.56C227.128 221.56 225.016 221.288 225.016 220.552C225.016 219.832 227.128 219.544 229.352 219.544C231.576 219.544 233.688 219.832 233.688 220.552C233.688 221.288 231.576 221.56 229.352 221.56ZM245.543 220.52V217.448H250.663V209.4H249.095V211.848H240.391V209.4H238.823V217.448H243.927V220.52H237.927V222.008H251.575V220.52H245.543ZM240.391 213.272H249.095V216.024H240.391V213.272ZM258.854 208.968H257.238V211.16H253.622V212.568H262.486V211.16H258.854V208.968ZM267.606 214.536H265.686V209H264.102V222.664H265.686V216.056H267.606V214.536ZM258.054 213.656C255.83 213.656 254.246 215.32 254.246 217.832C254.246 220.344 255.83 222.008 258.054 222.008C260.278 222.008 261.845 220.344 261.845 217.832C261.845 215.32 260.278 213.656 258.054 213.656ZM258.054 220.632C256.774 220.632 255.782 219.576 255.782 217.832C255.782 216.088 256.774 215.032 258.054 215.032C259.318 215.032 260.31 216.088 260.31 217.832C260.31 219.576 259.318 220.632 258.054 220.632ZM279.796 218.504H281.444V209.48H269.54V210.968H279.796V218.504ZM275.428 220.52V214.424H273.796V220.52H268.708V222.008H282.356V220.52H275.428Z" fill="#2B1E34"/>
<path fill-rule="evenodd" clip-rule="evenodd" d="M136.26 107.08C145.993 107.08 154.919 105.061 161.88 101.699C168.841 105.061 177.767 107.08 187.5 107.08C197.233 107.08 206.159 105.061 213.12 101.699C220.081 105.061 229.007 107.08 238.74 107.08C260.975 107.08 279 96.5408 279 83.54C279 70.5392 260.975 60 238.74 60C229.007 60 220.081 62.0194 213.12 65.3807C206.159 62.0194 197.233 60 187.5 60C177.767 60 168.841 62.0194 161.88 65.3806C154.919 62.0194 145.993 60 136.26 60C114.025 60 96 70.5392 96 83.54C96 96.5408 114.025 107.08 136.26 107.08Z" fill="#9E30F4"/>
<path d="M123.457 89.664C124.689 89.664 125.585 89.232 126.145 88.48V89.44H128.993V76H126.145V81.024C125.585 80.272 124.689 79.84 123.457 79.84C120.769 79.84 118.897 81.904 118.897 84.752C118.897 87.6 120.769 89.664 123.457 89.664ZM123.905 87.232C122.545 87.232 121.681 86.192 121.681 84.752C121.681 83.312 122.545 82.272 123.905 82.272C125.297 82.272 126.193 83.312 126.193 84.752C126.193 86.192 125.297 87.232 123.905 87.232ZM135.542 89.664C137.814 89.664 139.654 88.432 140.134 86.64H137.27C137.03 87.088 136.358 87.376 135.542 87.376C134.47 87.376 133.718 86.752 133.494 85.664H140.358C140.406 85.328 140.422 85.024 140.422 84.752C140.422 81.888 138.406 79.84 135.542 79.84C132.678 79.84 130.662 81.904 130.662 84.752C130.662 87.616 132.678 89.664 135.542 89.664ZM133.478 83.824C133.718 82.704 134.422 82.096 135.542 82.096C136.662 82.096 137.398 82.704 137.638 83.824H133.478ZM142.095 89.44H144.943V84.352C144.991 83.024 145.487 82.288 146.415 82.288C147.455 82.288 147.999 83.072 147.999 84.496V89.44H150.847V84.352C150.895 83.024 151.391 82.288 152.319 82.288C153.359 82.288 153.903 83.072 153.903 84.496V89.44H156.751V84.016C156.751 81.408 155.311 79.84 153.151 79.84C151.727 79.84 150.735 80.288 150.031 81.184C149.407 80.32 148.431 79.84 147.247 79.84C146.207 79.84 145.503 80.208 144.943 80.96V80.064H142.095V89.44ZM163.17 79.84C160.274 79.84 158.194 81.904 158.194 84.752C158.194 87.6 160.274 89.664 163.17 89.664C166.066 89.664 168.146 87.6 168.146 84.752C168.146 81.904 166.066 79.84 163.17 79.84ZM163.17 82.272C164.514 82.272 165.394 83.312 165.394 84.752C165.394 86.192 164.514 87.232 163.17 87.232C161.826 87.232 160.946 86.192 160.946 84.752C160.946 83.312 161.826 82.272 163.17 82.272ZM173.894 89.664C175.126 89.664 176.022 89.232 176.582 88.48V89.44H179.43V76H176.582V81.024C176.022 80.272 175.126 79.84 173.894 79.84C171.206 79.84 169.334 81.904 169.334 84.752C169.334 87.6 171.206 89.664 173.894 89.664ZM174.342 87.232C172.982 87.232 172.118 86.192 172.118 84.752C172.118 83.312 172.982 82.272 174.342 82.272C175.734 82.272 176.63 83.312 176.63 84.752C176.63 86.192 175.734 87.232 174.342 87.232ZM185.66 89.664C186.892 89.664 187.788 89.232 188.348 88.48V89.44H191.196V80.064H188.348V81.024C187.788 80.272 186.892 79.84 185.66 79.84C182.972 79.84 181.1 81.904 181.1 84.752C181.1 87.6 182.972 89.664 185.66 89.664ZM186.108 87.232C184.748 87.232 183.884 86.192 183.884 84.752C183.884 83.312 184.748 82.272 186.108 82.272C187.5 82.272 188.396 83.312 188.396 84.752C188.396 86.192 187.5 87.232 186.108 87.232ZM199.633 80.064L197.585 85.856L195.553 80.064H192.401L196.097 89.184L194.401 93.344H197.201L202.593 80.064H199.633ZM212.683 89.664C214.955 89.664 216.795 88.432 217.275 86.64H214.411C214.171 87.088 213.499 87.376 212.683 87.376C211.611 87.376 210.859 86.752 210.635 85.664H217.499C217.547 85.328 217.563 85.024 217.563 84.752C217.563 81.888 215.547 79.84 212.683 79.84C209.819 79.84 207.803 81.904 207.803 84.752C207.803 87.616 209.819 89.664 212.683 89.664ZM210.619 83.824C210.859 82.704 211.563 82.096 212.683 82.096C213.803 82.096 214.539 82.704 214.779 83.824H210.619ZM225.151 80.064L223.055 86.176L220.959 80.064H217.871L221.471 89.44H224.431L228.031 80.064H225.151ZM233.214 89.664C235.486 89.664 237.326 88.432 237.806 86.64H234.942C234.702 87.088 234.03 87.376 233.214 87.376C232.142 87.376 231.39 86.752 231.166 85.664H238.03C238.078 85.328 238.094 85.024 238.094 84.752C238.094 81.888 236.078 79.84 233.214 79.84C230.35 79.84 228.334 81.904 228.334 84.752C228.334 87.616 230.35 89.664 233.214 89.664ZM231.15 83.824C231.39 82.704 232.094 82.096 233.214 82.096C234.334 82.096 235.07 82.704 235.31 83.824H231.15ZM239.767 89.44H242.615V84.624C242.615 83.168 243.287 82.288 244.407 82.288C245.479 82.288 246.055 83.072 246.055 84.496V89.44H248.903V84.016C248.903 81.424 247.415 79.84 245.239 79.84C244.039 79.84 243.175 80.272 242.615 81.024V80.064H239.767V89.44ZM256.433 80.064H254.577V77.28H251.729V80.064H249.873V82.512H251.729V89.44H254.577V82.512H256.433V80.064Z" fill="white"/>
<path d="M172.129 352.975C170.769 352.974 169.465 352.433 168.503 351.47C167.542 350.507 167.001 349.201 167 347.839C167 347.513 167.13 347.199 167.36 346.968C167.591 346.737 167.904 346.607 168.23 346.607C168.557 346.607 168.87 346.737 169.1 346.968C169.331 347.199 169.461 347.513 169.461 347.839C169.461 348.548 169.742 349.227 170.242 349.729C170.742 350.23 171.421 350.511 172.129 350.511C172.836 350.511 173.515 350.23 174.015 349.729C174.516 349.227 174.797 348.548 174.797 347.839C174.797 347.513 174.926 347.199 175.157 346.968C175.388 346.737 175.701 346.607 176.027 346.607C176.353 346.607 176.666 346.737 176.897 346.968C177.128 347.199 177.257 347.513 177.257 347.839C177.255 349.201 176.715 350.506 175.753 351.469C174.792 352.431 173.488 352.973 172.129 352.975Z" fill="white"/>
<path d="M180.477 352.975C180.169 352.993 179.867 352.887 179.637 352.682C179.406 352.477 179.266 352.189 179.247 351.881V338.107C179.28 337.803 179.423 337.522 179.65 337.317C179.877 337.113 180.172 337 180.477 337C180.783 337 181.077 337.113 181.304 337.317C181.532 337.522 181.675 337.803 181.708 338.107V351.877C181.69 352.186 181.55 352.475 181.319 352.681C181.089 352.887 180.786 352.993 180.477 352.975Z" fill="white"/>
<path d="M192.724 341.131C192.398 341.131 192.085 341.261 191.854 341.492C191.623 341.723 191.494 342.036 191.494 342.363V347.84C191.494 348.548 191.213 349.228 190.712 349.729C190.212 350.23 189.533 350.511 188.826 350.511C188.118 350.511 187.44 350.23 186.939 349.729C186.439 349.228 186.158 348.548 186.158 347.84V342.363C186.158 342.036 186.028 341.723 185.797 341.492C185.567 341.261 185.254 341.131 184.927 341.131C184.601 341.131 184.288 341.261 184.057 341.492C183.827 341.723 183.697 342.036 183.697 342.363V347.84C183.691 348.763 183.934 349.671 184.4 350.467C184.866 351.264 185.539 351.919 186.347 352.365C187.154 352.81 188.067 353.029 188.989 352.997C189.91 352.966 190.806 352.686 191.582 352.187C191.682 352.457 191.874 352.684 192.125 352.827C192.375 352.97 192.667 353.021 192.951 352.97C193.235 352.919 193.491 352.77 193.677 352.549C193.862 352.329 193.964 352.05 193.965 351.761V342.363C193.965 342.2 193.933 342.039 193.87 341.889C193.808 341.739 193.716 341.603 193.601 341.488C193.486 341.373 193.349 341.283 193.198 341.222C193.048 341.16 192.887 341.13 192.724 341.131Z" fill="white"/>
<path d="M206.265 341.25C205.969 341.11 205.631 341.093 205.323 341.202C205.016 341.312 204.764 341.539 204.623 341.834L201.277 348.874L197.927 341.834C197.861 341.682 197.765 341.545 197.646 341.431C197.526 341.317 197.385 341.229 197.23 341.17C197.076 341.112 196.911 341.086 196.746 341.093C196.581 341.1 196.419 341.14 196.27 341.211C196.121 341.282 195.988 341.382 195.878 341.506C195.768 341.629 195.685 341.774 195.632 341.93C195.579 342.087 195.558 342.253 195.571 342.418C195.584 342.582 195.629 342.743 195.705 342.89L200.166 352.27L200.201 352.33L200.233 352.39C200.266 352.443 200.304 352.494 200.345 352.541V352.563C200.393 352.615 200.446 352.664 200.503 352.707L200.549 352.739C200.599 352.776 200.652 352.809 200.707 352.837H200.732C200.804 352.871 200.879 352.899 200.957 352.918H201.013C201.089 352.933 201.167 352.942 201.245 352.943C201.323 352.942 201.4 352.933 201.477 352.918H201.53C201.608 352.899 201.685 352.871 201.758 352.837H201.783C201.839 352.809 201.893 352.776 201.944 352.739L201.987 352.707C202.045 352.664 202.1 352.616 202.148 352.563C202.147 352.556 202.147 352.548 202.148 352.541C202.19 352.495 202.226 352.444 202.257 352.39L202.292 352.33L202.328 352.27L206.785 342.89C206.928 342.602 206.954 342.27 206.857 341.964C206.76 341.658 206.547 341.402 206.265 341.25Z" fill="white"/>
<path d="M207.685 339.48C208.364 339.48 208.915 338.928 208.915 338.248C208.915 337.567 208.364 337.016 207.685 337.016C207.005 337.016 206.455 337.567 206.455 338.248C206.455 338.928 207.005 339.48 207.685 339.48Z" fill="white"/>
<path d="M172.129 347.287C171.114 347.287 170.123 346.986 169.279 346.421C168.436 345.857 167.779 345.055 167.39 344.116C167.002 343.178 166.901 342.145 167.099 341.149C167.296 340.153 167.785 339.238 168.502 338.52C169.219 337.802 170.133 337.312 171.128 337.114C172.123 336.916 173.154 337.018 174.091 337.407C175.028 337.795 175.829 338.453 176.393 339.298C176.957 340.143 177.257 341.135 177.257 342.151C177.257 342.478 177.128 342.791 176.897 343.022C176.666 343.253 176.353 343.383 176.027 343.383C175.701 343.383 175.388 343.253 175.157 343.022C174.926 342.791 174.797 342.478 174.797 342.151C174.797 341.623 174.64 341.106 174.347 340.667C174.054 340.228 173.637 339.885 173.15 339.683C172.662 339.481 172.126 339.428 171.608 339.531C171.091 339.634 170.615 339.888 170.242 340.262C169.869 340.636 169.615 341.112 169.512 341.63C169.409 342.148 169.462 342.685 169.664 343.174C169.866 343.662 170.208 344.079 170.646 344.373C171.085 344.666 171.601 344.823 172.129 344.823C172.455 344.823 172.768 344.953 172.999 345.184C173.229 345.415 173.359 345.728 173.359 346.055C173.359 346.381 173.229 346.695 172.999 346.926C172.768 347.157 172.455 347.287 172.129 347.287Z" fill="white"/>
<mask id="path-16-inside-1_2546_10706" fill="white">
<path fill-rule="evenodd" clip-rule="evenodd" d="M292.343 205.821C295.572 205.821 298.552 203.893 300.949 200.641C303.192 203.893 305.979 205.821 309 205.821C312.186 205.821 315.113 203.676 317.415 200.094C319.795 203.676 322.823 205.821 326.119 205.821C333.785 205.821 340 194.22 340 179.91C340 165.601 333.785 154 326.119 154C322.823 154 319.795 156.145 317.415 159.727C315.113 156.145 312.186 154 309 154C305.979 154 303.192 155.927 300.949 159.18C298.552 155.927 295.572 154 292.343 154C284.422 154 278 165.601 278 179.91C278 194.22 284.422 205.821 292.343 205.821Z"/>
</mask>
<path d="M300.949 200.641L302.596 199.505L301.004 197.196L299.339 199.454L300.949 200.641ZM317.415 200.094L319.08 198.987L317.386 196.438L315.732 199.013L317.415 200.094ZM317.415 159.727L315.732 160.808L317.386 163.383L319.08 160.834L317.415 159.727ZM300.949 159.18L299.339 160.367L301.004 162.625L302.596 160.315L300.949 159.18ZM299.339 199.454C297.161 202.41 294.711 203.821 292.343 203.821V207.821C296.434 207.821 299.943 205.377 302.559 201.827L299.339 199.454ZM309 203.821C306.901 203.821 304.646 202.479 302.596 199.505L299.303 201.776C301.738 205.308 305.057 207.821 309 207.821V203.821ZM315.732 199.013C313.606 202.322 311.213 203.821 309 203.821V207.821C313.159 207.821 316.62 205.031 319.097 201.175L315.732 199.013ZM326.119 203.821C323.764 203.821 321.271 202.283 319.08 198.987L315.749 201.201C318.32 205.07 321.883 207.821 326.119 207.821V203.821ZM338 179.91C338 186.802 336.499 192.942 334.172 197.287C331.799 201.716 328.859 203.821 326.119 203.821V207.821C331.046 207.821 335.046 204.125 337.697 199.176C340.394 194.144 342 187.329 342 179.91H338ZM326.119 156C328.859 156 331.799 158.105 334.172 162.533C336.499 166.878 338 173.019 338 179.91H342C342 172.492 340.394 165.677 337.697 160.645C335.046 155.696 331.046 152 326.119 152V156ZM319.08 160.834C321.271 157.538 323.764 156 326.119 156V152C321.883 152 318.32 154.751 315.749 158.62L319.08 160.834ZM309 156C311.213 156 313.606 157.499 315.732 160.808L319.097 158.646C316.62 154.79 313.159 152 309 152V156ZM302.596 160.315C304.646 157.342 306.901 156 309 156V152C305.057 152 301.738 154.513 299.303 158.045L302.596 160.315ZM292.343 156C294.711 156 297.161 157.411 299.339 160.367L302.559 157.994C299.943 154.444 296.434 152 292.343 152V156ZM280 179.91C280 173.029 281.548 166.898 283.951 162.558C286.392 158.148 289.442 156 292.343 156V152C287.323 152 283.202 155.652 280.451 160.62C277.662 165.658 276 172.482 276 179.91H280ZM292.343 203.821C289.442 203.821 286.392 201.672 283.951 197.263C281.548 192.923 280 186.792 280 179.91H276C276 187.339 277.662 194.163 280.451 199.201C283.202 204.169 287.323 207.821 292.343 207.821V203.821Z" fill="#FF809A" mask="url(#path-16-inside-1_2546_10706)"/>
<rect x="311.808" y="267.732" width="8" height="8" rx="4" transform="rotate(117.81 311.808 267.732)" fill="#FFE6EB"/>
<rect x="330.808" y="133.732" width="8" height="8" rx="4" transform="rotate(117.81 330.808 133.732)" fill="white"/>
<path d="M306.24 109.76L304.68 107.04L300.36 110.12L300.88 104.8H297.68L298.2 110.12L293.92 107L292.32 109.76L297.16 111.96L292.32 114.12L293.88 116.88L298.2 113.8L297.68 119.08H300.88L300.36 113.76L304.64 116.88L306.24 114.12L301.4 111.96L306.24 109.76Z" fill="#FEFFC9"/>
<rect x="48.8081" y="182.732" width="8" height="8" rx="4" transform="rotate(117.81 48.8081 182.732)" fill="#FF5C7E"/>
<path d="M73.24 213.76L71.68 211.04L67.36 214.12L67.88 208.8H64.68L65.2 214.12L60.92 211L59.32 213.76L64.16 215.96L59.32 218.12L60.88 220.88L65.2 217.8L64.68 223.08H67.88L67.36 217.76L71.64 220.88L73.24 218.12L68.4 215.96L73.24 213.76Z" fill="#6DE98D"/>
<path d="M82.716 116.184L81.312 113.736L77.424 116.508L77.892 111.72H75.012L75.48 116.508L71.628 113.7L70.188 116.184L74.544 118.164L70.188 120.108L71.592 122.592L75.48 119.82L75.012 124.572H77.892L77.424 119.784L81.276 122.592L82.716 120.108L78.36 118.164L82.716 116.184Z" fill="#9E30F4"/>
</g>
<defs>
<linearGradient id="paint0_linear_2546_10706" x1="1019.5" y1="-36" x2="375" y2="375" gradientUnits="userSpaceOnUse">
<stop stop-color="#9E30F4"/>
<stop offset="1" stop-color="#FFE6EB"/>
</linearGradient>
<clipPath id="clip0_2546_10706">
<rect width="375" height="375" fill="white"/>
</clipPath>
</defs>
</svg>
