<svg width="375" height="375" viewBox="0 0 375 375" fill="none" xmlns="http://www.w3.org/2000/svg">
    <g clip-path="url(#oc2bgjqs5a)">
        <path fill="#fff" d="M0 0h375v375H0z"/>
        <path transform="rotate(90 375 0)" fill="url(#zxjrr3w7fb)" d="M375 0h375v375H375z"/>
        <path fill-rule="evenodd" clip-rule="evenodd" d="M92.014 149.328c-.01.223-.014.447-.014.672v17c0 8.837 7.163 16 16 16h145c8.837 0 16-7.163 16-16v-17c0-8.837-7.163-16-16-16H108c-5.591 0-10.513 2.868-13.374 7.213l-6.85.809c-1.818.215-2.427 2.556-.94 3.616l5.178 3.69z" fill="#F8EEFF"/>
        <path d="M120.048 162.144h1.584V152h-1.584v10.144zm-6.704-2.064c2.672 0 4.32-1.68 4.32-3.968 0-2.288-1.648-3.968-4.32-3.968-2.672 0-4.336 1.68-4.336 3.968 0 2.288 1.664 3.968 4.336 3.968zm0-1.344c-1.632 0-2.752-1.008-2.752-2.624s1.12-2.64 2.752-2.64c1.616 0 2.736 1.024 2.736 2.64s-1.12 2.624-2.736 2.624zm-3.136 6.752H122v-1.44h-10.176v-3.024h-1.616v4.464zm20.703-8.896 5.84 4.048.864-1.264-6.016-4.048c.448-.912.768-1.92.96-2.976l-1.632-.288c-.704 3.824-3.424 7.024-6.384 7.024v1.504c2.512 0 4.832-1.584 6.368-4zm-6.64 6.928v1.488h13.648v-1.488h-13.648zm29.678-5.984h-1.92V152h-1.584v13.664h1.584v-6.608h1.92v-1.52zm-12.064 5.856v-4.096h6.064v-1.456h-6.064v-3.888h6.304v-1.456h-7.888v12.352h5.376c1.312 0 2.752-.24 3.584-.656v-1.44c-.832.384-2.24.64-3.536.64h-3.84zm24.239-1.44h1.664v-9.472h-11.904v1.488h10.24v7.984zm-11.072 3.056H168.7v-1.488h-13.648v1.488zM182.075 152v2.912h-2.224v-2.832h-1.504v7.904h1.504v-3.632h2.224v3.776h1.504V152h-1.504zm-4.656 7.104v-1.248c-.896.368-2.224.512-3.745.512h-1.343v-1.824h4.32v-4.208h-5.792v1.248h4.32v1.76h-4.32v4.272h2.703c1.569 0 2.961-.144 3.857-.512zm-5.776 6.384h11.936v-4.608h-11.936v4.608zm1.568-3.344h8.816v2.08h-8.816v-2.08zm23.747-5.552 5.84 4.048.864-1.264-6.016-4.048c.448-.912.768-1.92.96-2.976l-1.632-.288c-.704 3.824-3.425 7.024-6.384 7.024v1.504c2.512 0 4.832-1.584 6.368-4zm-6.64 6.928v1.488h13.648v-1.488h-13.648zm22.974.048v-2.528h5.376v-1.408h-10.464v-2.192h10.08v-1.392h-10.08v-2.144h10.256v-1.408h-11.84v8.544h5.072v2.528h-5.984v1.44h13.648v-1.44h-6.064zm18.975 2.096h1.584V152h-1.584v13.664zm-10.384-.816h5.536c1.328 0 2.752-.24 3.584-.656v-1.456c-.832.4-2.24.656-3.536.656h-4v-4.096h6.112v-6.8h-7.728v1.456h6.144v3.888h-6.112v7.008zm22.206-1.296v-2.576h5.36v-1.408h-10.464v-2.16h10.256v-4.912h-11.84v1.408h10.272v2.144h-10.272v4.928h5.072v2.576h-5.984v1.456h13.648v-1.456h-6.048z" fill="#2B1E34"/>
        <path fill-rule="evenodd" clip-rule="evenodd" d="M81.014 263.328c-.01.223-.014.447-.014.672v17c0 8.837 7.163 16 16 16h163c8.837 0 16-7.163 16-16v-17c0-8.837-7.163-16-16-16H97c-5.591 0-10.513 2.868-13.374 7.213l-6.85.809c-1.818.215-2.427 2.556-.94 3.616l5.178 3.69z" fill="#F8EEFF"/>
        <path d="M109.048 279.664h1.584V266h-1.584v13.664zm-10.528-.848c4.672 0 7.584-3.552 7.584-9.024v-3.296H98.52v1.456h5.968v1.872c0 4.576-2.24 7.472-5.968 7.488v1.504zm27.679-5.712h-2.416v-5.056h2.272v-1.472h-11.936v1.472h2.272v5.056h-2.416v1.456h12.224v-1.456zm-8.208-5.056h4.192v5.056h-4.192v-5.056zm-4.72 9.456v1.504h13.648v-1.504h-13.648zM139.829 266v13.664h1.584V266h-1.584zm-8.8 11.392v-4.096h6.208v-1.456h-6.208v-3.888h6.448v-1.456h-8.032v12.352h5.568c1.312 0 2.704-.24 3.536-.656v-1.456c-.832.4-2.24.656-3.536.656h-3.984zm24.095-4.992h1.584v-6.272h-11.712v1.328h10.128v1.968h-10.128v1.296h10.128v1.68zm-4.304.896v-1.84h-1.6v1.84h-5.168v1.344H157.7v-1.344h-6.88zm-4.208 2.48h-1.616v3.728h12v-1.344h-10.384v-2.384zm19.647-4.848c3.296 0 6-.672 6-2.496 0-1.808-2.704-2.48-6-2.48s-6 .672-6 2.48c0 1.824 2.704 2.496 6 2.496zm0-1.216c-2.384 0-4.368-.368-4.368-1.28 0-.896 1.984-1.28 4.368-1.28 2.384 0 4.368.384 4.368 1.28 0 .912-1.984 1.28-4.368 1.28zm-6.816 3.296h13.648v-1.232h-13.648v1.232zm.944 6.496h12v-1.184h-10.448v-.96h10.208v-3.264h-11.792v1.184h10.24v.96h-10.208v3.264zm31.299-10.656V266h-1.584v7.712h1.584v-3.344h1.92v-1.52h-1.92zm-3.904-2.608h-1.552v2h-4.88v-2h-1.552v6.816h7.984v-6.816zm-6.432 5.504v-2.208h4.88v2.208h-4.88zm.496 4.048h9.84v-1.328h-11.424v5.024h11.568v-1.328h-9.984v-2.368zm27.15-4.256h-1.92V266h-1.584v13.664h1.584v-6.608h1.92v-1.52zm-9.776-5.216c-2.4 0-4.08 2.016-4.08 6.352s1.68 6.352 4.08 6.352c2.384 0 4.064-2.016 4.064-6.352s-1.68-6.352-4.064-6.352zm0 11.248c-1.424 0-2.496-1.424-2.496-4.896 0-3.456 1.072-4.896 2.496-4.896 1.408 0 2.48 1.44 2.48 4.896 0 3.472-1.072 4.896-2.48 4.896zm25.167-6.032h-1.92V266h-1.584v13.664h1.584v-6.608h1.92v-1.52zm-13.792-3.584h5.824v1.872c0 4.576-2.112 7.472-5.824 7.488v1.504c4.64 0 7.44-3.584 7.44-9.024v-3.296h-7.44v1.456zM237.121 266v13.664h1.504V266h-1.504zm-3.44 4.672h-2.16v1.504h2.16v7.248h1.504V266.08h-1.504v4.592zm-3.648-4.272-1.52-.064c-.016 6.096-.752 10.208-2.912 10.912v1.6c1.824-.384 3.024-1.92 3.712-4.656l2.4 4.48 1.328-.704-3.312-6.016c.192-1.584.304-3.424.304-5.552zm21.359 11.152v-3.712c1.552-.704 2.464-1.92 2.464-3.44 0-2.528-2.432-4.16-6.16-4.16s-6.16 1.632-6.16 4.16c0 1.536.912 2.736 2.48 3.456v3.696h-3.136v1.456h13.648v-1.456h-3.136zm-8.176-7.152c0-1.664 1.792-2.72 4.48-2.72 2.688 0 4.496 1.056 4.496 2.72 0 1.632-1.808 2.704-4.496 2.704-2.688 0-4.48-1.072-4.48-2.704zm2.384 3.952c.64.128 1.344.192 2.096.192.768 0 1.472-.064 2.112-.192v3.2H245.6v-3.2zm11.263 1.424h1.216l.416-9.264h-2.032l.4 9.264zm.608 3.808c.672 0 1.184-.512 1.184-1.184 0-.656-.512-1.168-1.184-1.168-.672 0-1.184.512-1.184 1.168 0 .672.512 1.184 1.184 1.184z" fill="#2B1E34"/>
        <path fill-rule="evenodd" clip-rule="evenodd" d="M155.014 206.328A16.66 16.66 0 0 0 155 207v17c0 8.837 7.163 16 16 16h113c8.837 0 16-7.163 16-16v-17c0-8.837-7.163-16-16-16H171c-5.591 0-10.513 2.868-13.374 7.213l-6.849.809c-1.819.215-2.428 2.556-.941 3.616l5.178 3.69z" fill="#F8EEFF"/>
        <path d="m178.52 213.592 5.84 4.048.864-1.264-6.016-4.048c.448-.912.768-1.92.96-2.976l-1.632-.288c-.704 3.824-3.424 7.024-6.384 7.024v1.504c2.512 0 4.832-1.584 6.368-4zm-6.64 6.928v1.488h13.648v-1.488H171.88zM198.551 209v2.512h-2.368v1.44h2.368v3.584h1.584V209h-1.584zm-10.72 3.216v4.144h4.72c1.936 0 3.568-.24 4.4-.608v-1.28c-.88.384-2.448.608-4.304.608h-3.248v-1.616h5.888v-4.128h-7.488v1.28h5.92v1.6h-5.888zm10.688 6.336h-8.448v-1.264h-1.568v5.2h11.584v-5.2h-1.568v1.264zm-8.448 2.672V219.8h8.448v1.424h-8.448zm19.406-7.296c3.296 0 6-.672 6-2.496 0-1.808-2.704-2.48-6-2.48s-6 .672-6 2.48c0 1.824 2.704 2.496 6 2.496zm0-1.216c-2.384 0-4.368-.368-4.368-1.28 0-.896 1.984-1.28 4.368-1.28 2.384 0 4.368.384 4.368 1.28 0 .912-1.984 1.28-4.368 1.28zm-6.816 3.296h13.648v-1.232h-13.648v1.232zm.944 6.496h12v-1.184h-10.448v-.96h10.208v-3.264h-11.792v1.184h10.24v.96h-10.208v3.264zm32.019-12.8h-5.488v-1.248h-1.6v1.248h-5.456v1.136h12.544v-1.136zm-5.488 6.64v-1.008c2.944-.08 4.944-.656 4.944-1.904 0-1.36-2.352-1.92-5.728-1.92s-5.728.56-5.728 1.92c0 1.248 2 1.824 4.944 1.904v1.008h-6.032v1.168h13.648v-1.168h-6.048zm-4.928-2.912c0-.544 1.792-.816 4.144-.816 2.368 0 4.144.272 4.144.816 0 .544-1.776.816-4.144.816-2.352 0-4.144-.272-4.144-.816zm4.144 4.976c-3.264 0-5.984.56-5.984 2.144s2.72 2.16 5.984 2.16 5.984-.576 5.984-2.16-2.72-2.144-5.984-2.144zm0 3.152c-2.224 0-4.336-.272-4.336-1.008 0-.72 2.112-1.008 4.336-1.008s4.336.288 4.336 1.008c0 .736-2.112 1.008-4.336 1.008zm16.191-1.04v-3.072h5.12V209.4h-1.568v2.448h-8.704V209.4h-1.568v8.048h5.104v3.072h-6v1.488h13.648v-1.488h-6.032zm-5.152-7.248h8.704v2.752h-8.704v-2.752zm18.463-4.304h-1.616v2.192h-3.616v1.408h8.864v-1.408h-3.632v-2.192zm8.752 5.568h-1.92V209h-1.584v13.664h1.584v-6.608h1.92v-1.52zm-9.552-.88c-2.224 0-3.808 1.664-3.808 4.176 0 2.512 1.584 4.176 3.808 4.176 2.224 0 3.791-1.664 3.791-4.176 0-2.512-1.567-4.176-3.791-4.176zm0 6.976c-1.28 0-2.272-1.056-2.272-2.8 0-1.744.992-2.8 2.272-2.8 1.264 0 2.256 1.056 2.256 2.8 0 1.744-.992 2.8-2.256 2.8zm21.742-2.128h1.648v-9.024H269.54v1.488h10.256v7.536zm-4.368 2.016v-6.096h-1.632v6.096h-5.088v1.488h13.648v-1.488h-6.928z" fill="#2B1E34"/>
        <path fill-rule="evenodd" clip-rule="evenodd" d="M136.26 107.08c9.733 0 18.659-2.019 25.62-5.381 6.961 3.362 15.887 5.381 25.62 5.381s18.659-2.019 25.62-5.381c6.961 3.362 15.887 5.381 25.62 5.381 22.235 0 40.26-10.54 40.26-23.54S260.975 60 238.74 60c-9.733 0-18.659 2.02-25.62 5.38-6.961-3.36-15.887-5.38-25.62-5.38s-18.659 2.02-25.62 5.38c-6.961-3.36-15.887-5.38-25.62-5.38C114.025 60 96 70.54 96 83.54s18.025 23.54 40.26 23.54z" fill="#9E30F4"/>
        <path d="M123.457 89.664c1.232 0 2.128-.432 2.688-1.184v.96h2.848V76h-2.848v5.024c-.56-.752-1.456-1.184-2.688-1.184-2.688 0-4.56 2.064-4.56 4.912s1.872 4.912 4.56 4.912zm.448-2.432c-1.36 0-2.224-1.04-2.224-2.48s.864-2.48 2.224-2.48c1.392 0 2.288 1.04 2.288 2.48s-.896 2.48-2.288 2.48zm11.637 2.432c2.272 0 4.112-1.232 4.592-3.024h-2.864c-.24.448-.912.736-1.728.736-1.072 0-1.824-.624-2.048-1.712h6.864c.048-.336.064-.64.064-.912 0-2.864-2.016-4.912-4.88-4.912s-4.88 2.064-4.88 4.912c0 2.864 2.016 4.912 4.88 4.912zm-2.064-5.84c.24-1.12.944-1.728 2.064-1.728s1.856.608 2.096 1.728h-4.16zm8.617 5.616h2.848v-5.088c.048-1.328.544-2.064 1.472-2.064 1.04 0 1.584.784 1.584 2.208v4.944h2.848v-5.088c.048-1.328.544-2.064 1.472-2.064 1.04 0 1.584.784 1.584 2.208v4.944h2.848v-5.424c0-2.608-1.44-4.176-3.6-4.176-1.424 0-2.416.448-3.12 1.344-.624-.864-1.6-1.344-2.784-1.344-1.04 0-1.744.368-2.304 1.12v-.896h-2.848v9.376zm21.075-9.6c-2.896 0-4.976 2.064-4.976 4.912s2.08 4.912 4.976 4.912 4.976-2.064 4.976-4.912-2.08-4.912-4.976-4.912zm0 2.432c1.344 0 2.224 1.04 2.224 2.48s-.88 2.48-2.224 2.48c-1.344 0-2.224-1.04-2.224-2.48s.88-2.48 2.224-2.48zm10.724 7.392c1.232 0 2.128-.432 2.688-1.184v.96h2.848V76h-2.848v5.024c-.56-.752-1.456-1.184-2.688-1.184-2.688 0-4.56 2.064-4.56 4.912s1.872 4.912 4.56 4.912zm.448-2.432c-1.36 0-2.224-1.04-2.224-2.48s.864-2.48 2.224-2.48c1.392 0 2.288 1.04 2.288 2.48s-.896 2.48-2.288 2.48zm11.318 2.432c1.232 0 2.128-.432 2.688-1.184v.96h2.848v-9.376h-2.848v.96c-.56-.752-1.456-1.184-2.688-1.184-2.688 0-4.56 2.064-4.56 4.912s1.872 4.912 4.56 4.912zm.448-2.432c-1.36 0-2.224-1.04-2.224-2.48s.864-2.48 2.224-2.48c1.392 0 2.288 1.04 2.288 2.48s-.896 2.48-2.288 2.48zm13.525-7.168-2.048 5.792-2.032-5.792h-3.152l3.696 9.12-1.696 4.16h2.8l5.392-13.28h-2.96zm13.05 9.6c2.272 0 4.112-1.232 4.592-3.024h-2.864c-.24.448-.912.736-1.728.736-1.072 0-1.824-.624-2.048-1.712h6.864c.048-.336.064-.64.064-.912 0-2.864-2.016-4.912-4.88-4.912s-4.88 2.064-4.88 4.912c0 2.864 2.016 4.912 4.88 4.912zm-2.064-5.84c.24-1.12.944-1.728 2.064-1.728s1.856.608 2.096 1.728h-4.16zm14.532-3.76-2.096 6.112-2.096-6.112h-3.088l3.6 9.376h2.96l3.6-9.376h-2.88zm8.063 9.6c2.272 0 4.112-1.232 4.592-3.024h-2.864c-.24.448-.912.736-1.728.736-1.072 0-1.824-.624-2.048-1.712h6.864c.048-.336.064-.64.064-.912 0-2.864-2.016-4.912-4.88-4.912s-4.88 2.064-4.88 4.912c0 2.864 2.016 4.912 4.88 4.912zm-2.064-5.84c.24-1.12.944-1.728 2.064-1.728s1.856.608 2.096 1.728h-4.16zm8.617 5.616h2.848v-4.816c0-1.456.672-2.336 1.792-2.336 1.072 0 1.648.784 1.648 2.208v4.944h2.848v-5.424c0-2.592-1.488-4.176-3.664-4.176-1.2 0-2.064.432-2.624 1.184v-.96h-2.848v9.376zm16.666-9.376h-1.856V77.28h-2.848v2.784h-1.856v2.448h1.856v6.928h2.848v-6.928h1.856v-2.448zM172.129 352.975a5.13 5.13 0 0 1-3.626-1.505 5.146 5.146 0 0 1-1.503-3.631 1.23 1.23 0 1 1 2.461 0 2.666 2.666 0 0 0 4.554 1.89 2.674 2.674 0 0 0 .782-1.89 1.232 1.232 0 0 1 1.23-1.232 1.23 1.23 0 0 1 1.23 1.232 5.135 5.135 0 0 1-5.128 5.136zM180.477 352.975a1.167 1.167 0 0 1-1.23-1.094v-13.774a1.238 1.238 0 0 1 2.461 0v13.77a1.168 1.168 0 0 1-1.231 1.098zM192.724 341.131a1.23 1.23 0 0 0-1.23 1.232v5.477a2.672 2.672 0 0 1-2.668 2.671 2.667 2.667 0 0 1-2.668-2.671v-5.477a1.231 1.231 0 0 0-2.461 0v5.477a5.135 5.135 0 0 0 2.65 4.525 5.113 5.113 0 0 0 5.235-.178 1.227 1.227 0 0 0 1.369.783 1.233 1.233 0 0 0 1.014-1.209v-9.398a1.223 1.223 0 0 0-.364-.875 1.22 1.22 0 0 0-.877-.357zM206.265 341.25a1.236 1.236 0 0 0-1.642.584l-3.346 7.04-3.35-7.04a1.246 1.246 0 0 0-.697-.664 1.227 1.227 0 0 0-1.352.336 1.228 1.228 0 0 0-.173 1.384l4.461 9.38.035.06.032.06c.033.053.071.104.112.151v.022a1.2 1.2 0 0 0 .158.144l.046.032c.05.037.103.07.158.098h.025c.072.034.147.062.225.081h.056c.076.015.154.024.232.025.078-.001.155-.01.232-.025h.053c.078-.019.155-.047.228-.081h.025c.056-.028.11-.061.161-.098l.043-.032c.058-.043.113-.091.161-.144a.081.081 0 0 1 0-.022.853.853 0 0 0 .109-.151l.035-.06.036-.06 4.457-9.38a1.24 1.24 0 0 0-.52-1.64zM207.685 339.48a1.231 1.231 0 0 0 0-2.464c-.68 0-1.23.551-1.23 1.232 0 .68.55 1.232 1.23 1.232z" fill="#fff"/>
        <path d="M172.129 347.287a5.12 5.12 0 0 1-2.85-.866 5.138 5.138 0 0 1 1.849-9.307 5.126 5.126 0 0 1 6.129 5.037 1.23 1.23 0 1 1-2.46 0 2.675 2.675 0 0 0-1.647-2.468 2.669 2.669 0 0 0-3.486 3.491 2.672 2.672 0 0 0 2.465 1.649 1.23 1.23 0 0 1 0 2.464z" fill="#fff"/>
    </g>
    <defs>
        <linearGradient id="zxjrr3w7fb" x1="1019.5" y1="-36" x2="375" y2="375" gradientUnits="userSpaceOnUse">
            <stop stop-color="#9E30F4"/>
            <stop offset="1" stop-color="#FFE6EB"/>
        </linearGradient>
        <clipPath id="oc2bgjqs5a">
            <path fill="#fff" d="M0 0h375v375H0z"/>
        </clipPath>
    </defs>
</svg>
