<svg width="60" height="60" viewBox="0 0 60 60" fill="none" xmlns="http://www.w3.org/2000/svg">
<g clip-path="url(#clip0_1426_4534)">
<path d="M34.7292 2.94969C34.4196 1.79421 33.2319 1.1085 32.0765 1.41811C30.921 1.72772 30.2353 2.91541 30.5449 4.07089C30.8545 5.22638 32.0422 5.9121 33.1977 5.60249C34.3531 5.29287 35.0389 4.10518 34.7292 2.94969Z" fill="url(#paint0_linear_1426_4534)"/>
<path d="M9.74443 53.3568C9.74473 55.6661 12.2447 57.1092 14.2446 55.9544L49.7932 35.4279L9.73926 12.3027L9.74443 53.3568Z" fill="url(#paint1_linear_1426_4534)" stroke="url(#paint2_linear_1426_4534)" stroke-miterlimit="10"/>
<path d="M27.0038 28.6592C38.2172 35.1332 48.6634 38.0331 50.3359 35.1362C52.0084 32.2394 44.274 24.6427 33.0605 18.1686C21.8471 11.6946 11.401 8.79467 9.72848 11.6915C8.05597 14.5884 15.7904 22.1851 27.0038 28.6592Z" fill="url(#paint3_linear_1426_4534)" stroke="url(#paint4_linear_1426_4534)" stroke-miterlimit="10"/>
<path d="M34.3128 44.3673L41.3998 40.2759C36.9912 39.3276 30.8398 36.8003 24.4381 33.1043C18.0364 29.4083 12.7721 25.3447 9.73828 21.9961L9.73852 30.1794C13.3634 33.2637 17.2711 35.9992 21.4098 38.3496C25.512 40.7567 29.8321 42.7716 34.3128 44.3673Z" fill="url(#paint5_linear_1426_4534)"/>
<path d="M34.3128 44.3673L34.145 44.8383C34.2831 44.8875 34.4358 44.8736 34.5628 44.8003L34.3128 44.3673ZM41.3998 40.2759L41.6498 40.7089L42.7738 40.06L41.505 39.7871L41.3998 40.2759ZM9.73828 21.9961L10.1088 21.6604C9.97002 21.5072 9.75125 21.4552 9.55837 21.5296C9.36549 21.604 9.23828 21.7894 9.23828 21.9961L9.73828 21.9961ZM9.73852 30.1794L9.23852 30.1794C9.23853 30.326 9.30286 30.4652 9.4145 30.5602L9.73852 30.1794ZM21.4098 38.3496L21.6629 37.9183L21.6567 37.9148L21.4098 38.3496ZM34.5628 44.8003L41.6498 40.7089L41.1498 39.8429L34.0628 43.9343L34.5628 44.8003ZM41.505 39.7871C37.1649 38.8535 31.0637 36.3522 24.6881 32.6713L24.1881 33.5373C30.616 37.2485 36.8175 39.8016 41.2947 40.7647L41.505 39.7871ZM24.6881 32.6713C18.3127 28.9905 13.0958 24.9572 10.1088 21.6604L9.36774 22.3318C12.4485 25.7322 17.7602 29.8261 24.1881 33.5373L24.6881 32.6713ZM9.23828 21.9961L9.23852 30.1794L10.2385 30.1794L10.2383 21.9961L9.23828 21.9961ZM9.4145 30.5602C13.0633 33.6649 16.9969 36.4185 21.1629 38.7843L21.6567 37.9148C17.5454 35.58 13.6634 32.8626 10.0625 29.7986L9.4145 30.5602ZM21.1568 38.7808C25.2861 41.2039 29.6348 43.232 34.145 44.8383L34.4805 43.8963C30.0295 42.3111 25.7379 40.3096 21.6629 37.9183L21.1568 38.7808Z" fill="url(#paint6_linear_1426_4534)"/>
<path d="M9.77832 34.9355L9.77559 42.4563C11.8371 43.9219 14.1292 45.3884 16.5825 46.8048C19.0358 48.2212 21.4437 49.4683 23.7437 50.5208L30.2555 46.758C22.9158 43.7834 16.0243 39.8046 9.77832 34.9355Z" fill="url(#paint7_linear_1426_4534)" stroke="url(#paint8_linear_1426_4534)" stroke-miterlimit="10"/>
<path d="M42.1738 5.43262C41.22 5.90953 39.1171 7.10614 38.1613 7.54266C36.7103 8.02909 35.5023 9.0558 34.7884 10.4095C34.0745 11.7632 33.9096 13.3399 34.3277 14.8121C36.3404 20.8642 32.5678 23.2017 29.2518 24.7675" stroke="url(#paint9_linear_1426_4534)" stroke-width="3" stroke-linecap="round" stroke-linejoin="round"/>
<path d="M40.2669 29.323C40.2669 29.323 44.8967 20.1783 55.7008 23.5745" stroke="url(#paint10_linear_1426_4534)" stroke-width="2" stroke-linecap="round" stroke-linejoin="round"/>
<path d="M21.1172 3.14453C22.5818 5.51516 23.0997 8.35052 22.5678 11.0858C21.6382 15.5383 23.5574 17.5936 23.5574 17.5936" stroke="url(#paint11_linear_1426_4534)" stroke-width="2" stroke-linecap="round" stroke-linejoin="round"/>
<path d="M46.9142 17.7746C47.9519 17.7746 48.7932 16.9334 48.7932 15.8956C48.7932 14.8579 47.9519 14.0166 46.9142 14.0166C45.8764 14.0166 45.0352 14.8579 45.0352 15.8956C45.0352 16.9334 45.8764 17.7746 46.9142 17.7746Z" fill="url(#paint12_linear_1426_4534)"/>
<path d="M28.82 10.2016C29.3468 10.2016 29.7738 9.77453 29.7738 9.24776C29.7738 8.72098 29.3468 8.29395 28.82 8.29395C28.2932 8.29395 27.8662 8.72098 27.8662 9.24776C27.8662 9.77453 28.2932 10.2016 28.82 10.2016Z" fill="url(#paint13_linear_1426_4534)"/>
<path d="M57.534 33.0091C57.9913 32.8141 58.204 32.2854 58.009 31.8281C57.814 31.3708 57.2853 31.1581 56.828 31.3531C56.3707 31.548 56.158 32.0768 56.353 32.5341C56.5479 32.9914 57.0767 33.204 57.534 33.0091Z" fill="url(#paint14_linear_1426_4534)"/>
<path d="M13.534 4.0081C13.9913 3.81315 14.204 3.2844 14.009 2.8271C13.814 2.36981 13.2853 2.15714 12.828 2.35209C12.3707 2.54704 12.158 3.07579 12.353 3.53308C12.5479 3.99038 13.0767 4.20305 13.534 4.0081Z" fill="url(#paint15_linear_1426_4534)"/>
<path d="M53.526 10.3106C53.1437 10.2624 52.853 10.6465 53.003 11.0014L53.8446 12.9916C53.9944 13.3459 54.4716 13.4053 54.7038 13.0986L56.0059 11.3784C56.238 11.0716 56.0514 10.6286 55.6697 10.5805L53.526 10.3106Z" fill="url(#paint16_linear_1426_4534)"/>
</g>
<defs>
<linearGradient id="paint0_linear_1426_4534" x1="31.1055" y1="6.16309" x2="40.1924" y2="-4.11032" gradientUnits="userSpaceOnUse">
<stop stop-color="#FFCCD7"/>
<stop offset="0.9999" stop-color="#FF365F"/>
</linearGradient>
<linearGradient id="paint1_linear_1426_4534" x1="40.7978" y1="30.2345" x2="11.4167" y2="60.316" gradientUnits="userSpaceOnUse">
<stop stop-color="#FFCCD7"/>
<stop offset="1" stop-color="#FF5C7E"/>
</linearGradient>
<linearGradient id="paint2_linear_1426_4534" x1="40.7978" y1="30.2345" x2="11.4167" y2="60.316" gradientUnits="userSpaceOnUse">
<stop stop-color="#FFCCD7"/>
<stop offset="1" stop-color="#FF5C7E"/>
</linearGradient>
<linearGradient id="paint3_linear_1426_4534" x1="33.0605" y1="18.1686" x2="27.0038" y2="28.6592" gradientUnits="userSpaceOnUse">
<stop stop-color="#D8405F"/>
<stop offset="1" stop-color="#BC0934"/>
</linearGradient>
<linearGradient id="paint4_linear_1426_4534" x1="10.2205" y1="8.77121" x2="51.7433" y2="7.79303" gradientUnits="userSpaceOnUse">
<stop stop-color="#FFCCD7"/>
<stop offset="0.269149" stop-color="#FEFFC9"/>
<stop offset="1" stop-color="#FF5C7E"/>
</linearGradient>
<linearGradient id="paint5_linear_1426_4534" x1="17.8513" y1="33.0935" x2="16.6592" y2="41.8069" gradientUnits="userSpaceOnUse">
<stop stop-color="#FF7E99"/>
<stop offset="1" stop-color="#FF365F"/>
</linearGradient>
<linearGradient id="paint6_linear_1426_4534" x1="18.8051" y1="33.5704" x2="17.7075" y2="42.099" gradientUnits="userSpaceOnUse">
<stop stop-color="#FF7E99"/>
<stop offset="1" stop-color="#FF365F"/>
</linearGradient>
<linearGradient id="paint7_linear_1426_4534" x1="13.5591" y1="41.2005" x2="12.8909" y2="48.6102" gradientUnits="userSpaceOnUse">
<stop stop-color="#FF7E99"/>
<stop offset="1" stop-color="#FF365F"/>
</linearGradient>
<linearGradient id="paint8_linear_1426_4534" x1="13.0822" y1="41.2005" x2="12.4811" y2="48.7761" gradientUnits="userSpaceOnUse">
<stop stop-color="#FF7E99"/>
<stop offset="1" stop-color="#FF365F"/>
</linearGradient>
<linearGradient id="paint9_linear_1426_4534" x1="40.2662" y1="15.4476" x2="30.7704" y2="11.8585" gradientUnits="userSpaceOnUse">
<stop stop-color="#9230F4"/>
<stop offset="0.595738" stop-color="#BA99FF"/>
<stop offset="1" stop-color="#FEFFC9"/>
</linearGradient>
<linearGradient id="paint10_linear_1426_4534" x1="42.1738" y1="21.6477" x2="45.9027" y2="32.806" gradientUnits="userSpaceOnUse">
<stop stop-color="#FFCCD7"/>
<stop offset="0.9999" stop-color="#FF365F"/>
</linearGradient>
<linearGradient id="paint11_linear_1426_4534" x1="25.9589" y1="11.632" x2="18.6137" y2="12.7042" gradientUnits="userSpaceOnUse">
<stop stop-color="#FFCCD7"/>
<stop offset="0.9999" stop-color="#FF365F"/>
</linearGradient>
<linearGradient id="paint12_linear_1426_4534" x1="45.0352" y1="14.0166" x2="47.7084" y2="19.8261" gradientUnits="userSpaceOnUse">
<stop stop-color="#FFCCD7"/>
<stop offset="0.9999" stop-color="#FF365F"/>
</linearGradient>
<linearGradient id="paint13_linear_1426_4534" x1="25.9282" y1="9.91864" x2="26.774" y2="7.72401" gradientUnits="userSpaceOnUse">
<stop stop-color="#9230F4"/>
<stop offset="1" stop-color="#BA99FF"/>
</linearGradient>
<linearGradient id="paint14_linear_1426_4534" x1="54.9189" y1="33.8337" x2="54.8409" y2="31.6155" gradientUnits="userSpaceOnUse">
<stop stop-color="#9230F4"/>
<stop offset="1" stop-color="#BA99FF"/>
</linearGradient>
<linearGradient id="paint15_linear_1426_4534" x1="10.9189" y1="4.83271" x2="10.8409" y2="2.61453" gradientUnits="userSpaceOnUse">
<stop stop-color="#9230F4"/>
<stop offset="1" stop-color="#BA99FF"/>
</linearGradient>
<linearGradient id="paint16_linear_1426_4534" x1="56.9572" y1="14.9712" x2="54.3347" y2="15.3368" gradientUnits="userSpaceOnUse">
<stop stop-color="#9230F4"/>
<stop offset="1" stop-color="#BA99FF"/>
</linearGradient>
<clipPath id="clip0_1426_4534">
<rect width="60" height="60" fill="white"/>
</clipPath>
</defs>
</svg>
