<svg width="60" height="60" viewBox="0 0 60 60" fill="none" xmlns="http://www.w3.org/2000/svg">
<g clip-path="url(#clip0_1426_4821)">
<path d="M43 2H13C11.3431 2 10 3.34315 10 5V41C10 42.6569 11.3431 44 13 44H43C44.6569 44 46 42.6569 46 41V5C46 3.34315 44.6569 2 43 2Z" fill="#FF5679"/>
<path d="M39 5H9C7.34315 5 6 6.34315 6 8V44C6 45.6569 7.34315 47 9 47H39C40.6569 47 42 45.6569 42 44V8C42 6.34315 40.6569 5 39 5Z" fill="#FF8BA3"/>
<path d="M35 9H5C3.34315 9 2 10.3431 2 12V48C2 49.6569 3.34315 51 5 51H35C36.6569 51 38 49.6569 38 48V12C38 10.3431 36.6569 9 35 9Z" fill="url(#paint0_linear_1426_4821)"/>
<path d="M8 21H20" stroke="white" stroke-opacity="0.5" stroke-width="1.3" stroke-linecap="round" stroke-linejoin="round"/>
<path d="M8 27H32" stroke="white" stroke-opacity="0.5" stroke-width="1.3" stroke-linecap="round" stroke-linejoin="round"/>
<path d="M8 33H32" stroke="white" stroke-opacity="0.5" stroke-width="1.3" stroke-linecap="round" stroke-linejoin="round"/>
<path d="M47.2268 37.5706L43.8574 39.252L46.6708 44.8899L50.0401 43.2086L47.2268 37.5706Z" fill="url(#paint1_linear_1426_4821)" stroke="url(#paint2_linear_1426_4821)" stroke-width="3" stroke-linecap="round" stroke-linejoin="round"/>
<path d="M44.429 45.0265L51.5028 41.4967L56.2792 51.0687C56.5113 51.5338 56.6495 52.0401 56.686 52.5586C56.7224 53.0771 56.6563 53.5977 56.4916 54.0907C56.3268 54.5836 56.0665 55.0394 55.7256 55.4318C55.3848 55.8242 54.97 56.1456 54.5049 56.3777C54.0398 56.6098 53.5335 56.7479 53.015 56.7844C52.4965 56.8208 51.9759 56.7548 51.4829 56.59C50.9899 56.4252 50.5342 56.165 50.1418 55.8241C49.7494 55.4833 49.428 55.0684 49.1959 54.6033L44.4194 45.0312L44.429 45.0265Z" fill="url(#paint3_linear_1426_4821)" stroke="url(#paint4_linear_1426_4821)" stroke-width="3" stroke-linecap="round" stroke-linejoin="round"/>
<rect x="46.0127" y="16.3848" width="4.27904" height="23.5347" transform="rotate(48.4808 46.0127 16.3848)" fill="white" fill-opacity="0.4"/>
<rect x="50.2676" y="21.1895" width="2.13952" height="23.5347" transform="rotate(48.4808 50.2676 21.1895)" fill="white" fill-opacity="0.4"/>
<path d="M35.902 39.0884C42.5141 41.2983 49.6657 37.7296 51.8756 31.1176C54.0855 24.5055 50.5169 17.3539 43.9048 15.144C37.2928 12.9341 30.1411 16.5027 27.9312 23.1148C25.7213 29.7268 29.29 36.8785 35.902 39.0884Z" stroke="url(#paint5_linear_1426_4821)" stroke-width="3" stroke-linecap="round" stroke-linejoin="round"/>
</g>
<defs>
<linearGradient id="paint0_linear_1426_4821" x1="8" y1="0.5" x2="22.0201" y2="76.472" gradientUnits="userSpaceOnUse">
<stop stop-color="#FEFFC9"/>
<stop offset="0.201147" stop-color="#FFB5C4"/>
<stop offset="0.871055" stop-color="#FF5C7E"/>
</linearGradient>
<linearGradient id="paint1_linear_1426_4821" x1="47.0499" y1="40.5099" x2="47.4739" y2="46.3999" gradientUnits="userSpaceOnUse">
<stop stop-color="#40284D"/>
<stop offset="1" stop-color="#2B1E34"/>
</linearGradient>
<linearGradient id="paint2_linear_1426_4821" x1="47.0499" y1="40.5099" x2="47.4739" y2="46.3999" gradientUnits="userSpaceOnUse">
<stop offset="0.359375" stop-color="#3E1E4F"/>
<stop offset="1" stop-color="#2B1E34"/>
</linearGradient>
<linearGradient id="paint3_linear_1426_4821" x1="53.5005" y1="56.499" x2="51.0005" y2="40.499" gradientUnits="userSpaceOnUse">
<stop stop-color="#9E30F4"/>
<stop offset="1" stop-color="#BA63FF"/>
</linearGradient>
<linearGradient id="paint4_linear_1426_4821" x1="53.5005" y1="56.499" x2="51.0005" y2="40.499" gradientUnits="userSpaceOnUse">
<stop stop-color="#9E30F4"/>
<stop offset="1" stop-color="#BA63FF"/>
</linearGradient>
<linearGradient id="paint5_linear_1426_4821" x1="20" y1="10" x2="52.5" y2="41" gradientUnits="userSpaceOnUse">
<stop stop-color="#C5C5C5"/>
<stop offset="0.764381" stop-color="#492C58"/>
<stop offset="1" stop-color="#67606B"/>
</linearGradient>
<clipPath id="clip0_1426_4821">
<rect width="60" height="60" fill="white"/>
</clipPath>
</defs>
</svg>
