<svg width="24" height="24" viewBox="0 0 24 24" fill="none" xmlns="http://www.w3.org/2000/svg">
    <circle cx="20" cy="4" r="2" fill="#FF365F"/>
    <path d="M15.78 4.511A5.453 5.453 0 0 0 12 3c-1.465 0-2.87.592-3.906 1.645a5.665 5.665 0 0 0-1.618 3.972v4.171L4 18h16l-2.476-5.212v-4.04M15.986 18c.019.189.019.378 0 .567 0 .45-.104.897-.304 1.314-.2.416-.494.795-.864 1.113a4.08 4.08 0 0 1-1.293.745A4.548 4.548 0 0 1 12 22a4.549 4.549 0 0 1-1.525-.261 4.081 4.081 0 0 1-1.293-.745 3.448 3.448 0 0 1-.864-1.113 3.025 3.025 0 0 1-.303-1.314c-.02-.185-.02-.371 0-.556" stroke="#262626" stroke-width="2" stroke-linecap="round" stroke-linejoin="round"/>
</svg>
