<svg width="24" height="24" viewBox="0 0 24 24" fill="none" xmlns="http://www.w3.org/2000/svg">
<path d="M21 9.83034V18.0812C21 18.8553 20.6917 19.5977 20.143 20.1451C19.5944 20.6925 18.8502 21 18.0742 21H5.92582C5.14984 21 4.40565 20.6925 3.85695 20.1451C3.30825 19.5977 3 18.8553 3 18.0812V5.91876C3 5.14465 3.30825 4.40226 3.85695 3.85488C4.40565 3.30751 5.14984 3 5.92582 3H15.0243" stroke="#8D8D8D" stroke-width="1.3" stroke-linecap="round" stroke-linejoin="round"/>
<path d="M2 8L4 8" stroke="#8D8D8D" stroke-width="1.3" stroke-linecap="round"/>
<path d="M2 16.4004H4" stroke="#8D8D8D" stroke-width="1.3" stroke-linecap="round"/>
<path fill-rule="evenodd" clip-rule="evenodd" d="M17.6895 11.2403C17.6895 9.54618 16.8927 8.16519 15.6352 7.58814C14.5073 7.07053 13.1747 7.27319 12.0035 8.22628C10.8302 7.27532 9.49489 7.07067 8.36521 7.58606C7.10692 8.16013 6.30957 9.53675 6.30957 11.2334C6.30957 13.1577 7.84449 14.528 9.12799 15.3534C9.7957 15.7828 10.4587 16.106 10.9521 16.3213C11.1997 16.4294 11.4068 16.5113 11.5535 16.5666C11.6269 16.5943 11.6853 16.6154 11.7262 16.6299L11.7741 16.6467L11.7845 16.6502C11.8534 16.6744 11.9267 16.6872 12.0014 16.6869C12.0747 16.6867 12.1467 16.674 12.2144 16.6503L12.2247 16.6468L12.2727 16.63C12.3136 16.6156 12.372 16.5945 12.4453 16.5669C12.592 16.5116 12.7992 16.4298 13.0468 16.3219C13.5401 16.1069 14.2031 15.7842 14.8708 15.3554C16.154 14.5313 17.6895 13.1628 17.6895 11.2403ZM11.9997 15.3455C12.1281 15.2969 12.3098 15.225 12.5273 15.1302C12.979 14.9333 13.576 14.6419 14.1683 14.2615C15.4051 13.4673 16.3895 12.4376 16.3895 11.2403C16.3895 9.9392 15.7925 9.09067 15.093 8.76968C14.4185 8.46016 13.4455 8.55098 12.467 9.56366C12.2175 9.82182 11.806 9.82887 11.5479 9.57942C11.5212 9.5536 11.4971 9.52604 11.4758 9.49709C10.517 8.54957 9.56745 8.46646 8.90481 8.76878C8.20615 9.08753 7.60957 9.93064 7.60957 11.2334C7.60957 12.4334 8.59465 13.4648 9.83116 14.26C10.4234 14.6409 11.0204 14.9327 11.4721 15.1299C11.6896 15.2248 11.8713 15.2969 11.9997 15.3455Z" fill="#8D8D8D"/>
</svg>
