<svg width="24" height="24" viewBox="0 0 24 24" fill="none" xmlns="http://www.w3.org/2000/svg">
    <path d="M20 10.071v7.335c0 .688-.274 1.348-.762 1.834-.488.487-1.149.76-1.839.76H6.601c-.69 0-1.352-.273-1.84-.76A2.591 2.591 0 0 1 4 17.406V6.594c0-.688.274-1.348.762-1.834A2.604 2.604 0 0 1 6.6 4h8.087" stroke="#fff" stroke-width="1.3" stroke-linecap="round" stroke-linejoin="round"/>
    <path d="M3 8h2M3 16.4h2" stroke="#fff" stroke-width="1.3" stroke-linecap="round"/>
    <path d="M12 15.203s4-1.33 4-3.807c0-2.377-2.213-3.539-4-1.689M12 15.203S8 13.87 8 11.39c0-2.38 2.213-3.524 4-1.692" stroke="#fff" stroke-width="1.3" stroke-linecap="round" stroke-linejoin="round"/>
</svg>
