<svg width="32" height="32" viewBox="0 0 32 32" fill="none" xmlns="http://www.w3.org/2000/svg">
    <path d="M26.667 12.732v10.294c0 .966-.385 1.892-1.07 2.575a3.654 3.654 0 0 1-2.58 1.066H8.984a3.655 3.655 0 0 1-2.581-1.066 3.637 3.637 0 0 1-1.07-2.575V8.976c0-.966.385-1.893 1.07-2.575a3.655 3.655 0 0 1 2.58-1.067h10.229" stroke="#F6F6F6" stroke-width="2" stroke-linecap="round" stroke-linejoin="round"/>
    <path d="m12 20.235 4.85.911a2 2 0 0 0 1.74-.51l2.47-2.325a2 2 0 0 1 2.299-.316l1.974 1.034M13.333 16a2.667 2.667 0 1 0 0-5.334 2.667 2.667 0 0 0 0 5.333z" stroke="#F6F6F6" stroke-width="2" stroke-linecap="round" stroke-linejoin="round"/>
</svg>
