<svg width="40" height="40" viewBox="0 0 40 40" fill="none" xmlns="http://www.w3.org/2000/svg">
    <path d="M35 16.384v13.751c0 1.29-.514 2.528-1.428 3.44A4.882 4.882 0 0 1 30.124 35H9.876a4.882 4.882 0 0 1-3.448-1.425A4.859 4.859 0 0 1 5 30.135V9.865c0-1.29.514-2.528 1.428-3.44A4.882 4.882 0 0 1 9.876 5h15.165" stroke="#fff" stroke-width="2" stroke-linecap="round" stroke-linejoin="round"/>
    <path d="M3.333 13.334h3.334M3.333 27.334h3.334" stroke="#fff" stroke-width="2" stroke-linecap="round"/>
    <path fill-rule="evenodd" clip-rule="evenodd" d="M29.4 18.734c0-2.799-1.315-5.066-3.375-6.012-1.863-.854-4.074-.513-6.018 1.096-1.948-1.606-4.164-1.95-6.03-1.099-2.06.94-3.377 3.2-3.377 6.003 0 3.16 2.523 5.423 4.66 6.797a21.828 21.828 0 0 0 3.028 1.607 21.536 21.536 0 0 0 1.363.54l.018.006a.998.998 0 0 0 .661 0l.018-.006.08-.028a21.522 21.522 0 0 0 1.285-.511c.819-.358 1.92-.893 3.027-1.605 2.136-1.371 4.66-3.63 4.66-6.788zm-9.4 6.93.008-.002c.216-.082.529-.205.905-.369.756-.33 1.755-.817 2.747-1.454 2.064-1.325 3.74-3.063 3.74-5.105 0-2.194-1.008-3.642-2.21-4.194-1.163-.533-2.821-.366-4.47 1.341a1 1 0 0 1-1.53-.107c-1.618-1.603-3.239-1.757-4.382-1.235-1.2.547-2.208 1.987-2.208 4.183 0 2.047 1.677 3.787 3.741 5.115a19.835 19.835 0 0 0 2.747 1.456c.376.164.688.287.904.369.003 0 .006.002.008.003z" fill="#fff"/>
</svg>
