<svg width="24" height="24" viewBox="0 0 24 24" fill="none" xmlns="http://www.w3.org/2000/svg">
    <path d="M21 9.83v8.251c0 .774-.308 1.517-.857 2.064a2.929 2.929 0 0 1-2.069.855H5.926a2.93 2.93 0 0 1-2.07-.855 2.915 2.915 0 0 1-.856-2.064V5.92c0-.774.308-1.517.857-2.064A2.93 2.93 0 0 1 5.926 3h9.098" stroke="#9E30F4" stroke-width="2" stroke-linecap="round" stroke-linejoin="round"/>
    <path d="M2 8h2M2 16.4h2" stroke="#9E30F4" stroke-width="2" stroke-linecap="round"/>
    <path fill-rule="evenodd" clip-rule="evenodd" d="M18.04 11.24c0-1.8-.85-3.325-2.258-3.971-1.199-.55-2.573-.362-3.778.515C10.796 6.91 9.42 6.72 8.22 7.267c-1.409.642-2.26 2.163-2.26 3.965 0 2.12 1.683 3.581 2.98 4.415a13.487 13.487 0 0 0 2.67 1.312l.05.018.009.002a.996.996 0 0 0 .662 0l.008-.002.05-.018a13.418 13.418 0 0 0 .797-.317c.505-.22 1.186-.551 1.874-.993 1.296-.832 2.98-2.292 2.98-4.41zM12 14.97a11.886 11.886 0 0 0 1.98-1.004c1.224-.786 2.06-1.725 2.06-2.727 0-1.195-.543-1.9-1.093-2.152-.51-.235-1.329-.212-2.228.719a1 1 0 0 1-1.506-.078c-.871-.851-1.663-.87-2.163-.642-.548.25-1.09.95-1.09 2.146 0 1.005.837 1.946 2.06 2.733A11.497 11.497 0 0 0 12 14.969z" fill="#9E30F4"/>
</svg>
