<svg width="24" height="24" viewBox="0 0 24 24" fill="none" xmlns="http://www.w3.org/2000/svg">
    <path d="m18.44 7.345 1.693 1.296c.546.421.867 1.065.867 1.756V18.8c0 1.217-1.006 2.2-2.226 2.2H15.34a.702.702 0 0 1-.706-.702v-3.535h-.011c0-1.44-1.177-2.598-2.622-2.598-1.445 0-2.622 1.159-2.622 2.598v3.535a.708.708 0 0 1-.706.702H5.226C3.996 21 3 20.017 3 18.8v-8.403c0-.68.321-1.323.867-1.744l6.774-5.197a2.252 2.252 0 0 1 2.718 0l1.694 1.297" stroke="#9E30F4" stroke-width="2" stroke-linecap="round" stroke-linejoin="round"/>
</svg>
