<svg width="125" height="95" viewBox="0 0 125 95" fill="none" xmlns="http://www.w3.org/2000/svg">
    <g filter="url(#334rdcyova)">
        <path d="M41.361 22.28c-7.234 1.053-13.764 4.86-18.154 10.582-4.39 5.723-6.28 12.893-5.255 19.932.539 3.71 3.218 8.476 5.268 11.636l-2.098 8.992c-.35 1.497 1.05 2.812 2.522 2.37l9.047-2.714c4.647 1.94 11.382 3.015 16.402 2.286 7.233-1.054 13.764-4.86 18.154-10.583 4.39-5.723 6.28-12.892 5.255-19.932a26.2 26.2 0 0 0-3.556-9.855 26.786 26.786 0 0 0-7.166-7.75 27.625 27.625 0 0 0-9.687-4.464 28.224 28.224 0 0 0-10.732-.5z" fill="url(#7lm37wr4sb)" stroke="url(#oszq0zo8zc)" stroke-width="2" stroke-linecap="round" stroke-linejoin="round"/>
        <path d="m46.609 41.898.282 1.935M58.55 40.16l.282 1.935" stroke="#412656" stroke-width="3" stroke-linecap="round" stroke-linejoin="round"/>
        <path d="M69.64 29.591a11.868 11.868 0 0 1 16.385 3.633l14.072 22.09L80.08 68.067 66.002 45.967a11.867 11.867 0 0 1 3.639-16.376z" fill="url(#bs1i00vamd)" stroke="url(#ffjx6g7b0e)" stroke-width="2" stroke-linecap="round" stroke-linejoin="round"/>
        <path d="M80.088 68.044 67.347 48.043l22.09-14.072a11.867 11.867 0 0 1 16.385 3.633v0a11.862 11.862 0 0 1-.288 13.183 11.871 11.871 0 0 1-3.345 3.202L80.099 68.06l-.01-.017z" fill="url(#i9tppmdq1f)" stroke="url(#ncpac4cvyg)" stroke-width="2" stroke-linecap="round" stroke-linejoin="round"/>
        <path fill-rule="evenodd" clip-rule="evenodd" d="m88.312 24.8-.002.003-5.406-2.59a2.715 2.715 0 0 1 2.347-4.896l.508.243.245-.51a2.715 2.715 0 0 1 4.897 2.345l-2.588 5.404z" fill="url(#lip4qwkybh)"/>
        <path d="m88.312 24.8.432-.903a1 1 0 0 0-1.334.47l.902.432zm-.002.003-.432.902a1 1 0 0 0 1.334-.47l-.902-.432zm-5.406-2.59-.433.902.433-.901zm-1.387-1.546.944-.332-.944.332zm.113-2.074.901.432-.901-.432zm1.546-1.388-.332-.943.332.943zm1.049-.15.054-.999-.054.999zm1.026.262-.432.902.432-.902zm.508.243-.432.902a1 1 0 0 0 1.334-.47l-.902-.432zm.245-.51.901.431-.901-.432zm1.546-1.389.332.944-.332-.944zm2.075.112-.432.902.432-.902zm.848.636.744-.668-.744.668zm.69 1.96.999.053-.999-.054zm-.262 1.026L90 18.963l.902.432zm-2.588 5.404-.433.902a1 1 0 0 0 1.335-.47l-.902-.432zm-.903-.432-.002.004 1.804.864.002-.004-1.804-.864zm1.332-.466-5.406-2.59-.864 1.805 5.406 2.589.864-1.804zm-5.406-2.589a1.715 1.715 0 0 1-.876-.977L80.575 21a3.715 3.715 0 0 0 1.897 2.116l.865-1.803zm-.876-.977c-.15-.429-.125-.9.072-1.31l-1.804-.864A3.715 3.715 0 0 0 80.574 21l1.886-.664zm.072-1.31c.097-.203.233-.385.4-.535L81.598 17c-.363.326-.659.72-.87 1.16l1.804.864zm.4-.535c.168-.15.364-.267.576-.342l-.664-1.886c-.46.162-.884.413-1.247.74l1.336 1.488zm.576-.342c.213-.075.438-.107.663-.095l.108-1.997a3.716 3.716 0 0 0-1.435.206l.664 1.886zm.663-.095c.225.012.445.069.648.166l.864-1.804a3.715 3.715 0 0 0-1.404-.359l-.108 1.997zm.648.166.508.243.864-1.804-.508-.243-.864 1.804zm1.842-.227.245-.51-1.804-.865-.245.511 1.804.864zm.245-.51c.196-.411.547-.726.976-.877l-.664-1.887a3.715 3.715 0 0 0-2.116 1.9l1.803.863zm.976-.877c.43-.152.9-.126 1.311.07l.864-1.804a3.715 3.715 0 0 0-2.84-.153l.665 1.887zm1.311.07c.203.098.385.234.536.401l1.488-1.335a3.716 3.716 0 0 0-1.16-.87l-.864 1.804zm.536.401c.15.168.266.364.34.576l1.887-.665a3.715 3.715 0 0 0-.739-1.246l-1.488 1.335zm.34.576c.076.213.108.438.096.662l1.997.108a3.716 3.716 0 0 0-.206-1.434l-1.886.664zm.096.662a1.715 1.715 0 0 1-.166.649l1.804.864c.21-.44.333-.918.359-1.405l-1.997-.108zm-.166.649-2.588 5.404 1.804.864 2.588-5.404-1.804-.864zm-1.254 4.935L87.88 25.7l.865-1.803z" fill="url(#yuc21xsz3i)"/>
    </g>
    <defs>
        <linearGradient id="7lm37wr4sb" x1="56.141" y1="20.127" x2="48.907" y2="75.614" gradientUnits="userSpaceOnUse">
            <stop stop-color="#FFCCD7"/>
            <stop offset="1" stop-color="#FF5C7E"/>
        </linearGradient>
        <linearGradient id="oszq0zo8zc" x1="56.564" y1="23.032" x2="48.902" y2="75.625" gradientUnits="userSpaceOnUse">
            <stop stop-color="#FFCCD7"/>
            <stop offset="1" stop-color="#FF5C7E"/>
        </linearGradient>
        <linearGradient id="i9tppmdq1f" x1="99.905" y1="27.816" x2="80.71" y2="67.814" gradientUnits="userSpaceOnUse">
            <stop stop-color="#FF9AAF"/>
            <stop offset="1" stop-color="#FF365F"/>
        </linearGradient>
        <linearGradient id="ncpac4cvyg" x1="100.115" y1="31.305" x2="81.647" y2="68.022" gradientUnits="userSpaceOnUse">
            <stop stop-color="#FF9AAF"/>
            <stop offset="1" stop-color="#FF365F"/>
        </linearGradient>
        <linearGradient id="lip4qwkybh" x1="87.292" y1="14.588" x2="88.401" y2="24.678" gradientUnits="userSpaceOnUse">
            <stop stop-color="#FF9AAF"/>
            <stop offset="1" stop-color="#FF365F"/>
        </linearGradient>
        <linearGradient id="yuc21xsz3i" x1="87.755" y1="15.24" x2="88.609" y2="24.605" gradientUnits="userSpaceOnUse">
            <stop stop-color="#FF9AAF"/>
            <stop offset="1" stop-color="#FF365F"/>
        </linearGradient>
        <radialGradient id="bs1i00vamd" cx="0" cy="0" r="1" gradientUnits="userSpaceOnUse" gradientTransform="matrix(13.21455 -24.1143 19.56736 10.72285 69.925 52.146)">
            <stop stop-color="#9230F4"/>
            <stop offset="1" stop-color="#BA99FF"/>
        </radialGradient>
        <radialGradient id="ffjx6g7b0e" cx="0" cy="0" r="1" gradientUnits="userSpaceOnUse" gradientTransform="matrix(10.4555 -22.75928 18.46777 8.484 68.727 50.897)">
            <stop stop-color="#9230F4"/>
            <stop offset="1" stop-color="#BA99FF"/>
        </radialGradient>
        <filter id="334rdcyova" x=".679" y=".508" width="124.001" height="94.373" filterUnits="userSpaceOnUse" color-interpolation-filters="sRGB">
            <feFlood flood-opacity="0" result="BackgroundImageFix"/>
            <feColorMatrix in="SourceAlpha" values="0 0 0 0 0 0 0 0 0 0 0 0 0 0 0 0 0 0 127 0" result="hardAlpha"/>
            <feOffset dy="2"/>
            <feGaussianBlur stdDeviation="8"/>
            <feComposite in2="hardAlpha" operator="out"/>
            <feColorMatrix values="0 0 0 0 0.619608 0 0 0 0 0.188235 0 0 0 0 0.956863 0 0 0 0.18 0"/>
            <feBlend in2="BackgroundImageFix" result="effect1_dropShadow_1307_6777"/>
            <feBlend in="SourceGraphic" in2="effect1_dropShadow_1307_6777" result="shape"/>
        </filter>
    </defs>
</svg>
