<svg width="20" height="20" viewBox="0 0 20 20" fill="none" xmlns="http://www.w3.org/2000/svg">
<path d="M10.4995 11.5C11.3279 11.5 11.9995 10.8284 11.9995 10C11.9995 9.17157 11.3279 8.5 10.4995 8.5C9.67108 8.5 8.99951 9.17157 8.99951 10C8.99951 10.8284 9.67108 11.5 10.4995 11.5Z" fill="#8D8D8D"/>
<path d="M10.4995 5.5C11.3279 5.5 11.9995 4.82843 11.9995 4C11.9995 3.17157 11.3279 2.5 10.4995 2.5C9.67108 2.5 8.99951 3.17157 8.99951 4C8.99951 4.82843 9.67108 5.5 10.4995 5.5Z" fill="#8D8D8D"/>
<path d="M10.4995 17.5C11.3279 17.5 11.9995 16.8284 11.9995 16C11.9995 15.1716 11.3279 14.5 10.4995 14.5C9.67108 14.5 8.99951 15.1716 8.99951 16C8.99951 16.8284 9.67108 17.5 10.4995 17.5Z" fill="#8D8D8D"/>
</svg>
