<svg width="24" height="24" viewBox="0 0 24 24" fill="none" xmlns="http://www.w3.org/2000/svg">
<path d="M18.4397 7.34493L20.1332 8.64109C20.679 9.06242 21 9.70611 21 10.3966V18.7997C21 20.0169 19.9941 21 18.7741 21H15.3389C14.9429 21 14.6326 20.684 14.6326 20.2978V16.7633H14.6219C14.6219 15.3238 13.4447 14.1651 12 14.1651C10.5553 14.1651 9.37812 15.3238 9.37812 16.7633V20.2978C9.37812 20.684 9.05707 21 8.67182 21H5.22592C3.99524 21 3 20.0169 3 18.7997V10.3966C3 9.71782 3.32105 9.07412 3.86683 8.6528L10.6409 3.45644C11.4435 2.84785 12.5565 2.84785 13.3591 3.45644L15.0526 4.7526" stroke="#262626" stroke-width="2" stroke-linecap="round" stroke-linejoin="round"/>
</svg>
