<svg width="24" height="24" viewBox="0 0 24 24" fill="none" xmlns="http://www.w3.org/2000/svg">
    <path d="M21.314 10.19a2 2 0 0 0 .718-2.706l-1.024-1.806a2 2 0 0 0-2.77-.728l-.26.157a1.946 1.946 0 0 1-2.686-.727 1.987 1.987 0 0 1-.258-.993V3a2 2 0 0 0-2-2h-2.008a2 2 0 0 0-2 2v.338c.003.348-.086.691-.258.994-.171.302-.42.554-.718.728a1.946 1.946 0 0 1-1.968-.002l-.269-.161a2 2 0 0 0-2.764.72L1.993 7.458a2 2 0 0 0 .736 2.728l.205.118c.3.174.548.425.721.727a2 2 0 0 1-.72 2.713l-.21.122a2 2 0 0 0-.74 2.722l1.018 1.787a2 2 0 0 0 2.767.725l.264-.158a1.948 1.948 0 0 1 2.686.726c.171.303.26.646.258.994V21a2 2 0 0 0 2 2h2.008a2 2 0 0 0 2-2v-.29c-.004-.35.085-.695.257-.999.172-.304.421-.557.722-.732a1.946 1.946 0 0 1 1.977.011l.26.157a2 2 0 0 0 2.77-.728l1.014-1.788a2 2 0 0 0-.736-2.717l-.209-.121a1.966 1.966 0 0 1-.729-.724 1.987 1.987 0 0 1 .73-2.717l.272-.161z" stroke="#262626" stroke-width="2" stroke-linecap="round" stroke-linejoin="round"/>
    <path d="M12 16a4 4 0 1 0 0-8 4 4 0 0 0 0 8z" stroke="#262626" stroke-width="2" stroke-linecap="round" stroke-linejoin="round"/>
</svg>
