<svg width="46" height="46" viewBox="0 0 46 46" fill="none" xmlns="http://www.w3.org/2000/svg">
<g clip-path="url(#clip0_2103_11350)">
<g filter="url(#filter0_d_2103_11350)">
<path d="M18.3072 9.10983L5.82839 21.5886C4.26629 23.1507 4.26629 25.6834 5.82839 27.2455L19.4393 40.8564C21.0014 42.4185 23.534 42.4184 25.0961 40.8564L37.5749 28.3776C39.1839 26.7686 39.9645 24.5097 39.6922 22.2506L38.0678 8.77406C38.0578 8.69176 37.993 8.6269 37.9107 8.61698L24.4342 6.99255C22.1751 6.72024 19.9161 7.50086 18.3072 9.10983Z" fill="url(#paint0_linear_2103_11350)"/>
<path d="M18.3072 9.10983L19.7214 10.524L18.3072 9.10983ZM37.5749 28.3776L38.9891 29.7918L37.5749 28.3776ZM38.0678 8.77406L40.0534 8.53471L38.0678 8.77406ZM37.9107 8.61698L38.15 6.63135L37.9107 8.61698ZM37.5749 28.3776L38.9891 29.7918L37.5749 28.3776ZM18.3072 9.10983L19.7214 10.524L18.3072 9.10983ZM16.8929 7.69562L4.41417 20.1744L7.2426 23.0028L19.7214 10.524L16.8929 7.69562ZM4.41417 28.6597L18.0251 42.2706L20.8535 39.4421L7.2426 25.8312L4.41417 28.6597ZM26.5104 42.2706L38.9891 29.7918L36.1607 26.9634L23.6819 39.4421L26.5104 42.2706ZM41.6778 22.0112L40.0534 8.53471L36.0821 9.0134L37.7066 22.4899L41.6778 22.0112ZM38.15 6.63135L24.6735 5.00692L24.1948 8.97817L37.6713 10.6026L38.15 6.63135ZM40.0534 8.53471C39.9332 7.53754 39.1472 6.75155 38.15 6.63135L37.6713 10.6026C36.8387 10.5022 36.1825 9.84598 36.0821 9.0134L40.0534 8.53471ZM38.9891 29.7918C41.0323 27.7486 42.0236 24.88 41.6778 22.0112L37.7066 22.4899C37.9054 24.1393 37.3354 25.7886 36.1607 26.9634L38.9891 29.7918ZM18.0251 42.2706C20.3682 44.6137 24.1672 44.6137 26.5104 42.2706L23.6819 39.4421C22.9009 40.2232 21.6345 40.2232 20.8535 39.4421L18.0251 42.2706ZM24.6735 5.00692C21.8047 4.66113 18.9361 5.65242 16.8929 7.69562L19.7214 10.524C20.8961 9.3493 22.5454 8.77936 24.1948 8.97817L24.6735 5.00692ZM4.41417 20.1744C2.07103 22.5175 2.07103 26.3165 4.41417 28.6597L7.2426 25.8312C6.46155 25.0502 6.46155 23.7839 7.2426 23.0028L4.41417 20.1744Z" fill="url(#paint1_linear_2103_11350)"/>
</g>
<path d="M31.9011 14.783C32.6935 15.5754 33.9783 15.5754 34.7708 14.783C35.5632 13.9906 35.5632 12.7058 34.7708 11.9133C33.9783 11.1209 32.6935 11.1209 31.9011 11.9133C31.1087 12.7058 31.1087 13.9906 31.9011 14.783Z" fill="white" stroke="white" stroke-width="1.3" stroke-miterlimit="10"/>
<path d="M35 12C33.5008 8.5 35.7735 4.99984 37.9993 5C42.9972 5.00035 42.6512 2.95562 42.9993 1" stroke="url(#paint2_linear_2103_11350)" stroke-width="1.3" stroke-linecap="round"/>
</g>
<defs>
<filter id="filter0_d_2103_11350" x="-29.3428" y="-23.0605" width="103.088" height="103.088" filterUnits="userSpaceOnUse" color-interpolation-filters="sRGB">
<feFlood flood-opacity="0" result="BackgroundImageFix"/>
<feColorMatrix in="SourceAlpha" type="matrix" values="0 0 0 0 0 0 0 0 0 0 0 0 0 0 0 0 0 0 127 0" result="hardAlpha"/>
<feOffset dy="4"/>
<feGaussianBlur stdDeviation="16"/>
<feComposite in2="hardAlpha" operator="out"/>
<feColorMatrix type="matrix" values="0 0 0 0 1 0 0 0 0 1 0 0 0 0 1 0 0 0 0.2 0"/>
<feBlend mode="normal" in2="BackgroundImageFix" result="effect1_dropShadow_2103_11350"/>
<feBlend mode="normal" in="SourceGraphic" in2="effect1_dropShadow_2103_11350" result="shape"/>
</filter>
<linearGradient id="paint0_linear_2103_11350" x1="50.7056" y1="-4.02086" x2="12.6338" y2="34.0509" gradientUnits="userSpaceOnUse">
<stop stop-color="#FF9AAF"/>
<stop offset="1" stop-color="#FF365F"/>
</linearGradient>
<linearGradient id="paint1_linear_2103_11350" x1="50.7056" y1="-4.02086" x2="12.6338" y2="34.0509" gradientUnits="userSpaceOnUse">
<stop stop-color="#FF9AAF"/>
<stop offset="1" stop-color="#FF365F"/>
</linearGradient>
<linearGradient id="paint2_linear_2103_11350" x1="38" y1="1" x2="33" y2="18" gradientUnits="userSpaceOnUse">
<stop stop-color="#646464"/>
<stop offset="1" stop-color="#2B1E34"/>
</linearGradient>
<clipPath id="clip0_2103_11350">
<rect width="46" height="46" fill="white"/>
</clipPath>
</defs>
</svg>
