<svg width="24" height="24" viewBox="0 0 24 24" fill="none" xmlns="http://www.w3.org/2000/svg">
<path d="M12 20C12 20 3 16.6731 3 10.4828C3 4.53964 7.97829 1.68652 12 6.25974" fill="#FF365F"/>
<path d="M12 20C12 20 21 16.6778 21 10.4963C21 4.56171 16.0217 1.66124 12 6.27936" fill="#FF365F"/>
<path d="M12.1616 20C12.1616 20 21 16.6778 21 10.4963C21 4.56171 16.1111 1.66125 12.1616 6.27936C11.7316 6.78066 11.3431 7.31732 11 7.88387" stroke="#FF365F" stroke-width="1.8" stroke-linecap="round" stroke-linejoin="round"/>
<path d="M12 20C12 20 3 16.6677 3 10.4967C3 6.24899 5.55086 3.56462 8.472 4.0583C9.02462 4.05583 10.4104 4.3314 11.5325 5.4534" stroke="#FF365F" stroke-width="1.8" stroke-linecap="round" stroke-linejoin="round"/>
</svg>
