<svg width="242" height="39" viewBox="0 0 242 39" fill="none" xmlns="http://www.w3.org/2000/svg">
<path fill-rule="evenodd" clip-rule="evenodd" d="M16 0C7.16344 0 0 7.16344 0 16C0 24.8366 7.16344 32 16 32H22.2043L28.5709 38.4669C29.6874 39.601 31.6235 38.785 31.564 37.2055L31.3676 32H226C234.837 32 242 24.8366 242 16C242 7.16344 234.837 0 226 0H16Z" fill="#9E30F4"/>
<path d="M25.8177 16.9464V18.6743H30.0359V19.7516H20.3522V18.6743H24.5249V16.9464H21.5V13.4823H27.5994V12.1646H21.4834V11.1121H28.8881V14.5141H22.8011V15.8815H29.1326V16.9464H25.8177ZM37.8545 12.4713H31.7426V11.4146H39.1473V12.6163C39.1473 13.2489 39.1404 13.7917 39.1266 14.2447C39.1156 14.6978 39.081 15.2171 39.023 15.8028C38.9678 16.3884 38.8808 17.0265 38.762 17.7171L37.4402 17.6052C37.5672 16.9616 37.6598 16.3525 37.7178 15.7779C37.7786 15.2033 37.8158 14.6923 37.8297 14.2447C37.8435 13.7945 37.8518 13.2516 37.8545 12.6163V12.4713ZM30.7233 19.532V18.4588H40.3739V19.532H30.7233ZM48.6068 10.3994H49.9121V18.0528H48.6068V10.3994ZM44.14 16.3953C43.6068 16.3953 43.122 16.2834 42.6856 16.0597C42.2519 15.8331 41.9093 15.5182 41.6579 15.1149C41.4093 14.7088 41.285 14.2503 41.285 13.7392C41.285 13.2337 41.4093 12.7807 41.6579 12.3801C41.9093 11.9768 42.2519 11.6619 42.6856 11.4353C43.122 11.2088 43.6068 11.0956 44.14 11.0956C44.6731 11.0956 45.1566 11.2088 45.5903 11.4353C46.024 11.6619 46.3651 11.9768 46.6137 12.3801C46.8651 12.7807 46.9908 13.2337 46.9908 13.7392C46.9908 14.253 46.8651 14.7116 46.6137 15.1149C46.3651 15.5182 46.024 15.8331 45.5903 16.0597C45.1566 16.2834 44.6731 16.3953 44.14 16.3953ZM42.5571 13.7392C42.5571 14.0458 42.6248 14.3138 42.7601 14.5431C42.8955 14.7724 43.0833 14.9492 43.3237 15.0735C43.564 15.1978 43.8361 15.2599 44.14 15.2599C44.4356 15.2599 44.7021 15.1978 44.9397 15.0735C45.1773 14.9492 45.3651 14.7724 45.5032 14.5431C45.6414 14.3138 45.7104 14.0458 45.7104 13.7392C45.7104 13.4409 45.6414 13.1771 45.5032 12.9478C45.3651 12.7185 45.1759 12.5417 44.9356 12.4174C44.698 12.2931 44.4328 12.2309 44.14 12.2309C43.8389 12.2309 43.5668 12.2931 43.3237 12.4174C43.0833 12.5417 42.8955 12.7185 42.7601 12.9478C42.6248 13.1771 42.5571 13.4409 42.5571 13.7392ZM44.2187 17.2737V19.7185H50.2104V20.7751H42.9052V17.2737H44.2187ZM59.7611 14.6094H61.3937V15.6826H59.7611V20.974H58.4724V10.3911H59.7611V14.6094ZM53.9102 10.5403H55.2113V12.0113H57.6561V13.0638H51.4075V12.0113H53.9102V10.5403ZM54.5691 13.7475C55.0718 13.7475 55.5249 13.8539 55.9282 14.0666C56.3343 14.2793 56.652 14.5749 56.8812 14.9533C57.1133 15.3318 57.2307 15.7613 57.2334 16.242C57.2307 16.7226 57.1133 17.1522 56.8812 17.5307C56.652 17.9091 56.3343 18.2047 55.9282 18.4174C55.5249 18.6273 55.0718 18.7323 54.5691 18.7323C54.058 18.7323 53.5981 18.6273 53.1892 18.4174C52.7832 18.2047 52.4655 17.9091 52.2362 17.5307C52.0069 17.1522 51.8937 16.7226 51.8964 16.242C51.8937 15.7613 52.0069 15.3318 52.2362 14.9533C52.4655 14.5749 52.7832 14.2793 53.1892 14.0666C53.5981 13.8539 54.058 13.7475 54.5691 13.7475ZM54.5691 17.655C54.8398 17.6577 55.0815 17.6025 55.2942 17.4892C55.5097 17.3732 55.6782 17.2074 55.7997 16.992C55.9213 16.7765 55.9834 16.5265 55.9862 16.242C55.9834 15.9602 55.9213 15.7116 55.7997 15.4961C55.6782 15.2807 55.5097 15.1135 55.2942 14.9947C55.0815 14.876 54.8398 14.8166 54.5691 14.8166C54.2956 14.8166 54.0497 14.876 53.8315 14.9947C53.6133 15.1135 53.4434 15.2807 53.3218 15.4961C53.2003 15.7116 53.1409 15.9602 53.1437 16.242C53.1409 16.5265 53.2003 16.7765 53.3218 16.992C53.4434 17.2074 53.6119 17.3732 53.8274 17.4892C54.0456 17.6025 54.2928 17.6577 54.5691 17.655ZM69.4236 10.3911H70.7164V20.9989H69.4236V16.9837H67.0493C66.8172 17.5141 66.4996 17.9257 66.0963 18.2185C65.6929 18.5086 65.2371 18.6522 64.7289 18.6494C64.2012 18.6494 63.7302 18.4975 63.3159 18.1936C62.9043 17.887 62.5838 17.4505 62.3545 16.8842C62.1253 16.3152 62.012 15.6536 62.0148 14.8994C62.012 14.1508 62.1253 13.4947 62.3545 12.9312C62.5838 12.3649 62.9043 11.9284 63.3159 11.6218C63.7302 11.3124 64.2012 11.1577 64.7289 11.1577C65.2068 11.1605 65.6377 11.2903 66.0217 11.5472C66.4056 11.8014 66.7164 12.1619 66.954 12.6287H69.4236V10.3911ZM64.7289 17.4726C65.0217 17.4726 65.2786 17.3718 65.4996 17.1702C65.7233 16.9657 65.896 16.6702 66.0175 16.2834C66.1418 15.8939 66.204 15.4326 66.204 14.8994C66.204 14.369 66.1418 13.9119 66.0175 13.5279C65.896 13.1411 65.7233 12.8456 65.4996 12.6411C65.2786 12.4367 65.0217 12.3345 64.7289 12.3345C64.4388 12.3345 64.1819 12.4367 63.9581 12.6411C63.7371 12.8456 63.5659 13.1411 63.4443 13.5279C63.3228 13.9119 63.262 14.369 63.262 14.8994C63.262 15.4326 63.3228 15.8925 63.4443 16.2793C63.5659 16.666 63.7371 16.9616 63.9581 17.166C64.1819 17.3704 64.4388 17.4726 64.7289 17.4726ZM69.4236 15.9312V13.6895H67.3186C67.3987 14.0652 67.4388 14.4685 67.4388 14.8994C67.4388 15.2613 67.4112 15.6052 67.3559 15.9312H69.4236ZM83.3509 14.4063H84.9835V15.4754H83.3509V20.9989H82.0457V10.3911H83.3509V14.4063ZM76.7874 17.3193C77.6686 17.3138 78.4504 17.2862 79.1327 17.2365C79.815 17.184 80.5042 17.0956 81.2004 16.9713L81.3495 18.0693C80.6009 18.1992 79.862 18.2876 79.1327 18.3345C78.4062 18.3787 77.5512 18.4008 76.5678 18.4008H76.3606H75.4904V11.3898H80.4462V12.4464H76.7874V17.3193ZM95.2179 11.8V12.869H93.7842V14.0831H95.2179V15.1605H93.7842V16.6108H92.4748V10.3911H93.7842V11.8H95.2179ZM91.2565 13.5279C91.2538 14.0168 91.1281 14.4547 90.8795 14.8414C90.6336 15.2254 90.2938 15.5265 89.8601 15.7447C89.4264 15.9602 88.9402 16.0679 88.4016 16.0679C87.8601 16.0679 87.3712 15.9602 86.9347 15.7447C86.501 15.5265 86.1599 15.224 85.9112 14.8373C85.6626 14.4505 85.5397 14.0141 85.5425 13.5279C85.5397 13.0389 85.6626 12.6011 85.9112 12.2144C86.1599 11.8276 86.501 11.5279 86.9347 11.3152C87.3712 11.0997 87.8601 10.992 88.4016 10.992C88.9402 10.992 89.4264 11.0997 89.8601 11.3152C90.2938 11.5279 90.6336 11.8276 90.8795 12.2144C91.1281 12.5983 91.2538 13.0362 91.2565 13.5279ZM86.8228 13.5279C86.8201 13.8152 86.8864 14.0679 87.0217 14.2862C87.1571 14.5016 87.3449 14.6688 87.5853 14.7876C87.8256 14.9036 88.0977 14.963 88.4016 14.9657C88.7027 14.963 88.972 14.9036 89.2096 14.7876C89.4499 14.6688 89.6391 14.5016 89.7773 14.2862C89.9154 14.0679 89.9844 13.8152 89.9844 13.5279C89.9844 13.2406 89.9154 12.9878 89.7773 12.7696C89.6391 12.5514 89.4499 12.3829 89.2096 12.2641C88.972 12.1453 88.7027 12.0859 88.4016 12.0859C88.0977 12.0859 87.8256 12.1453 87.5853 12.2641C87.3449 12.3829 87.1571 12.5514 87.0217 12.7696C86.8864 12.9878 86.8201 13.2406 86.8228 13.5279ZM90.3366 16.8594C91.0576 16.8594 91.6847 16.9423 92.2179 17.108C92.751 17.271 93.1612 17.5072 93.4485 17.8166C93.7358 18.126 93.8795 18.4934 93.8795 18.9188C93.8795 19.3414 93.7358 19.7074 93.4485 20.0168C93.1612 20.3262 92.751 20.561 92.2179 20.7213C91.6847 20.8842 91.0576 20.9657 90.3366 20.9657C89.6074 20.9657 88.972 20.8842 88.4306 20.7213C87.8919 20.5583 87.4775 20.3221 87.1875 20.0127C86.8974 19.7061 86.7524 19.3414 86.7524 18.9188C86.7524 18.4934 86.8974 18.126 87.1875 17.8166C87.4775 17.5072 87.8919 17.271 88.4306 17.108C88.972 16.9423 89.6074 16.8594 90.3366 16.8594ZM90.3118 19.9257C91.0521 19.9257 91.6184 19.8414 92.0107 19.6729C92.4029 19.5044 92.5991 19.253 92.5991 18.9188C92.5991 18.5873 92.4029 18.3345 92.0107 18.1605C91.6212 17.9865 91.0632 17.8994 90.3366 17.8994C89.6046 17.8994 89.0397 17.9878 88.6419 18.1646C88.2469 18.3387 88.0507 18.59 88.0535 18.9188C88.0507 19.2503 88.2441 19.5016 88.6336 19.6729C89.0259 19.8414 89.5853 19.9257 90.3118 19.9257ZM99.6014 11.5721H102.092V12.608H95.8058V11.5721H98.3044V10.3911H99.6014V11.5721ZM104.155 10.3994V13.7268H105.635V14.8H104.155V18.3138H102.846V10.3994H104.155ZM98.955 17.0749C98.4439 17.0749 97.9909 16.9934 97.5959 16.8304C97.2036 16.6646 96.8984 16.4312 96.6801 16.1301C96.4619 15.8262 96.3528 15.4754 96.3528 15.0776C96.3528 14.6771 96.4619 14.3235 96.6801 14.0168C96.8984 13.7102 97.2036 13.4726 97.5959 13.3041C97.9909 13.1356 98.4439 13.0514 98.955 13.0514C99.4577 13.0514 99.9039 13.1356 100.293 13.3041C100.686 13.4726 100.991 13.7102 101.209 14.0168C101.427 14.3235 101.536 14.6771 101.536 15.0776C101.536 15.4754 101.427 15.8262 101.209 16.1301C100.991 16.4312 100.686 16.6646 100.293 16.8304C99.9039 16.9934 99.4577 17.0749 98.955 17.0749ZM97.6166 15.0776C97.6138 15.2848 97.6677 15.4644 97.7782 15.6163C97.8887 15.7655 98.0448 15.8801 98.2464 15.9602C98.4481 16.0403 98.6843 16.079 98.955 16.0762C99.2202 16.0762 99.4536 16.0376 99.6553 15.9602C99.8597 15.8801 100.017 15.7655 100.128 15.6163C100.241 15.4644 100.299 15.2848 100.302 15.0776C100.299 14.8649 100.241 14.6826 100.128 14.5307C100.017 14.376 99.8611 14.2586 99.6594 14.1784C99.4577 14.0956 99.2229 14.0541 98.955 14.0541C98.6843 14.0541 98.4481 14.0956 98.2464 14.1784C98.0448 14.2586 97.8887 14.376 97.7782 14.5307C97.6677 14.6826 97.6138 14.8649 97.6166 15.0776ZM97.368 17.6923H98.6649V19.7185H104.57V20.7751H97.368V17.6923ZM116.603 13.8138V10.3911H117.896V20.9989H116.603V14.8663H114.386V13.8138H116.603ZM112.928 12.9353C112.928 13.5983 113.03 14.2392 113.235 14.858C113.442 15.474 113.743 16.021 114.138 16.4989C114.536 16.974 115.009 17.3331 115.559 17.5762L114.768 18.6163C114.182 18.329 113.678 17.9188 113.255 17.3856C112.835 16.8525 112.508 16.2309 112.273 15.521C112.036 16.2724 111.701 16.934 111.27 17.5058C110.839 18.0776 110.327 18.5127 109.733 18.811L108.913 17.7544C109.471 17.4947 109.951 17.1135 110.355 16.6108C110.761 16.1052 111.07 15.5334 111.283 14.8953C111.496 14.2544 111.603 13.6011 111.606 12.9353V11.2406H112.928V12.9353ZM126.887 10.3911H128.201V20.9989H126.887V10.3911ZM119.943 11.253H121.248V13.9008H123.813V11.253H125.101V18.4961H119.943V11.253ZM121.248 14.9202V17.4271H123.813V14.9202H121.248ZM134.544 13.7268C134.312 14.1964 134.002 14.626 133.612 15.0155C133.225 15.4022 132.776 15.7309 132.265 16.0016C131.757 16.2724 131.21 16.4699 130.624 16.5942L130.053 15.5086C130.765 15.3787 131.41 15.1273 131.988 14.7544C132.565 14.3815 133.018 13.9367 133.347 13.4202C133.678 12.9036 133.845 12.376 133.848 11.8373V11.0583H135.232V11.8373C135.232 12.3815 135.397 12.9119 135.725 13.4284C136.054 13.945 136.508 14.3898 137.089 14.7627C137.671 15.1329 138.325 15.3815 139.049 15.5086L138.464 16.5942C137.876 16.4726 137.326 16.2779 136.815 16.0099C136.307 15.7392 135.858 15.4091 135.468 15.0196C135.082 14.6301 134.774 14.1992 134.544 13.7268ZM129.758 19.6315V18.5541H139.442V19.6315H129.758ZM141.344 12.1688H147.302V11.5224H141.319V10.6273H148.603V13.0141H142.636V13.6978H148.786V14.5969H141.344V12.1688ZM140.117 16.1715V15.1936H149.801V16.1715H140.117ZM148.624 19.2213H142.554V19.9588H148.947V20.8621H141.257V18.376H147.331V17.7254H141.244V16.8055H148.624V19.2213ZM160.848 10.3911H162.162V20.9989H160.848V10.3911ZM156.456 11.1577C156.984 11.1577 157.456 11.3124 157.873 11.6218C158.293 11.9284 158.62 12.3649 158.855 12.9312C159.093 13.4947 159.212 14.1508 159.212 14.8994C159.212 15.6536 159.093 16.3152 158.855 16.8842C158.62 17.4505 158.293 17.887 157.873 18.1936C157.456 18.4975 156.984 18.6494 156.456 18.6494C155.92 18.6494 155.442 18.4975 155.022 18.1936C154.602 17.887 154.275 17.4505 154.04 16.8842C153.805 16.3152 153.688 15.6536 153.688 14.8994C153.688 14.1508 153.805 13.4947 154.04 12.9312C154.278 12.3649 154.605 11.9284 155.022 11.6218C155.442 11.3124 155.92 11.1577 156.456 11.1577ZM156.456 12.3345C156.155 12.3345 155.89 12.4367 155.66 12.6411C155.434 12.8456 155.257 13.1411 155.13 13.5279C155.006 13.9119 154.944 14.369 154.944 14.8994C154.944 15.4326 155.006 15.8939 155.13 16.2834C155.257 16.6702 155.434 16.9657 155.66 17.1702C155.89 17.3718 156.155 17.4726 156.456 17.4726C156.752 17.4726 157.011 17.3704 157.235 17.166C157.462 16.9616 157.637 16.666 157.761 16.2793C157.888 15.8925 157.952 15.4326 157.952 14.8994C157.952 14.369 157.888 13.9119 157.761 13.5279C157.637 13.1411 157.462 12.8456 157.235 12.6411C157.011 12.4367 156.752 12.3345 156.456 12.3345ZM171.087 15.4837H173.37V16.5279H163.719V15.4837H165.965V14.137C165.562 13.9657 165.253 13.7489 165.037 13.4865C164.824 13.2213 164.719 12.9174 164.722 12.5749C164.722 12.1577 164.877 11.7986 165.186 11.4975C165.496 11.1964 165.936 10.9657 166.508 10.8055C167.083 10.6425 167.759 10.561 168.538 10.561C169.315 10.561 169.989 10.6425 170.561 10.8055C171.135 10.9657 171.577 11.1964 171.887 11.4975C172.196 11.7986 172.351 12.1577 172.351 12.5749C172.351 12.9202 172.241 13.2254 172.023 13.4906C171.808 13.7558 171.496 13.974 171.087 14.1453V15.4837ZM168.538 11.5679C168.016 11.5679 167.57 11.608 167.2 11.6881C166.833 11.7655 166.552 11.8801 166.359 12.032C166.166 12.1812 166.07 12.3621 166.073 12.5749C166.07 12.8981 166.283 13.1453 166.711 13.3166C167.139 13.4851 167.748 13.5693 168.538 13.5693C169.326 13.5693 169.935 13.4851 170.366 13.3166C170.797 13.1453 171.012 12.8981 171.012 12.5749C171.012 12.3621 170.914 12.1812 170.718 12.032C170.525 11.8801 170.243 11.7655 169.873 11.6881C169.503 11.608 169.058 11.5679 168.538 11.5679ZM167.279 15.4837H169.79V14.4768C169.387 14.5293 168.969 14.5555 168.538 14.5555C168.105 14.5555 167.685 14.5293 167.279 14.4768V15.4837ZM168.53 17.166C169.29 17.166 169.945 17.2392 170.494 17.3856C171.044 17.5293 171.465 17.7434 171.758 18.0279C172.054 18.3097 172.201 18.6522 172.201 19.0555C172.201 19.4616 172.054 19.8069 171.758 20.0914C171.465 20.3787 171.044 20.5956 170.494 20.742C169.947 20.8884 169.293 20.9602 168.53 20.9574C167.759 20.9602 167.098 20.8884 166.545 20.742C165.996 20.5956 165.574 20.3801 165.282 20.0956C164.989 19.811 164.842 19.4644 164.842 19.0555C164.842 18.6522 164.989 18.3097 165.282 18.0279C165.574 17.7434 165.997 17.5293 166.55 17.3856C167.102 17.2392 167.762 17.166 168.53 17.166ZM168.53 19.9713C169.29 19.9768 169.874 19.9008 170.283 19.7434C170.692 19.5859 170.898 19.3566 170.9 19.0555C170.898 18.7627 170.693 18.5403 170.287 18.3884C169.881 18.2365 169.295 18.1577 168.53 18.1522C167.757 18.1577 167.168 18.2365 166.765 18.3884C166.364 18.5403 166.166 18.7627 166.168 19.0555C166.163 19.3566 166.363 19.5859 166.769 19.7434C167.175 19.8981 167.762 19.974 168.53 19.9713ZM181.959 14.7503V10.3911H183.198V20.974H181.959V15.8028H180.919V20.4975H179.697V10.6149H180.919V14.7503H181.959ZM176.034 10.6936H177.323V12.0735H179.258V13.1218H174.07V12.0735H176.034V10.6936ZM176.68 13.6729C177.125 13.6729 177.521 13.7793 177.869 13.992C178.22 14.2019 178.495 14.4947 178.694 14.8704C178.893 15.2461 178.992 15.6715 178.992 16.1467C178.992 16.6273 178.893 17.0569 178.694 17.4353C178.495 17.8138 178.22 18.1094 177.869 18.3221C177.521 18.532 177.125 18.637 176.68 18.637C176.238 18.637 175.84 18.532 175.487 18.3221C175.136 18.1094 174.861 17.8138 174.662 17.4353C174.466 17.0569 174.368 16.6273 174.368 16.1467C174.368 15.6715 174.466 15.2461 174.662 14.8704C174.861 14.4947 175.136 14.2019 175.487 13.992C175.84 13.7793 176.238 13.6729 176.68 13.6729ZM176.68 17.5265C176.904 17.5265 177.104 17.4713 177.281 17.3608C177.458 17.2475 177.596 17.0873 177.695 16.8801C177.795 16.6702 177.845 16.4257 177.845 16.1467C177.845 15.8732 177.794 15.6315 177.691 15.4215C177.592 15.2088 177.454 15.0458 177.277 14.9326C177.103 14.8166 176.904 14.7586 176.68 14.7586C176.454 14.7586 176.252 14.8166 176.075 14.9326C175.899 15.0458 175.76 15.2074 175.661 15.4174C175.564 15.6273 175.516 15.8704 175.516 16.1467C175.516 16.4257 175.564 16.6702 175.661 16.8801C175.758 17.09 175.894 17.2503 176.071 17.3608C176.248 17.4713 176.451 17.5265 176.68 17.5265ZM192.775 16.5735V18.637H196.993V19.7019H187.309V18.637H191.482V16.5735H188.374V11.0914H189.679V12.8235H194.585V11.0914H195.882V16.5735H192.775ZM194.585 13.8677H189.679V15.5251H194.585V13.8677ZM205.566 20.974V10.3911H206.817V20.974H205.566ZM201.878 14.0376H203.39V10.5735H204.613V20.4685H203.39V15.1108H201.878V14.0376ZM200.987 13.1674C200.987 13.7613 201.059 14.3373 201.202 14.8953C201.346 15.4505 201.568 15.9616 201.87 16.4284C202.173 16.8925 202.556 17.2682 203.017 17.5555L202.296 18.5583C201.835 18.282 201.444 17.9119 201.124 17.4478C200.806 16.9809 200.555 16.445 200.37 15.84C200.173 16.4975 199.903 17.0818 199.557 17.5928C199.212 18.1011 198.798 18.5016 198.314 18.7945L197.51 17.829C198.005 17.5279 198.418 17.1342 198.749 16.6481C199.081 16.1619 199.327 15.626 199.487 15.0403C199.647 14.4519 199.727 13.847 199.727 13.2254V11.3276H200.987V13.1674ZM215.502 18.6246H217.735V19.6936H208.051V18.6246H210.289V15.9436C209.858 15.6978 209.524 15.3884 209.286 15.0155C209.051 14.6398 208.935 14.2213 208.938 13.7599C208.938 13.2074 209.105 12.7199 209.44 12.2972C209.777 11.8718 210.243 11.5417 210.84 11.3069C211.437 11.0721 212.114 10.9547 212.87 10.9547C213.627 10.9547 214.306 11.0721 214.905 11.3069C215.504 11.5417 215.973 11.8718 216.31 12.2972C216.649 12.7199 216.819 13.2074 216.819 13.7599C216.819 14.213 216.705 14.6246 216.475 14.9947C216.246 15.3621 215.922 15.6702 215.502 15.9188V18.6246ZM212.87 11.9947C212.343 11.9947 211.879 12.0652 211.478 12.2061C211.078 12.3469 210.767 12.5514 210.546 12.8193C210.325 13.0845 210.214 13.3981 210.214 13.7599C210.214 14.1163 210.325 14.4298 210.546 14.7005C210.767 14.9685 211.078 15.1757 211.478 15.3221C211.882 15.4657 212.346 15.5376 212.87 15.5376C213.393 15.5376 213.855 15.4644 214.259 15.3179C214.662 15.1715 214.975 14.9644 215.199 14.6964C215.426 14.4284 215.539 14.1163 215.539 13.7599C215.539 13.3981 215.427 13.0845 215.203 12.8193C214.98 12.5514 214.666 12.3469 214.263 12.2061C213.859 12.0652 213.395 11.9947 212.87 11.9947ZM211.578 18.6246H214.184V16.4202C213.772 16.5086 213.335 16.5528 212.87 16.5528C212.417 16.5528 211.987 16.5086 211.578 16.4202V18.6246ZM219.011 11.4519H220.606L220.474 17.4478H219.148L219.011 11.4519ZM219.811 20.0293C219.648 20.0293 219.496 19.9892 219.355 19.9091C219.214 19.8262 219.102 19.7157 219.019 19.5776C218.939 19.4367 218.9 19.2848 218.903 19.1218C218.9 18.9588 218.939 18.8083 219.019 18.6702C219.102 18.532 219.214 18.4229 219.355 18.3428C219.496 18.2627 219.648 18.2226 219.811 18.2226C219.971 18.2226 220.12 18.2627 220.258 18.3428C220.399 18.4229 220.511 18.532 220.594 18.6702C220.677 18.8083 220.718 18.9588 220.718 19.1218C220.718 19.2848 220.677 19.4367 220.594 19.5776C220.511 19.7157 220.399 19.8262 220.258 19.9091C220.12 19.9892 219.971 20.0293 219.811 20.0293Z" fill="white"/>
</svg>
