<svg width="24" height="24" viewBox="0 0 24 24" fill="none" xmlns="http://www.w3.org/2000/svg">
<path d="M15.5 19H17H19.5H20C21.1046 19 22 18.1046 22 17V13.5M8.5 19H7H4C2.89543 19 2 18.1046 2 17V4C2 2.89543 2.89543 2 4 2H8" stroke="white" stroke-width="1.3" stroke-linecap="round"/>
<path d="M15.5 19V19C15.1852 19 14.8889 19.1482 14.7 19.4L12.8 21.9333C12.4 22.4667 11.6 22.4667 11.2 21.9333L9.3 19.4C9.11115 19.1482 8.81476 19 8.5 19V19" stroke="white" stroke-width="1.3" stroke-linecap="round"/>
<path d="M15 6H19" stroke="white" stroke-width="1.3" stroke-linecap="round" stroke-linejoin="round"/>
<path d="M17 8V4" stroke="white" stroke-width="1.3" stroke-linecap="round" stroke-linejoin="round"/>
<circle cx="17" cy="6" r="5.35" stroke="white" stroke-width="1.3"/>
</svg>
