<svg width="147" height="67" viewBox="0 0 147 67" fill="none" xmlns="http://www.w3.org/2000/svg">
<g filter="url(#filter0_d_3001_11390)">
<path fill-rule="evenodd" clip-rule="evenodd" d="M25 10C17.8203 10 12 15.8203 12 23V34C12 41.1797 17.8203 47 25 47H117.638L122.328 52.3169C123.542 53.6944 125.819 52.8518 125.834 51.0191L125.872 46.4137C131.161 44.7659 135 39.8313 135 34V23C135 15.8203 129.18 10 122 10H25Z" fill="#F5EAFE"/>
<path d="M30.1602 25.6172C30.1562 26.0039 30.25 26.375 30.4414 26.7305C30.6367 27.0859 30.9238 27.4023 31.3027 27.6797C31.6816 27.957 32.1406 28.168 32.6797 28.3125L32.0938 29.3086C31.4922 29.1484 30.9727 28.9023 30.5352 28.5703C30.1016 28.2344 29.7637 27.8359 29.5215 27.375C29.2832 27.8828 28.9414 28.3203 28.4961 28.6875C28.0547 29.0547 27.5273 29.3281 26.9141 29.5078L26.293 28.4766C26.8359 28.3281 27.2988 28.1094 27.6816 27.8203C28.0684 27.5312 28.3613 27.1973 28.5605 26.8184C28.7598 26.4355 28.8594 26.0352 28.8594 25.6172V25.582H26.6445V24.5508H28.8594V23.4023H30.1719V24.5508H32.375V25.582H30.1602V25.6172ZM27.3359 33C27.9258 32.918 28.4512 32.7832 28.9121 32.5957C29.373 32.4043 29.7441 32.1758 30.0254 31.9102C30.3105 31.6445 30.4961 31.3594 30.582 31.0547H27.7695V30.0117H34.8594V31.0547H32.0586C32.1445 31.3516 32.3301 31.6348 32.6152 31.9043C32.9004 32.1699 33.2734 32.4004 33.7344 32.5957C34.1953 32.791 34.7188 32.9297 35.3047 33.0117L34.8359 34.0078C34.0156 33.8906 33.3008 33.6641 32.6914 33.3281C32.082 32.9961 31.623 32.5879 31.3145 32.1035C31.0059 32.584 30.5488 32.9883 29.9434 33.3164C29.3379 33.6445 28.6289 33.8672 27.8164 33.9844L27.3359 33ZM33.4062 23.4492H34.707V25.9102H36.1836V26.9883H34.707V29.5195H33.4062V23.4492ZM45.3008 27.4805H37.9648V23.8359H39.2539V26.4492H45.3008V27.4805ZM36.7109 28.7109H46.3906V29.7422H36.7109V28.7109ZM37.8711 30.6797H39.1719V32.7422H45.3711V33.7969H37.8711V30.6797ZM53.2109 24.75C53.2109 25.1719 53.2812 25.5762 53.4219 25.9629C53.5664 26.3496 53.7852 26.6973 54.0781 27.0059C54.3711 27.3105 54.7344 27.5508 55.168 27.7266L54.4883 28.6992C54.0352 28.5156 53.6504 28.2598 53.334 27.9316C53.0215 27.5996 52.7754 27.2109 52.5957 26.7656C52.4004 27.2695 52.1348 27.7148 51.7988 28.1016C51.4629 28.4883 51.0586 28.793 50.5859 29.0156L49.8477 28.0312C50.3125 27.8203 50.7012 27.541 51.0137 27.1934C51.3301 26.8418 51.5645 26.4531 51.7168 26.0273C51.8691 25.6016 51.9453 25.1641 51.9453 24.7148V23.8711H53.2109V24.75ZM51.8281 29.4258H59V32.1328H53.1406V32.918H59.375V33.9492H51.8398V31.1602H57.7109V30.4453H51.8281V29.4258ZM54.2539 25.2305H55.6367V23.6367H56.8789V28.9688H55.6367V26.2734H54.2539V25.2305ZM57.7578 23.4609H59V29.0156H57.7578V23.4609ZM69.1836 29.2969H67.8828V26.6133H66.0781V25.5469H67.8828V23.4609H69.1836V29.2969ZM60.7227 23.8711H65.4922V26.9297H62.0352V28.0312C62.9297 28.0234 63.6973 28 64.3379 27.9609C64.9824 27.9219 65.6367 27.8477 66.3008 27.7383L66.3945 28.793C65.6992 28.9023 65.0137 28.9766 64.3379 29.0156C63.6621 29.0547 62.8496 29.0742 61.9004 29.0742H61.5781H60.7461V25.957H64.2148V24.9141H60.7227V23.8711ZM62.1289 29.7539H63.4297V30.8203H67.8945V29.7539H69.1836V33.9141H62.1289V29.7539ZM67.8945 32.8594V31.8398H63.4297V32.8594H67.8945ZM79.4961 34.0547H78.1836V23.4492H79.4961V34.0547ZM71.0234 27.9609C71.0234 27.2148 71.1406 26.5586 71.375 25.9922C71.6094 25.4258 71.9355 24.9902 72.3535 24.6855C72.7754 24.377 73.2539 24.2227 73.7891 24.2227C74.3164 24.2227 74.7891 24.377 75.207 24.6855C75.6289 24.9902 75.959 25.4258 76.1973 25.9922C76.4355 26.5586 76.5547 27.2148 76.5547 27.9609C76.5547 28.7148 76.4355 29.375 76.1973 29.9414C75.959 30.5078 75.6289 30.9453 75.207 31.2539C74.7891 31.5586 74.3164 31.7109 73.7891 31.7109C73.2539 31.7109 72.7754 31.5586 72.3535 31.2539C71.9355 30.9453 71.6094 30.5078 71.375 29.9414C71.1406 29.375 71.0234 28.7148 71.0234 27.9609ZM72.2773 27.9609C72.2773 28.4961 72.3398 28.957 72.4648 29.3438C72.5938 29.7305 72.7715 30.0254 72.998 30.2285C73.2246 30.4316 73.4883 30.5352 73.7891 30.5391C74.0859 30.5352 74.3477 30.4316 74.5742 30.2285C74.8008 30.0254 74.9766 29.7305 75.1016 29.3438C75.2266 28.957 75.2891 28.4961 75.2891 27.9609C75.2891 27.4297 75.2266 26.9727 75.1016 26.5898C74.9766 26.2031 74.8008 25.9082 74.5742 25.7051C74.3477 25.498 74.0859 25.3945 73.7891 25.3945C73.4883 25.3945 73.2246 25.498 72.998 25.7051C72.7715 25.9082 72.5938 26.2031 72.4648 26.5898C72.3398 26.9727 72.2773 27.4297 72.2773 27.9609ZM86.3047 30.7852H87.6992V29.6484H88.9062V33.0117C89.3086 32.8438 89.6445 32.6211 89.9141 32.3438C90.1875 32.0664 90.3906 31.7617 90.5234 31.4297C90.6562 31.0977 90.7227 30.7578 90.7227 30.4102V29.5664H92.0234V30.4102C92.0195 30.7891 92.084 31.1504 92.2168 31.4941C92.3535 31.834 92.5625 32.1387 92.8438 32.4082C93.125 32.6738 93.4766 32.8789 93.8984 33.0234L93.2305 33.9961C92.3438 33.6758 91.7207 33.082 91.3613 32.2148C91.1777 32.6172 90.9316 32.9707 90.623 33.2754C90.3184 33.584 89.9531 33.8242 89.5273 33.9961L88.9062 33.0762V33.9141H85.0859V29.6484H86.3047V30.7852ZM84.043 26.3438C84.043 25.8672 84.1621 25.4434 84.4004 25.0723C84.6426 24.6973 84.9766 24.4062 85.4023 24.1992C85.8281 23.9883 86.3086 23.8828 86.8438 23.8828C87.293 23.8828 87.707 23.9629 88.0859 24.123C88.4648 24.2793 88.7812 24.502 89.0352 24.791C89.293 25.0801 89.4668 25.4141 89.5566 25.793H91.4727V23.4492H92.7734V29.0625H91.4727V26.8711H89.5625C89.4766 27.2578 89.3066 27.5996 89.0527 27.8965C88.7988 28.1934 88.4805 28.4238 88.0977 28.5879C87.7148 28.748 87.2969 28.8281 86.8438 28.8281C86.3086 28.8281 85.8281 28.7246 85.4023 28.5176C84.9766 28.3066 84.6426 28.0137 84.4004 27.6387C84.1621 27.2598 84.043 26.8281 84.043 26.3438ZM85.2852 26.3438C85.2852 26.625 85.3516 26.873 85.4844 27.0879C85.6172 27.3027 85.8008 27.4688 86.0352 27.5859C86.2734 27.7031 86.543 27.7617 86.8438 27.7617C87.1406 27.7617 87.4043 27.7031 87.6348 27.5859C87.8652 27.4688 88.0469 27.3027 88.1797 27.0879C88.3125 26.873 88.3789 26.625 88.3789 26.3438C88.3789 26.0703 88.3125 25.8281 88.1797 25.6172C88.0469 25.4062 87.8633 25.2441 87.6289 25.1309C87.3984 25.0176 87.1367 24.9609 86.8438 24.9609C86.543 24.9609 86.2734 25.0176 86.0352 25.1309C85.8008 25.2441 85.6172 25.4062 85.4844 25.6172C85.3516 25.8281 85.2852 26.0703 85.2852 26.3438ZM87.6992 32.918V31.7578H86.3047V32.918H87.6992ZM102.57 27.4688H104.199V28.5352H102.57V34.0547H101.27V23.4492H102.57V27.4688ZM94.707 24.457H99.6641V25.5117H96.0078V30.375C96.8672 30.3711 97.6406 30.3438 98.3281 30.293C99.0156 30.2422 99.7109 30.1562 100.414 30.0352L100.566 31.1367C99.7969 31.2695 99.0391 31.3574 98.293 31.4004C97.5469 31.4434 96.6445 31.4648 95.5859 31.4648H94.707V24.457ZM110.082 25.1836H112.215V23.4609H113.516V31.1719H112.215V28.5H110.082V29.4141H105.102V24.3398H110.082V25.1836ZM108.793 28.3945V25.3711H106.402V28.3945H108.793ZM106.531 30.457H107.855V32.7773H113.75V33.832H106.531V30.457ZM112.215 27.457V26.25H110.082V27.457H112.215ZM116.809 30.3984C116.812 29.918 116.859 29.5293 116.949 29.2324C117.039 28.9355 117.164 28.6973 117.324 28.5176C117.488 28.3379 117.707 28.1641 117.98 27.9961C118.258 27.8164 118.475 27.623 118.631 27.416C118.787 27.209 118.863 26.9688 118.859 26.6953C118.859 26.4805 118.809 26.293 118.707 26.1328C118.609 25.9688 118.473 25.8418 118.297 25.752C118.121 25.6621 117.926 25.6172 117.711 25.6172C117.512 25.6172 117.324 25.6602 117.148 25.7461C116.973 25.832 116.828 25.9629 116.715 26.1387C116.602 26.3145 116.539 26.5273 116.527 26.7773H115.062C115.074 26.2695 115.199 25.8379 115.438 25.4824C115.676 25.123 115.992 24.8535 116.387 24.6738C116.785 24.4902 117.23 24.3984 117.723 24.3984C118.246 24.3984 118.709 24.4922 119.111 24.6797C119.518 24.8633 119.832 25.127 120.055 25.4707C120.281 25.8145 120.395 26.2148 120.395 26.6719C120.391 27.1289 120.281 27.5215 120.066 27.8496C119.855 28.1777 119.551 28.4609 119.152 28.6992C118.918 28.8438 118.73 28.9902 118.59 29.1387C118.453 29.2871 118.352 29.4609 118.285 29.6602C118.219 29.8594 118.184 30.1055 118.18 30.3984V30.5039H116.809V30.3984ZM116.621 32.1797C116.621 32.0195 116.662 31.8711 116.744 31.7344C116.826 31.5938 116.938 31.4824 117.078 31.4004C117.219 31.3184 117.371 31.2773 117.535 31.2773C117.695 31.2773 117.844 31.3184 117.98 31.4004C118.121 31.4824 118.232 31.5938 118.314 31.7344C118.396 31.8711 118.438 32.0195 118.438 32.1797C118.438 32.3438 118.396 32.4961 118.314 32.6367C118.232 32.7773 118.121 32.8887 117.98 32.9707C117.844 33.0527 117.695 33.0938 117.535 33.0938C117.371 33.0938 117.219 33.0527 117.078 32.9707C116.938 32.8887 116.826 32.7773 116.744 32.6367C116.662 32.4961 116.621 32.3438 116.621 32.1797Z" fill="#9E30F4"/>
</g>
<defs>
<filter id="filter0_d_3001_11390" x="0" y="0" width="147" height="67" filterUnits="userSpaceOnUse" color-interpolation-filters="sRGB">
<feFlood flood-opacity="0" result="BackgroundImageFix"/>
<feColorMatrix in="SourceAlpha" type="matrix" values="0 0 0 0 0 0 0 0 0 0 0 0 0 0 0 0 0 0 127 0" result="hardAlpha"/>
<feOffset dy="2"/>
<feGaussianBlur stdDeviation="6"/>
<feComposite in2="hardAlpha" operator="out"/>
<feColorMatrix type="matrix" values="0 0 0 0 0 0 0 0 0 0 0 0 0 0 0 0 0 0 0.05 0"/>
<feBlend mode="normal" in2="BackgroundImageFix" result="effect1_dropShadow_3001_11390"/>
<feBlend mode="normal" in="SourceGraphic" in2="effect1_dropShadow_3001_11390" result="shape"/>
</filter>
</defs>
</svg>
