<svg width="18" height="18" viewBox="0 0 18 18" fill="none" xmlns="http://www.w3.org/2000/svg">
<path d="M13.611 5.11111C14.2946 6.29529 14.5691 7.67167 14.3921 9.02749C14.2151 10.3833 13.5964 11.6431 12.6317 12.6121C11.667 13.581 10.41 14.2053 9.05492 14.3882C7.69989 14.5712 6.32232 14.3028 5.13514 13.6244C3.94797 12.946 3.0173 11.8955 2.48701 10.6351C1.95672 9.37484 1.85633 7.97495 2.20136 6.65186C2.54639 5.32878 3.31763 4.15619 4.39586 3.31535C5.47409 2.47451 6.79926 2.01224 8.16653 2C9.2576 1.99974 10.3299 2.2839 11.2777 2.82445" stroke="#262626" stroke-width="1.3" stroke-linecap="round" stroke-linejoin="round"/>
<path d="M12.8889 12.8889L16 16" stroke="#262626" stroke-width="1.3" stroke-linecap="round" stroke-linejoin="round"/>
</svg>
