<svg width="24" height="24" viewBox="0 0 24 24" fill="none" xmlns="http://www.w3.org/2000/svg">
<path d="M17 18L8 12L17 6" stroke="#262626" stroke-width="2" stroke-linecap="round" stroke-linejoin="round"/>
<path d="M16.7532 8.03186C18.1427 8.03186 19.2692 6.90544 19.2692 5.51593C19.2692 4.12642 18.1427 3 16.7532 3C15.3637 3 14.2373 4.12642 14.2373 5.51593C14.2373 6.90544 15.3637 8.03186 16.7532 8.03186Z" fill="white" stroke="#262626" stroke-width="2" stroke-linecap="round" stroke-linejoin="round"/>
<path d="M16.7532 21.0006C18.1427 21.0006 19.2692 19.8742 19.2692 18.4847C19.2692 17.0952 18.1427 15.9688 16.7532 15.9688C15.3637 15.9688 14.2373 17.0952 14.2373 18.4847C14.2373 19.8742 15.3637 21.0006 16.7532 21.0006Z" fill="white" stroke="#262626" stroke-width="2" stroke-linecap="round" stroke-linejoin="round"/>
<path d="M7.2464 14.5162C8.63591 14.5162 9.76232 13.3898 9.76232 12.0003C9.76232 10.6108 8.63591 9.48438 7.2464 9.48438C5.85689 9.48438 4.73047 10.6108 4.73047 12.0003C4.73047 13.3898 5.85689 14.5162 7.2464 14.5162Z" fill="white" stroke="#262626" stroke-width="2" stroke-linecap="round" stroke-linejoin="round"/>
</svg>
