<svg width="60" height="23" viewBox="0 0 60 23" fill="none" xmlns="http://www.w3.org/2000/svg">
    <path d="M7.341 22.868a7.342 7.342 0 0 1-5.19-2.155A7.361 7.361 0 0 1 0 15.516a1.765 1.765 0 0 1 1.761-1.763 1.76 1.76 0 0 1 1.761 1.763c0 1.015.403 1.987 1.119 2.705a3.817 3.817 0 0 0 6.52-2.705 1.765 1.765 0 0 1 1.76-1.763 1.76 1.76 0 0 1 1.762 1.763 7.367 7.367 0 0 1-2.153 5.196 7.347 7.347 0 0 1-5.189 2.156zM19.292 22.868a1.67 1.67 0 0 1-1.761-1.567V1.585A1.774 1.774 0 0 1 19.292 0a1.77 1.77 0 0 1 1.761 1.585v19.71a1.673 1.673 0 0 1-1.76 1.573zM36.823 5.913a1.76 1.76 0 0 0-1.761 1.764v7.84a3.827 3.827 0 0 1-1.119 2.704 3.817 3.817 0 0 1-6.52-2.704v-7.84a1.765 1.765 0 0 0-1.76-1.764A1.76 1.76 0 0 0 23.9 7.677v7.84a7.344 7.344 0 0 0 3.793 6.477 7.318 7.318 0 0 0 7.494-.255 1.763 1.763 0 0 0 1.96 1.121 1.761 1.761 0 0 0 1.451-1.73V7.677a1.767 1.767 0 0 0-1.097-1.634 1.759 1.759 0 0 0-.679-.13zM56.206 6.084a1.764 1.764 0 0 0-2.35.837l-4.79 10.077L44.27 6.921a1.764 1.764 0 0 0-1.69-1.061 1.76 1.76 0 0 0-1.682 1.896c.018.236.084.466.192.676l6.386 13.428.05.086.045.085c.048.077.102.15.161.217v.03c.07.076.145.145.227.207l.065.045c.071.054.147.101.227.141h.035c.103.05.211.088.322.116h.08c.11.022.221.034.332.036.112-.002.223-.014.333-.036h.075a1.8 1.8 0 0 0 .327-.116h.035a1.59 1.59 0 0 0 .232-.14l.06-.046c.084-.06.162-.13.232-.207a.11.11 0 0 1 0-.03c.059-.067.111-.14.156-.216l.05-.086.05-.086 6.38-13.428a1.77 1.77 0 0 0-.744-2.348z" fill="#2B1E34"/>
    <path d="M58.239 3.55c.973 0 1.761-.79 1.761-1.764a1.762 1.762 0 1 0-1.761 1.763z" fill="#9E30F4"/>
    <path d="M7.341 14.725A7.334 7.334 0 0 1 .56 10.187 7.36 7.36 0 0 1 2.15 2.176 7.338 7.338 0 0 1 10.151.582a7.358 7.358 0 0 1 4.532 6.792 1.765 1.765 0 0 1-1.761 1.763 1.76 1.76 0 0 1-1.761-1.763A3.828 3.828 0 0 0 8.803 3.84a3.814 3.814 0 0 0-4.162.829 3.826 3.826 0 0 0 2.7 6.528 1.76 1.76 0 0 1 1.762 1.764 1.765 1.765 0 0 1-1.761 1.763z" fill="#2B1E34"/>
</svg>
