<svg width="88" height="88" viewBox="0 0 88 88" fill="none" xmlns="http://www.w3.org/2000/svg">
<path d="M10.7514 48.4848C8.62932 48.4848 6.55489 47.8556 4.79045 46.6766C3.02601 45.4977 1.65079 43.8219 0.838709 41.8614C0.026625 39.9009 -0.185858 37.7435 0.228139 35.6622C0.642136 33.5809 1.66402 31.6691 3.16456 30.1686C4.66509 28.6681 6.57688 27.6462 8.65819 27.2322C10.7395 26.8182 12.8968 27.0307 14.8574 27.8427C16.8179 28.6548 18.4936 30.03 19.6726 31.7945C20.8515 33.5589 21.4808 35.6333 21.4808 37.7554C21.4808 38.4381 21.2096 39.0927 20.7269 39.5754C20.2442 40.0581 19.5896 40.3293 18.9069 40.3293C18.2243 40.3293 17.5696 40.0581 17.0869 39.5754C16.6042 39.0927 16.333 38.4381 16.333 37.7554C16.333 36.6515 16.0057 35.5723 15.3924 34.6544C14.779 33.7365 13.9073 33.0211 12.8874 32.5987C11.8675 32.1762 10.7452 32.0657 9.66247 32.281C8.57973 32.4964 7.58518 33.028 6.80457 33.8086C6.02396 34.5892 5.49237 35.5838 5.277 36.6665C5.06163 37.7492 5.17217 38.8715 5.59463 39.8914C6.01709 40.9113 6.73251 41.7831 7.65041 42.3964C8.5683 43.0097 9.64745 43.3371 10.7514 43.3371C11.434 43.3371 12.0887 43.6083 12.5714 44.0909C13.0541 44.5736 13.3253 45.2283 13.3253 45.911C13.3253 46.5936 13.0541 47.2483 12.5714 47.731C12.0887 48.2137 11.434 48.4848 10.7514 48.4848Z" fill="#2B1E34"/>
<path d="M10.7515 60.3467C7.90645 60.3506 5.17618 59.2252 3.16031 57.2176C1.14443 55.21 0.00779192 52.4844 0 49.6394C0 48.9567 0.271169 48.3021 0.753865 47.8194C1.23656 47.3367 1.89125 47.0655 2.57388 47.0655C3.25652 47.0655 3.9112 47.3367 4.3939 47.8194C4.8766 48.3021 5.14777 48.9567 5.14777 49.6394C5.14777 51.1197 5.73583 52.5394 6.78259 53.5862C7.82935 54.633 9.24907 55.221 10.7294 55.221C12.2098 55.221 13.6295 54.633 14.6762 53.5862C15.723 52.5394 16.3111 51.1197 16.3111 49.6394C16.3111 48.9567 16.5823 48.3021 17.0649 47.8194C17.5476 47.3367 18.2023 47.0655 18.8849 47.0655C19.5676 47.0655 20.2223 47.3367 20.705 47.8194C21.1877 48.3021 21.4588 48.9567 21.4588 49.6394C21.4491 52.4762 20.3179 55.194 18.312 57.1999C16.3061 59.2058 13.5883 60.337 10.7515 60.3467Z" fill="#2B1E34"/>
<path d="M28.2169 60.3467C27.5728 60.3829 26.9405 60.1627 26.4582 59.7342C25.9759 59.3056 25.6829 58.7036 25.6431 58.0596V29.313C25.7111 28.6778 26.0115 28.0902 26.4867 27.6632C26.9619 27.2362 27.5781 27 28.2169 27C28.8558 27 29.472 27.2362 29.9472 27.6632C30.4224 28.0902 30.7228 28.6778 30.7908 29.313V58.0817C30.7455 58.7217 30.45 59.3181 29.9684 59.742C29.4867 60.1659 28.8575 60.3831 28.2169 60.3467Z" fill="#2B1E34"/>
<path d="M53.8386 35.6227C53.1559 35.6227 52.5013 35.8939 52.0186 36.3766C51.5359 36.8593 51.2647 37.514 51.2647 38.1966V49.6394C51.2647 51.1197 50.6766 52.5394 49.6299 53.5862C48.5831 54.633 47.1634 55.221 45.683 55.221C44.2027 55.221 42.783 54.633 41.7362 53.5862C40.6894 52.5394 40.1014 51.1197 40.1014 49.6394V38.1966C40.1014 37.514 39.8302 36.8593 39.3475 36.3766C38.8648 35.8939 38.2101 35.6227 37.5275 35.6227C36.8449 35.6227 36.1902 35.8939 35.7075 36.3766C35.2248 36.8593 34.9536 37.514 34.9536 38.1966V49.6394C34.9614 52.4806 36.095 55.2028 38.1061 57.2098C40.1172 59.2168 42.8418 60.3448 45.683 60.3467C47.7195 60.3485 49.7134 59.7639 51.4265 58.6627C51.6368 59.2276 52.0387 59.7007 52.5622 59.9997C53.0856 60.2986 53.6974 60.4043 54.2908 60.2984C54.8842 60.1925 55.4216 59.8817 55.8093 59.4201C56.1971 58.9586 56.4105 58.3756 56.4124 57.7728V38.1966C56.4124 37.514 56.1413 36.8593 55.6586 36.3766C55.1759 35.8939 54.5212 35.6227 53.8386 35.6227Z" fill="#2B1E34"/>
<path d="M82.1663 35.8727C81.5488 35.5803 80.8406 35.5446 80.1968 35.7734C79.5531 36.0022 79.0263 36.4769 78.732 37.0935L71.731 51.8014L64.7227 37.0935C64.5854 36.7765 64.3856 36.4904 64.1354 36.2523C63.8851 36.0142 63.5895 35.8289 63.2662 35.7074C62.9428 35.5859 62.5983 35.5308 62.2532 35.5452C61.908 35.5597 61.5693 35.6435 61.2573 35.7916C60.9452 35.9398 60.6661 36.1492 60.4367 36.4074C60.2073 36.6657 60.0322 36.9675 59.9219 37.2948C59.8116 37.6222 59.7683 37.9684 59.7946 38.3128C59.8209 38.6572 59.9163 38.9929 60.075 39.2997L69.4072 58.8759L69.4807 59.0009L69.5469 59.1259C69.617 59.2373 69.6957 59.343 69.7822 59.4421V59.4863C69.8835 59.5963 69.9942 59.6972 70.1131 59.7878C70.1432 59.8123 70.1752 59.8345 70.2087 59.854C70.3128 59.9322 70.4235 60.0011 70.5397 60.0599H70.5911C70.7421 60.1315 70.8998 60.1881 71.0618 60.229H71.1795C71.3393 60.2611 71.5018 60.2783 71.6648 60.2805C71.8278 60.2779 71.9903 60.2607 72.1502 60.229H72.2605C72.4249 60.1881 72.585 60.1315 72.7385 60.0599H72.79C72.9084 60.001 73.0216 59.9322 73.1283 59.854L73.2165 59.7878C73.3393 59.6992 73.4527 59.5981 73.5548 59.4863V59.4421C73.6413 59.3447 73.7177 59.2388 73.7828 59.1259L73.8563 59.0009L73.9298 58.8759L83.2546 39.2776C83.5477 38.6793 83.5981 37.9909 83.3952 37.3563C83.1924 36.7217 82.752 36.1901 82.1663 35.8727Z" fill="#2B1E34"/>
<path d="M85.1442 32.1738C86.5657 32.1738 87.7181 31.0214 87.7181 29.5999C87.7181 28.1784 86.5657 27.026 85.1442 27.026C83.7227 27.026 82.5703 28.1784 82.5703 29.5999C82.5703 31.0214 83.7227 32.1738 85.1442 32.1738Z" fill="#9E30F4"/>
</svg>
