<svg width="162" height="162" viewBox="0 0 162 162" fill="none" xmlns="http://www.w3.org/2000/svg">
    <rect width="162" height="162" rx="16" fill="url(#g500lki04a)"/>
    <path d="M0 74h14a6 6 0 0 1 6 6v1a6 6 0 0 1-6 6H0V74zM0 35h14a6 6 0 0 1 6 6v1a6 6 0 0 1-6 6H0V35zM0 113h14a6 6 0 0 1 6 6v1a6 6 0 0 1-6 6H0v-13z" fill="#DADADA" fill-opacity=".7"/>
    <rect x="39" y="39" width="84" height="84" rx="12" fill="#fff" fill-opacity=".5"/>
    <defs>
        <linearGradient id="g500lki04a" x1="125" y1="13.5" x2="40" y2="329" gradientUnits="userSpaceOnUse">
            <stop stop-color="#F4F4F4"/>
            <stop offset="1" stop-color="#DADADA"/>
        </linearGradient>
    </defs>
</svg>
