<svg width="162" height="162" viewBox="0 0 162 162" fill="none" xmlns="http://www.w3.org/2000/svg">
    <rect width="162" height="162" rx="16" fill="#fff"/>
    <path d="M162 0H0v162h162V0z" fill="url(#1bi8jgxnsa)" fill-opacity=".2"/>
    <path opacity=".65" d="M93 81c0-16.016 12.984-29 29-29h40v58h-40c-16.016 0-29-12.984-29-29z" fill="#fff"/>
    <circle cx="123" cy="81" r="14" fill="url(#wxjymeeg9b)" fill-opacity=".2"/>
    <path d="M0 74h14a6 6 0 0 1 6 6v1a6 6 0 0 1-6 6H0V74zM0 35h14a6 6 0 0 1 6 6v1a6 6 0 0 1-6 6H0V35zM0 113h14a6 6 0 0 1 6 6v1a6 6 0 0 1-6 6H0v-13z" fill="#fff" fill-opacity=".45"/>
    <defs>
        <linearGradient id="1bi8jgxnsa" x1="125.5" y1="-8.5" x2="79.001" y2="181.511" gradientUnits="userSpaceOnUse">
            <stop stop-color="#CCDDFB"/>
            <stop offset="1" stop-color="#4285F4"/>
        </linearGradient>
        <linearGradient id="wxjymeeg9b" x1="130.691" y1="65.531" x2="122.654" y2="98.372" gradientUnits="userSpaceOnUse">
            <stop stop-color="#CCDDFB"/>
            <stop offset="1" stop-color="#4285F4"/>
        </linearGradient>
    </defs>
</svg>
