<svg width="24" height="24" viewBox="0 0 24 24" fill="none" xmlns="http://www.w3.org/2000/svg">
<path d="M21.2191 12.5744C21.1647 11.7021 20.9326 10.8481 20.5357 10.0601C20.2674 9.54539 19.9626 9.04876 19.6236 8.57364C19.5396 8.45604 19.3623 8.46743 19.2832 8.58832C18.7786 9.35939 18.0414 9.97128 17.1645 10.3419C15.7978 10.8404 13.4061 10.1901 14.7272 5.0532C15.5473 1.88867 11.2422 1 11.2422 1C11.9027 3.44926 11.2422 3.16749 9.98935 4.85813C8.73654 6.54877 9.73879 9.1931 7.71152 9.47488C4.80492 10 4.66174 7.23118 4.71423 6.14638C4.71933 6.04097 4.57092 5.9881 4.51294 6.07628C3.93158 6.96048 3.43901 7.89516 3.04196 8.86798C2.73704 9.47634 2.50771 10.1165 2.35862 10.7754C1.67549 13.3042 1.97476 15.9826 3.20141 18.3182C3.63408 19.0682 4.17884 19.7545 4.81867 20.3557C5.44592 20.9693 6.16796 21.4883 6.95984 21.8946C7.7633 22.3059 8.62144 22.6121 9.51101 22.8049C10.1705 22.9342 10.8421 22.9995 11.5155 23C12.5923 22.9983 13.6617 22.8299 14.6817 22.5015C15.7327 22.1875 16.719 21.7036 17.5973 21.0709C18.4157 20.4623 19.1236 19.7301 19.6929 18.9034C20.482 17.7005 20.98 16.3456 21.1507 14.9369C21.2538 14.1534 21.2767 13.3622 21.2191 12.5744Z" fill="url(#paint0_linear_2103_11220)" stroke="url(#paint1_linear_2103_11220)" stroke-width="0.5" stroke-linecap="round" stroke-linejoin="round"/>
<path d="M17.105 15.7526C17.0692 15.2606 16.9347 14.7791 16.7084 14.3329C16.569 14.0857 16.4158 13.8457 16.2492 13.6136C16.1652 13.4965 15.9881 13.5103 15.9043 13.6276C15.6352 14.0042 15.2615 14.309 14.8201 14.5082C14.0082 14.7886 12.6486 14.5082 13.4039 11.5285C13.876 9.77582 11.3834 9.25 11.3834 9.25C11.78 10.6171 11.3834 10.4594 10.6848 11.4059C9.9861 12.3523 10.5337 13.8071 9.41961 13.9999C7.88088 14.2725 7.68929 12.987 7.69336 12.3022C7.69398 12.1977 7.54462 12.1434 7.48667 12.2305C7.18647 12.6813 6.92966 13.1561 6.71936 13.6493C6.54844 13.9906 6.42167 14.3495 6.3417 14.7185C5.93593 16.1443 6.10375 17.6584 6.81377 18.9776C7.06816 19.3927 7.37914 19.7756 7.73903 20.1169C8.09301 20.4606 8.49278 20.761 8.92866 21.0108C9.39179 21.2429 9.88751 21.414 10.4015 21.5191C10.7871 21.5896 11.1793 21.6248 11.5723 21.6242C12.2146 21.6346 12.8538 21.5397 13.4606 21.3438C14.0267 21.1559 14.5561 20.8836 15.0278 20.5375C15.4967 20.1959 15.9046 19.7878 16.2364 19.3282C16.6935 18.6472 16.9836 17.8813 17.0861 17.0847C17.1306 16.6418 17.1369 16.1964 17.105 15.7526Z" fill="url(#paint2_linear_2103_11220)" stroke="url(#paint3_linear_2103_11220)" stroke-width="0.5" stroke-linejoin="round"/>
<circle cx="18.5" cy="5.125" r="1.375" fill="#FF809A"/>
<defs>
<linearGradient id="paint0_linear_2103_11220" x1="11.625" y1="-9.95345" x2="11.625" y2="23" gradientUnits="userSpaceOnUse">
<stop stop-color="#FF9AAF"/>
<stop offset="1" stop-color="#FF365F"/>
</linearGradient>
<linearGradient id="paint1_linear_2103_11220" x1="11.625" y1="-9.95345" x2="11.625" y2="23" gradientUnits="userSpaceOnUse">
<stop stop-color="#FF9AAF"/>
<stop offset="1" stop-color="#FF365F"/>
</linearGradient>
<linearGradient id="paint2_linear_2103_11220" x1="11.625" y1="3.08868" x2="11.625" y2="21.625" gradientUnits="userSpaceOnUse">
<stop stop-color="#FFCCD7"/>
<stop offset="1" stop-color="#FF5C7E"/>
</linearGradient>
<linearGradient id="paint3_linear_2103_11220" x1="11.625" y1="3.08868" x2="11.625" y2="21.625" gradientUnits="userSpaceOnUse">
<stop stop-color="#FFCCD7"/>
<stop offset="1" stop-color="#FF5C7E"/>
</linearGradient>
</defs>
</svg>
