<svg width="24" height="24" viewBox="0 0 24 24" fill="none" xmlns="http://www.w3.org/2000/svg">
<path fill-rule="evenodd" clip-rule="evenodd" d="M2 3C2 1.89543 2.89543 1 4 1H20C21.1046 1 22 1.89543 22 3V17V18V20.8146C22 22.4015 20.2405 23.3563 18.91 22.4915L13.09 18.7085C12.4272 18.2777 11.5728 18.2777 10.91 18.7085L5.08998 22.4915C3.75947 23.3563 2 22.4015 2 20.8146V18V17V3Z" fill="url(#paint0_radial_2031_9976)"/>
<path d="M11.4314 5.68748C11.6149 5.14293 12.3851 5.14293 12.5686 5.68748L13.2781 7.79331C13.3604 8.03737 13.5892 8.20173 13.8467 8.20173H16.0967C16.6834 8.20173 16.9214 8.95682 16.4408 9.29325L14.6591 10.5406C14.4409 10.6933 14.3495 10.9716 14.4347 11.224L15.1247 13.2687C15.31 13.8176 14.6867 14.2843 14.2121 13.9521L12.3441 12.6443C12.1375 12.4997 11.8625 12.4997 11.6559 12.6443L9.7867 13.9529C9.31223 14.2851 8.68907 13.8187 8.87401 13.2698L9.56343 11.2237C9.64842 10.9715 9.55708 10.6934 9.33908 10.5407L7.5581 9.29315C7.07771 8.95664 7.31581 8.20173 7.90234 8.20173H10.1533C10.4108 8.20173 10.6396 8.03737 10.7219 7.79331L11.4314 5.68748Z" fill="url(#paint1_linear_2031_9976)"/>
<defs>
<radialGradient id="paint0_radial_2031_9976" cx="0" cy="0" r="1" gradientUnits="userSpaceOnUse" gradientTransform="translate(11 6) rotate(91.4688) scale(19.5064 18.0649)">
<stop stop-color="#FFF7C0"/>
<stop offset="1" stop-color="#FFD072"/>
</radialGradient>
<linearGradient id="paint1_linear_2031_9976" x1="10.5" y1="4" x2="12" y2="15" gradientUnits="userSpaceOnUse">
<stop stop-color="#FFCCD7"/>
<stop offset="1" stop-color="#FF5C7E"/>
</linearGradient>
</defs>
</svg>
