<svg width="24" height="24" viewBox="0 0 24 24" fill="none" xmlns="http://www.w3.org/2000/svg">
<path fill-rule="evenodd" clip-rule="evenodd" d="M4 2C2.34315 2 1 3.34315 1 5V16C1 17.6569 2.34315 19 4 19H9.1132L10.6143 21.6C11.2302 22.6667 12.7698 22.6667 13.3856 21.6L14.8867 19H20C21.6569 19 23 17.6569 23 16V5C23 3.34315 21.6569 2 20 2H4Z" fill="url(#paint0_linear_2103_11232)"/>
<path opacity="0.8" d="M16.2068 6.81342C15.9564 6.55768 15.6591 6.35479 15.3318 6.21636C15.0045 6.07793 14.6536 6.00668 14.2993 6.00668C13.9449 6.00668 13.5941 6.07793 13.2668 6.21636C12.9394 6.35479 12.6421 6.55768 12.3918 6.81342L12.0011 7.20962L11.6061 6.80674C11.3557 6.551 11.0584 6.34811 10.7311 6.20968C10.4038 6.07125 10.0529 6 9.69856 6C9.34422 6 8.99335 6.07125 8.66604 6.20968C8.33873 6.34811 8.0414 6.551 7.79105 6.80674C7.54029 7.06206 7.34134 7.3653 7.20561 7.6991C7.06987 8.03291 7 8.39074 7 8.75211C7 9.11348 7.06987 9.47131 7.20561 9.80512C7.34134 10.1389 7.54029 10.4422 7.79105 10.6975L8.1839 11.1004L11.2871 14.2706C11.679 14.671 12.3234 14.6713 12.7157 14.2712L15.8161 11.1093L16.209 10.7064C16.4599 10.4509 16.659 10.1474 16.7947 9.8133C16.9304 9.4792 17.0002 9.12108 17 8.75944C16.9998 8.3978 16.9296 8.03976 16.7935 7.70582C16.6574 7.37189 16.458 7.06863 16.2068 6.81342Z" fill="url(#paint1_linear_2103_11232)"/>
<defs>
<linearGradient id="paint0_linear_2103_11232" x1="12" y1="-8.15684" x2="12" y2="22.4" gradientUnits="userSpaceOnUse">
<stop stop-color="#FFCCD7"/>
<stop offset="1" stop-color="#FF5C7E"/>
</linearGradient>
<linearGradient id="paint1_linear_2103_11232" x1="12" y1="7.27481" x2="13.9491" y2="23.2009" gradientUnits="userSpaceOnUse">
<stop stop-color="white"/>
<stop offset="1" stop-color="white" stop-opacity="0"/>
</linearGradient>
</defs>
</svg>
