<svg width="24" height="24" viewBox="0 0 24 24" fill="none" xmlns="http://www.w3.org/2000/svg">
<g clip-path="url(#clip0_2784_11169)">
<path d="M3.31424 5.1716C3.74947 4.73637 4.27719 4.40215 4.86727 4.18802C5.45735 3.9739 6.09824 3.88406 6.75333 3.92364C7.40842 3.96322 8.0649 4.13144 8.68527 4.4187C9.30565 4.70597 9.87776 5.10665 10.369 5.59786L18.6247 13.8536L11.9962 20.482L3.73747 12.2233C2.74666 11.2311 2.14553 9.93095 2.06617 8.60866C1.98681 7.28637 2.43571 6.05013 3.31424 5.1716Z" fill="url(#paint0_linear_2784_11169)" stroke="url(#paint1_linear_2784_11169)" stroke-width="2" stroke-linecap="round" stroke-linejoin="round"/>
<path d="M11.9985 20.4717L5.36943 13.8426L13.6251 5.58686C14.6172 4.59482 15.9181 3.99291 17.2417 3.91354C18.5653 3.83416 19.8031 4.28382 20.6829 5.16361C21.1185 5.59923 21.4531 6.12735 21.6676 6.71779C21.8821 7.30823 21.9723 7.94945 21.933 8.60482C21.8937 9.2602 21.7257 9.91689 21.4385 10.5374C21.1514 11.1579 20.7508 11.7301 20.2596 12.2213L12.0039 20.4771L11.9985 20.4717Z" fill="url(#paint2_linear_2784_11169)" stroke="url(#paint3_linear_2784_11169)" stroke-width="2" stroke-linecap="round" stroke-linejoin="round"/>
</g>
<defs>
<linearGradient id="paint0_linear_2784_11169" x1="-2.65848" y1="-0.801117" x2="15.3104" y2="17.1678" gradientUnits="userSpaceOnUse">
<stop stop-color="#FFCCD7"/>
<stop offset="1" stop-color="#FF5C7E"/>
</linearGradient>
<linearGradient id="paint1_linear_2784_11169" x1="-2.65848" y1="-0.801117" x2="15.3104" y2="17.1678" gradientUnits="userSpaceOnUse">
<stop stop-color="#FFCCD7"/>
<stop offset="1" stop-color="#FF5C7E"/>
</linearGradient>
<linearGradient id="paint2_linear_2784_11169" x1="24" y1="2" x2="13.5645" y2="21.1264" gradientUnits="userSpaceOnUse">
<stop stop-color="#FF9AAF"/>
<stop offset="1" stop-color="#FF365F"/>
</linearGradient>
<linearGradient id="paint3_linear_2784_11169" x1="25" y1="3.5" x2="14.5401" y2="21.39" gradientUnits="userSpaceOnUse">
<stop stop-color="#FF9AAF"/>
<stop offset="1" stop-color="#FF365F"/>
</linearGradient>
<clipPath id="clip0_2784_11169">
<rect width="24" height="24" fill="white"/>
</clipPath>
</defs>
</svg>
