<svg width="24" height="24" viewBox="0 0 24 24" fill="none" xmlns="http://www.w3.org/2000/svg">
<g clip-path="url(#clip0_2103_11237)">
<path d="M5.66707 2H18.3352L24 8.80982H0L5.66707 2Z" fill="url(#paint0_linear_2103_11237)"/>
<path d="M0 8.81055L12.0011 21.9277L24 8.81055H0Z" fill="url(#paint1_linear_2103_11237)"/>
<path d="M12.0018 2L5.66772 8.80982H18.3358L12.0018 2Z" fill="url(#paint2_linear_2103_11237)"/>
<path d="M18.3357 2V8.80982H24.0005L18.3357 2Z" fill="url(#paint3_linear_2103_11237)"/>
<path d="M5.66707 2V8.80982H0L5.66707 2Z" fill="url(#paint4_linear_2103_11237)"/>
<path d="M12.0018 21.9277L5.66772 8.81055H18.3358L12.0018 21.9277Z" fill="url(#paint5_linear_2103_11237)"/>
</g>
<defs>
<linearGradient id="paint0_linear_2103_11237" x1="4.5" y1="-13" x2="30.6752" y2="4.34617" gradientUnits="userSpaceOnUse">
<stop stop-color="#FFCCD7"/>
<stop offset="0.110618" stop-color="#FEFFC9"/>
<stop offset="1" stop-color="#FF5C7E"/>
</linearGradient>
<linearGradient id="paint1_linear_2103_11237" x1="4" y1="10.501" x2="25" y2="22.001" gradientUnits="userSpaceOnUse">
<stop stop-color="#FF9AAF"/>
<stop offset="1" stop-color="#FF365F"/>
</linearGradient>
<linearGradient id="paint2_linear_2103_11237" x1="11.9998" y1="0.5" x2="12.9998" y2="14" gradientUnits="userSpaceOnUse">
<stop stop-color="#FFCFB3"/>
<stop offset="0.302959" stop-color="#FF90A7"/>
<stop offset="1" stop-color="#FF365F"/>
</linearGradient>
<linearGradient id="paint3_linear_2103_11237" x1="23.9998" y1="24" x2="18.9998" y2="2.5" gradientUnits="userSpaceOnUse">
<stop stop-color="#FFCCD7"/>
<stop offset="1" stop-color="#FF5C7E"/>
</linearGradient>
<linearGradient id="paint4_linear_2103_11237" x1="-5" y1="18" x2="-11.5286" y2="2.36122" gradientUnits="userSpaceOnUse">
<stop stop-color="#FFCCD7"/>
<stop offset="0.15857" stop-color="#FEFFC9"/>
<stop offset="1" stop-color="#FF5C7E"/>
</linearGradient>
<linearGradient id="paint5_linear_2103_11237" x1="11.4998" y1="2.50098" x2="12.0018" y2="21.9277" gradientUnits="userSpaceOnUse">
<stop stop-color="#FFD7B7"/>
<stop offset="0.401893" stop-color="#FFBFCC"/>
<stop offset="1" stop-color="#FF5C7E"/>
</linearGradient>
<clipPath id="clip0_2103_11237">
<rect width="24" height="24" fill="white"/>
</clipPath>
</defs>
</svg>
