<svg width="24" height="24" viewBox="0 0 24 24" fill="none" xmlns="http://www.w3.org/2000/svg">
<rect x="5" y="2" width="14" height="7" rx="3" fill="url(#paint0_linear_2032_9965)" fill-opacity="0.8"/>
<path d="M2.71727 6.68594C2.87799 5.1591 4.16551 4 5.70079 4H18.2992C19.8345 4 21.122 5.15911 21.2827 6.68595L22.6512 19.6859C22.8376 21.4573 21.4487 23 19.6676 23H4.33237C2.55126 23 1.16239 21.4573 1.34885 19.6859L2.71727 6.68594Z" fill="url(#paint1_linear_2032_9965)"/>
<path d="M18 7C18 10.3137 15.3137 13 12 13C8.68629 13 6 10.3137 6 7" stroke="#FFEAEE" stroke-width="1.3" stroke-miterlimit="10" stroke-linecap="round"/>
<defs>
<linearGradient id="paint0_linear_2032_9965" x1="11.5" y1="2" x2="13.5" y2="11" gradientUnits="userSpaceOnUse">
<stop stop-color="#FFCCD7"/>
<stop offset="1" stop-color="#FF5C7E"/>
</linearGradient>
<linearGradient id="paint1_linear_2032_9965" x1="10.5" y1="7" x2="12" y2="28" gradientUnits="userSpaceOnUse">
<stop stop-color="#FF9AAF"/>
<stop offset="1" stop-color="#FF365F"/>
</linearGradient>
</defs>
</svg>
