<svg width="24" height="24" viewBox="0 0 24 24" fill="none" xmlns="http://www.w3.org/2000/svg">
<path d="M19.5374 9.83546C17.9926 11.1712 15.5937 10.6066 14.8068 8.72213L13.1083 4.65441C12.6975 3.67056 11.3035 3.67103 10.8933 4.65514L9.19881 8.72081C8.41315 10.6059 6.01449 11.172 4.46885 9.83718L3.02429 8.58963C2.24036 7.91261 1.02456 8.48011 1.04009 9.51581L1.18547 19.214C1.18547 21.1796 6.0241 22.7778 11.9999 22.7778C17.9757 22.7778 22.8226 21.1796 22.8226 19.214L22.9617 9.51567C22.9765 8.47999 21.7604 7.91326 20.9769 8.59074L19.5374 9.83546Z" fill="url(#paint0_radial_2103_11225)"/>
<path d="M12 3C12.5523 3 13 2.55228 13 2C13 1.44772 12.5523 1 12 1C11.4477 1 11 1.44772 11 2C11 2.55228 11.4477 3 12 3Z" fill="url(#paint1_radial_2103_11225)"/>
<path d="M23 8C23.5523 8 24 7.55228 24 7C24 6.44772 23.5523 6 23 6C22.4477 6 22 6.44772 22 7C22 7.55228 22.4477 8 23 8Z" fill="url(#paint2_radial_2103_11225)"/>
<path d="M1 8C1.55229 8 2 7.55228 2 7C2 6.44772 1.55229 6 1 6C0.447715 6 0 6.44772 0 7C0 7.55228 0.447715 8 1 8Z" fill="url(#paint3_radial_2103_11225)"/>
<path d="M12 18C13.1046 18 14 16.6569 14 15C14 13.3431 13.1046 12 12 12C10.8954 12 10 13.3431 10 15C10 16.6569 10.8954 18 12 18Z" fill="url(#paint4_linear_2103_11225)"/>
<path d="M1.18555 17C1.18555 18.9657 6.02418 20.5638 12 20.5638C17.9758 20.5638 22.8227 18.9657 22.8227 17" stroke="url(#paint5_linear_2103_11225)" stroke-linecap="round"/>
<defs>
<radialGradient id="paint0_radial_2103_11225" cx="0" cy="0" r="1" gradientUnits="userSpaceOnUse" gradientTransform="translate(7.72222 7.13894) rotate(75.9638) scale(17.6377 18.5322)">
<stop stop-color="#FFF9D4"/>
<stop offset="1" stop-color="#FFD072"/>
</radialGradient>
<radialGradient id="paint1_radial_2103_11225" cx="0" cy="0" r="1" gradientUnits="userSpaceOnUse" gradientTransform="translate(12.2041 1.4558) rotate(104.621) scale(1.36294)">
<stop stop-color="#FFF29B"/>
<stop offset="1" stop-color="#FFD072"/>
</radialGradient>
<radialGradient id="paint2_radial_2103_11225" cx="0" cy="0" r="1" gradientUnits="userSpaceOnUse" gradientTransform="translate(23.2041 6.4558) rotate(104.621) scale(1.36294)">
<stop stop-color="#FFF29B"/>
<stop offset="1" stop-color="#FFD072"/>
</radialGradient>
<radialGradient id="paint3_radial_2103_11225" cx="0" cy="0" r="1" gradientUnits="userSpaceOnUse" gradientTransform="translate(1.20413 6.4558) rotate(104.621) scale(1.36294)">
<stop stop-color="#FFF29B"/>
<stop offset="1" stop-color="#FFD072"/>
</radialGradient>
<linearGradient id="paint4_linear_2103_11225" x1="12" y1="9.0127" x2="12" y2="18" gradientUnits="userSpaceOnUse">
<stop stop-color="#FFCCD7"/>
<stop offset="1" stop-color="#FF5C7E"/>
</linearGradient>
<linearGradient id="paint5_linear_2103_11225" x1="11.5" y1="17" x2="13.5" y2="25" gradientUnits="userSpaceOnUse">
<stop stop-color="#FFCCD7"/>
<stop offset="1" stop-color="#FF5C7E"/>
</linearGradient>
</defs>
</svg>
